<?xml version="1.0" encoding="UTF-8"?>
<!DOCTYPE xmeml>
<xmeml version="4">
	<bin>
		<name>Day_00</name>
		<labels>
			<label2>Mango</label2>
		</labels>
		<children>
			<bin>
				<name>R001</name>
				<labels>
					<label2>Mango</label2>
				</labels>
				<children>
					<bin>
						<name>R001_C001</name>
						<labels>
							<label2>Mango</label2>
						</labels>
						<children>
							<bin>
								<name>A002_C001_0216MW.RDC</name>
								<labels>
									<label2>Mango</label2>
								</labels>
								<children>
									<clip id="masterclip-1" explodedTracks="true" frameBlend="FALSE">
										<uuid>9d4e6c39-b2ee-4a6c-ab23-b8ec17957bfd</uuid>
										<masterclipid>masterclip-1</masterclipid>
										<ismasterclip>TRUE</ismasterclip>
										<duration>14400</duration>
										<rate>
											<timebase>30</timebase>
											<ntsc>TRUE</ntsc>
										</rate>
										<name>A002_C001_0216MW_001.R3D</name>
										<media>
											<video>
												<track>
													<clipitem id="clipitem-1" frameBlend="FALSE">
														<masterclipid>masterclip-1</masterclipid>
														<name>A002_C001_0216MW_001.R3D</name>
														<rate>
															<timebase>30</timebase>
															<ntsc>TRUE</ntsc>
														</rate>
														<alphatype>none</alphatype>
														<pixelaspectratio>square</pixelaspectratio>
														<anamorphic>FALSE</anamorphic>
														<file id="file-1">
															<name>A002_C001_0216MW_001.R3D</name>
															<pathurl>file://localhost/Volumes/REDLAB_3A/SESQUI/MASTER_FILES/DAY_00/RED/R001/A002/A002_0216FE.RDM/A002_C001_0216MW.RDC/A002_C001_0216MW_001.R3D</pathurl>
															<rate>
																<timebase>30</timebase>
																<ntsc>TRUE</ntsc>
															</rate>
															<duration>14400</duration>
															<timecode>
																<rate>
																	<timebase>30</timebase>
																	<ntsc>TRUE</ntsc>
																</rate>
																<string>02:21:21:13</string>
																<frame>254443</frame>
																<displayformat>NDF</displayformat>
															</timecode>
															<media hasDiscreteStreams="true">
																<video>
																	<samplecharacteristics>
																		<rate>
																			<timebase>30</timebase>
																			<ntsc>TRUE</ntsc>
																		</rate>
																		<width>6144</width>
																		<height>3160</height>
																		<anamorphic>FALSE</anamorphic>
																		<pixelaspectratio>square</pixelaspectratio>
																		<fielddominance>none</fielddominance>
																	</samplecharacteristics>
																</video>
																<audio>
																	<samplecharacteristics>
																		<depth>16</depth>
																		<samplerate>48000</samplerate>
																	</samplecharacteristics>
																	<channelcount>1</channelcount>
																	<layout>mono</layout>
																	<audiochannel>
																		<sourcechannel>1</sourcechannel>
																		<channellabel>discrete</channellabel>
																	</audiochannel>
																</audio>
																<audio>
																	<samplecharacteristics>
																		<depth>16</depth>
																		<samplerate>48000</samplerate>
																	</samplecharacteristics>
																	<channelcount>1</channelcount>
																	<layout>mono</layout>
																	<audiochannel>
																		<sourcechannel>2</sourcechannel>
																		<channellabel>discrete</channellabel>
																	</audiochannel>
																</audio>
															</media>
														</file>
														<link>
															<linkclipref>clipitem-1</linkclipref>
															<mediatype>video</mediatype>
															<trackindex>1</trackindex>
															<clipindex>1</clipindex>
														</link>
														<link>
															<linkclipref>clipitem-2</linkclipref>
															<mediatype>audio</mediatype>
															<trackindex>1</trackindex>
															<clipindex>1</clipindex>
														</link>
														<link>
															<linkclipref>clipitem-3</linkclipref>
															<mediatype>audio</mediatype>
															<trackindex>2</trackindex>
															<clipindex>1</clipindex>
														</link>
													</clipitem>
												</track>
											</video>
											<audio>
												<track>
													<clipitem id="clipitem-2" frameBlend="FALSE">
														<masterclipid>masterclip-1</masterclipid>
														<name>A002_C001_0216MW_001.R3D</name>
														<rate>
															<timebase>30</timebase>
															<ntsc>TRUE</ntsc>
														</rate>
														<file id="file-1"/>
														<sourcetrack>
															<mediatype>audio</mediatype>
															<trackindex>1</trackindex>
														</sourcetrack>
														<link>
															<linkclipref>clipitem-1</linkclipref>
															<mediatype>video</mediatype>
															<trackindex>1</trackindex>
															<clipindex>1</clipindex>
														</link>
														<link>
															<linkclipref>clipitem-2</linkclipref>
															<mediatype>audio</mediatype>
															<trackindex>1</trackindex>
															<clipindex>1</clipindex>
														</link>
														<link>
															<linkclipref>clipitem-3</linkclipref>
															<mediatype>audio</mediatype>
															<trackindex>2</trackindex>
															<clipindex>1</clipindex>
														</link>
													</clipitem>
												</track>
												<track>
													<clipitem id="clipitem-3" frameBlend="FALSE">
														<masterclipid>masterclip-1</masterclipid>
														<name>A002_C001_0216MW_001.R3D</name>
														<rate>
															<timebase>30</timebase>
															<ntsc>TRUE</ntsc>
														</rate>
														<file id="file-1"/>
														<sourcetrack>
															<mediatype>audio</mediatype>
															<trackindex>2</trackindex>
														</sourcetrack>
														<link>
															<linkclipref>clipitem-1</linkclipref>
															<mediatype>video</mediatype>
															<trackindex>1</trackindex>
															<clipindex>1</clipindex>
														</link>
														<link>
															<linkclipref>clipitem-2</linkclipref>
															<mediatype>audio</mediatype>
															<trackindex>1</trackindex>
															<clipindex>1</clipindex>
														</link>
														<link>
															<linkclipref>clipitem-3</linkclipref>
															<mediatype>audio</mediatype>
															<trackindex>2</trackindex>
															<clipindex>1</clipindex>
														</link>
													</clipitem>
												</track>
											</audio>
										</media>
										<logginginfo>
											<description></description>
											<scene></scene>
											<shottake></shottake>
											<lognote>As Shot</lognote>
										</logginginfo>
										<labels>
											<label2>Iris</label2>
										</labels>
									</clip>
									<clip id="masterclip-2" explodedTracks="true" frameBlend="FALSE">
										<uuid>6efb6a9d-5e0d-4368-b3b0-43c5c6babe5c</uuid>
										<masterclipid>masterclip-2</masterclipid>
										<ismasterclip>TRUE</ismasterclip>
										<duration>14400</duration>
										<rate>
											<timebase>30</timebase>
											<ntsc>TRUE</ntsc>
										</rate>
										<name>A002_C001_0216MW_002.R3D</name>
										<media>
											<video>
												<track>
													<clipitem id="clipitem-4" frameBlend="FALSE">
														<masterclipid>masterclip-2</masterclipid>
														<name>A002_C001_0216MW_002.R3D</name>
														<rate>
															<timebase>30</timebase>
															<ntsc>TRUE</ntsc>
														</rate>
														<alphatype>none</alphatype>
														<pixelaspectratio>square</pixelaspectratio>
														<anamorphic>FALSE</anamorphic>
														<file id="file-2">
															<name>A002_C001_0216MW_002.R3D</name>
															<pathurl>file://localhost/Volumes/REDLAB_3A/SESQUI/MASTER_FILES/DAY_00/RED/R001/A002/A002_0216FE.RDM/A002_C001_0216MW.RDC/A002_C001_0216MW_002.R3D</pathurl>
															<rate>
																<timebase>30</timebase>
																<ntsc>TRUE</ntsc>
															</rate>
															<duration>14400</duration>
															<timecode>
																<rate>
																	<timebase>30</timebase>
																	<ntsc>TRUE</ntsc>
																</rate>
																<string>02:21:21:13</string>
																<frame>254443</frame>
																<displayformat>NDF</displayformat>
															</timecode>
															<media hasDiscreteStreams="true">
																<video>
																	<samplecharacteristics>
																		<rate>
																			<timebase>30</timebase>
																			<ntsc>TRUE</ntsc>
																		</rate>
																		<width>6144</width>
																		<height>3160</height>
																		<anamorphic>FALSE</anamorphic>
																		<pixelaspectratio>square</pixelaspectratio>
																		<fielddominance>none</fielddominance>
																	</samplecharacteristics>
																</video>
																<audio>
																	<samplecharacteristics>
																		<depth>16</depth>
																		<samplerate>48000</samplerate>
																	</samplecharacteristics>
																	<channelcount>1</channelcount>
																	<layout>mono</layout>
																	<audiochannel>
																		<sourcechannel>1</sourcechannel>
																		<channellabel>discrete</channellabel>
																	</audiochannel>
																</audio>
																<audio>
																	<samplecharacteristics>
																		<depth>16</depth>
																		<samplerate>48000</samplerate>
																	</samplecharacteristics>
																	<channelcount>1</channelcount>
																	<layout>mono</layout>
																	<audiochannel>
																		<sourcechannel>2</sourcechannel>
																		<channellabel>discrete</channellabel>
																	</audiochannel>
																</audio>
															</media>
														</file>
														<link>
															<linkclipref>clipitem-4</linkclipref>
															<mediatype>video</mediatype>
															<trackindex>1</trackindex>
															<clipindex>1</clipindex>
														</link>
														<link>
															<linkclipref>clipitem-5</linkclipref>
															<mediatype>audio</mediatype>
															<trackindex>1</trackindex>
															<clipindex>1</clipindex>
														</link>
														<link>
															<linkclipref>clipitem-6</linkclipref>
															<mediatype>audio</mediatype>
															<trackindex>2</trackindex>
															<clipindex>1</clipindex>
														</link>
													</clipitem>
												</track>
											</video>
											<audio>
												<track>
													<clipitem id="clipitem-5" frameBlend="FALSE">
														<masterclipid>masterclip-2</masterclipid>
														<name>A002_C001_0216MW_002.R3D</name>
														<rate>
															<timebase>30</timebase>
															<ntsc>TRUE</ntsc>
														</rate>
														<file id="file-2"/>
														<sourcetrack>
															<mediatype>audio</mediatype>
															<trackindex>1</trackindex>
														</sourcetrack>
														<link>
															<linkclipref>clipitem-4</linkclipref>
															<mediatype>video</mediatype>
															<trackindex>1</trackindex>
															<clipindex>1</clipindex>
														</link>
														<link>
															<linkclipref>clipitem-5</linkclipref>
															<mediatype>audio</mediatype>
															<trackindex>1</trackindex>
															<clipindex>1</clipindex>
														</link>
														<link>
															<linkclipref>clipitem-6</linkclipref>
															<mediatype>audio</mediatype>
															<trackindex>2</trackindex>
															<clipindex>1</clipindex>
														</link>
													</clipitem>
												</track>
												<track>
													<clipitem id="clipitem-6" frameBlend="FALSE">
														<masterclipid>masterclip-2</masterclipid>
														<name>A002_C001_0216MW_002.R3D</name>
														<rate>
															<timebase>30</timebase>
															<ntsc>TRUE</ntsc>
														</rate>
														<file id="file-2"/>
														<sourcetrack>
															<mediatype>audio</mediatype>
															<trackindex>2</trackindex>
														</sourcetrack>
														<link>
															<linkclipref>clipitem-4</linkclipref>
															<mediatype>video</mediatype>
															<trackindex>1</trackindex>
															<clipindex>1</clipindex>
														</link>
														<link>
															<linkclipref>clipitem-5</linkclipref>
															<mediatype>audio</mediatype>
															<trackindex>1</trackindex>
															<clipindex>1</clipindex>
														</link>
														<link>
															<linkclipref>clipitem-6</linkclipref>
															<mediatype>audio</mediatype>
															<trackindex>2</trackindex>
															<clipindex>1</clipindex>
														</link>
													</clipitem>
												</track>
											</audio>
										</media>
										<logginginfo>
											<description></description>
											<scene></scene>
											<shottake></shottake>
											<lognote>As Shot</lognote>
										</logginginfo>
										<labels>
											<label2>Iris</label2>
										</labels>
									</clip>
									<clip id="masterclip-3" explodedTracks="true" frameBlend="FALSE">
										<uuid>8170db21-e7c0-4f5b-b0d4-1c14b36286f8</uuid>
										<masterclipid>masterclip-3</masterclipid>
										<ismasterclip>TRUE</ismasterclip>
										<duration>14400</duration>
										<rate>
											<timebase>30</timebase>
											<ntsc>TRUE</ntsc>
										</rate>
										<name>A002_C001_0216MW_003.R3D</name>
										<media>
											<video>
												<track>
													<clipitem id="clipitem-7" frameBlend="FALSE">
														<masterclipid>masterclip-3</masterclipid>
														<name>A002_C001_0216MW_003.R3D</name>
														<rate>
															<timebase>30</timebase>
															<ntsc>TRUE</ntsc>
														</rate>
														<alphatype>none</alphatype>
														<pixelaspectratio>square</pixelaspectratio>
														<anamorphic>FALSE</anamorphic>
														<file id="file-3">
															<name>A002_C001_0216MW_003.R3D</name>
															<pathurl>file://localhost/Volumes/REDLAB_3A/SESQUI/MASTER_FILES/DAY_00/RED/R001/A002/A002_0216FE.RDM/A002_C001_0216MW.RDC/A002_C001_0216MW_003.R3D</pathurl>
															<rate>
																<timebase>30</timebase>
																<ntsc>TRUE</ntsc>
															</rate>
															<duration>14400</duration>
															<timecode>
																<rate>
																	<timebase>30</timebase>
																	<ntsc>TRUE</ntsc>
																</rate>
																<string>02:21:21:13</string>
																<frame>254443</frame>
																<displayformat>NDF</displayformat>
															</timecode>
															<media hasDiscreteStreams="true">
																<video>
																	<samplecharacteristics>
																		<rate>
																			<timebase>30</timebase>
																			<ntsc>TRUE</ntsc>
																		</rate>
																		<width>6144</width>
																		<height>3160</height>
																		<anamorphic>FALSE</anamorphic>
																		<pixelaspectratio>square</pixelaspectratio>
																		<fielddominance>none</fielddominance>
																	</samplecharacteristics>
																</video>
																<audio>
																	<samplecharacteristics>
																		<depth>16</depth>
																		<samplerate>48000</samplerate>
																	</samplecharacteristics>
																	<channelcount>1</channelcount>
																	<layout>mono</layout>
																	<audiochannel>
																		<sourcechannel>1</sourcechannel>
																		<channellabel>discrete</channellabel>
																	</audiochannel>
																</audio>
																<audio>
																	<samplecharacteristics>
																		<depth>16</depth>
																		<samplerate>48000</samplerate>
																	</samplecharacteristics>
																	<channelcount>1</channelcount>
																	<layout>mono</layout>
																	<audiochannel>
																		<sourcechannel>2</sourcechannel>
																		<channellabel>discrete</channellabel>
																	</audiochannel>
																</audio>
															</media>
														</file>
														<link>
															<linkclipref>clipitem-7</linkclipref>
															<mediatype>video</mediatype>
															<trackindex>1</trackindex>
															<clipindex>1</clipindex>
														</link>
														<link>
															<linkclipref>clipitem-8</linkclipref>
															<mediatype>audio</mediatype>
															<trackindex>1</trackindex>
															<clipindex>1</clipindex>
														</link>
														<link>
															<linkclipref>clipitem-9</linkclipref>
															<mediatype>audio</mediatype>
															<trackindex>2</trackindex>
															<clipindex>1</clipindex>
														</link>
													</clipitem>
												</track>
											</video>
											<audio>
												<track>
													<clipitem id="clipitem-8" frameBlend="FALSE">
														<masterclipid>masterclip-3</masterclipid>
														<name>A002_C001_0216MW_003.R3D</name>
														<rate>
															<timebase>30</timebase>
															<ntsc>TRUE</ntsc>
														</rate>
														<file id="file-3"/>
														<sourcetrack>
															<mediatype>audio</mediatype>
															<trackindex>1</trackindex>
														</sourcetrack>
														<link>
															<linkclipref>clipitem-7</linkclipref>
															<mediatype>video</mediatype>
															<trackindex>1</trackindex>
															<clipindex>1</clipindex>
														</link>
														<link>
															<linkclipref>clipitem-8</linkclipref>
															<mediatype>audio</mediatype>
															<trackindex>1</trackindex>
															<clipindex>1</clipindex>
														</link>
														<link>
															<linkclipref>clipitem-9</linkclipref>
															<mediatype>audio</mediatype>
															<trackindex>2</trackindex>
															<clipindex>1</clipindex>
														</link>
													</clipitem>
												</track>
												<track>
													<clipitem id="clipitem-9" frameBlend="FALSE">
														<masterclipid>masterclip-3</masterclipid>
														<name>A002_C001_0216MW_003.R3D</name>
														<rate>
															<timebase>30</timebase>
															<ntsc>TRUE</ntsc>
														</rate>
														<file id="file-3"/>
														<sourcetrack>
															<mediatype>audio</mediatype>
															<trackindex>2</trackindex>
														</sourcetrack>
														<link>
															<linkclipref>clipitem-7</linkclipref>
															<mediatype>video</mediatype>
															<trackindex>1</trackindex>
															<clipindex>1</clipindex>
														</link>
														<link>
															<linkclipref>clipitem-8</linkclipref>
															<mediatype>audio</mediatype>
															<trackindex>1</trackindex>
															<clipindex>1</clipindex>
														</link>
														<link>
															<linkclipref>clipitem-9</linkclipref>
															<mediatype>audio</mediatype>
															<trackindex>2</trackindex>
															<clipindex>1</clipindex>
														</link>
													</clipitem>
												</track>
											</audio>
										</media>
										<logginginfo>
											<description></description>
											<scene></scene>
											<shottake></shottake>
											<lognote>As Shot</lognote>
										</logginginfo>
										<labels>
											<label2>Iris</label2>
										</labels>
									</clip>
									<clip id="masterclip-4" explodedTracks="true" frameBlend="FALSE">
										<uuid>9ee2bd5c-4508-4124-b40e-70d40a50ca49</uuid>
										<masterclipid>masterclip-4</masterclipid>
										<ismasterclip>TRUE</ismasterclip>
										<duration>14400</duration>
										<rate>
											<timebase>30</timebase>
											<ntsc>TRUE</ntsc>
										</rate>
										<name>A002_C001_0216MW_004.R3D</name>
										<media>
											<video>
												<track>
													<clipitem id="clipitem-10" frameBlend="FALSE">
														<masterclipid>masterclip-4</masterclipid>
														<name>A002_C001_0216MW_004.R3D</name>
														<rate>
															<timebase>30</timebase>
															<ntsc>TRUE</ntsc>
														</rate>
														<alphatype>none</alphatype>
														<pixelaspectratio>square</pixelaspectratio>
														<anamorphic>FALSE</anamorphic>
														<file id="file-4">
															<name>A002_C001_0216MW_004.R3D</name>
															<pathurl>file://localhost/Volumes/REDLAB_3A/SESQUI/MASTER_FILES/DAY_00/RED/R001/A002/A002_0216FE.RDM/A002_C001_0216MW.RDC/A002_C001_0216MW_004.R3D</pathurl>
															<rate>
																<timebase>30</timebase>
																<ntsc>TRUE</ntsc>
															</rate>
															<duration>14400</duration>
															<timecode>
																<rate>
																	<timebase>30</timebase>
																	<ntsc>TRUE</ntsc>
																</rate>
																<string>02:21:21:13</string>
																<frame>254443</frame>
																<displayformat>NDF</displayformat>
															</timecode>
															<media hasDiscreteStreams="true">
																<video>
																	<samplecharacteristics>
																		<rate>
																			<timebase>30</timebase>
																			<ntsc>TRUE</ntsc>
																		</rate>
																		<width>6144</width>
																		<height>3160</height>
																		<anamorphic>FALSE</anamorphic>
																		<pixelaspectratio>square</pixelaspectratio>
																		<fielddominance>none</fielddominance>
																	</samplecharacteristics>
																</video>
																<audio>
																	<samplecharacteristics>
																		<depth>16</depth>
																		<samplerate>48000</samplerate>
																	</samplecharacteristics>
																	<channelcount>1</channelcount>
																	<layout>mono</layout>
																	<audiochannel>
																		<sourcechannel>1</sourcechannel>
																		<channellabel>discrete</channellabel>
																	</audiochannel>
																</audio>
																<audio>
																	<samplecharacteristics>
																		<depth>16</depth>
																		<samplerate>48000</samplerate>
																	</samplecharacteristics>
																	<channelcount>1</channelcount>
																	<layout>mono</layout>
																	<audiochannel>
																		<sourcechannel>2</sourcechannel>
																		<channellabel>discrete</channellabel>
																	</audiochannel>
																</audio>
															</media>
														</file>
														<link>
															<linkclipref>clipitem-10</linkclipref>
															<mediatype>video</mediatype>
															<trackindex>1</trackindex>
															<clipindex>1</clipindex>
														</link>
														<link>
															<linkclipref>clipitem-11</linkclipref>
															<mediatype>audio</mediatype>
															<trackindex>1</trackindex>
															<clipindex>1</clipindex>
														</link>
														<link>
															<linkclipref>clipitem-12</linkclipref>
															<mediatype>audio</mediatype>
															<trackindex>2</trackindex>
															<clipindex>1</clipindex>
														</link>
													</clipitem>
												</track>
											</video>
											<audio>
												<track>
													<clipitem id="clipitem-11" frameBlend="FALSE">
														<masterclipid>masterclip-4</masterclipid>
														<name>A002_C001_0216MW_004.R3D</name>
														<rate>
															<timebase>30</timebase>
															<ntsc>TRUE</ntsc>
														</rate>
														<file id="file-4"/>
														<sourcetrack>
															<mediatype>audio</mediatype>
															<trackindex>1</trackindex>
														</sourcetrack>
														<link>
															<linkclipref>clipitem-10</linkclipref>
															<mediatype>video</mediatype>
															<trackindex>1</trackindex>
															<clipindex>1</clipindex>
														</link>
														<link>
															<linkclipref>clipitem-11</linkclipref>
															<mediatype>audio</mediatype>
															<trackindex>1</trackindex>
															<clipindex>1</clipindex>
														</link>
														<link>
															<linkclipref>clipitem-12</linkclipref>
															<mediatype>audio</mediatype>
															<trackindex>2</trackindex>
															<clipindex>1</clipindex>
														</link>
													</clipitem>
												</track>
												<track>
													<clipitem id="clipitem-12" frameBlend="FALSE">
														<masterclipid>masterclip-4</masterclipid>
														<name>A002_C001_0216MW_004.R3D</name>
														<rate>
															<timebase>30</timebase>
															<ntsc>TRUE</ntsc>
														</rate>
														<file id="file-4"/>
														<sourcetrack>
															<mediatype>audio</mediatype>
															<trackindex>2</trackindex>
														</sourcetrack>
														<link>
															<linkclipref>clipitem-10</linkclipref>
															<mediatype>video</mediatype>
															<trackindex>1</trackindex>
															<clipindex>1</clipindex>
														</link>
														<link>
															<linkclipref>clipitem-11</linkclipref>
															<mediatype>audio</mediatype>
															<trackindex>1</trackindex>
															<clipindex>1</clipindex>
														</link>
														<link>
															<linkclipref>clipitem-12</linkclipref>
															<mediatype>audio</mediatype>
															<trackindex>2</trackindex>
															<clipindex>1</clipindex>
														</link>
													</clipitem>
												</track>
											</audio>
										</media>
										<logginginfo>
											<description></description>
											<scene></scene>
											<shottake></shottake>
											<lognote>As Shot</lognote>
										</logginginfo>
										<labels>
											<label2>Iris</label2>
										</labels>
									</clip>
									<clip id="masterclip-5" explodedTracks="true" frameBlend="FALSE">
										<uuid>96aa4355-5cc9-4e44-9b6e-f2ef0c759fb6</uuid>
										<masterclipid>masterclip-5</masterclipid>
										<ismasterclip>TRUE</ismasterclip>
										<duration>14400</duration>
										<rate>
											<timebase>30</timebase>
											<ntsc>TRUE</ntsc>
										</rate>
										<name>A002_C001_0216MW_005.R3D</name>
										<media>
											<video>
												<track>
													<clipitem id="clipitem-13" frameBlend="FALSE">
														<masterclipid>masterclip-5</masterclipid>
														<name>A002_C001_0216MW_005.R3D</name>
														<rate>
															<timebase>30</timebase>
															<ntsc>TRUE</ntsc>
														</rate>
														<alphatype>none</alphatype>
														<pixelaspectratio>square</pixelaspectratio>
														<anamorphic>FALSE</anamorphic>
														<file id="file-5">
															<name>A002_C001_0216MW_005.R3D</name>
															<pathurl>file://localhost/Volumes/REDLAB_3A/SESQUI/MASTER_FILES/DAY_00/RED/R001/A002/A002_0216FE.RDM/A002_C001_0216MW.RDC/A002_C001_0216MW_005.R3D</pathurl>
															<rate>
																<timebase>30</timebase>
																<ntsc>TRUE</ntsc>
															</rate>
															<duration>14400</duration>
															<timecode>
																<rate>
																	<timebase>30</timebase>
																	<ntsc>TRUE</ntsc>
																</rate>
																<string>02:21:21:13</string>
																<frame>254443</frame>
																<displayformat>NDF</displayformat>
															</timecode>
															<media hasDiscreteStreams="true">
																<video>
																	<samplecharacteristics>
																		<rate>
																			<timebase>30</timebase>
																			<ntsc>TRUE</ntsc>
																		</rate>
																		<width>6144</width>
																		<height>3160</height>
																		<anamorphic>FALSE</anamorphic>
																		<pixelaspectratio>square</pixelaspectratio>
																		<fielddominance>none</fielddominance>
																	</samplecharacteristics>
																</video>
																<audio>
																	<samplecharacteristics>
																		<depth>16</depth>
																		<samplerate>48000</samplerate>
																	</samplecharacteristics>
																	<channelcount>1</channelcount>
																	<layout>mono</layout>
																	<audiochannel>
																		<sourcechannel>1</sourcechannel>
																		<channellabel>discrete</channellabel>
																	</audiochannel>
																</audio>
																<audio>
																	<samplecharacteristics>
																		<depth>16</depth>
																		<samplerate>48000</samplerate>
																	</samplecharacteristics>
																	<channelcount>1</channelcount>
																	<layout>mono</layout>
																	<audiochannel>
																		<sourcechannel>2</sourcechannel>
																		<channellabel>discrete</channellabel>
																	</audiochannel>
																</audio>
															</media>
														</file>
														<link>
															<linkclipref>clipitem-13</linkclipref>
															<mediatype>video</mediatype>
															<trackindex>1</trackindex>
															<clipindex>1</clipindex>
														</link>
														<link>
															<linkclipref>clipitem-14</linkclipref>
															<mediatype>audio</mediatype>
															<trackindex>1</trackindex>
															<clipindex>1</clipindex>
														</link>
														<link>
															<linkclipref>clipitem-15</linkclipref>
															<mediatype>audio</mediatype>
															<trackindex>2</trackindex>
															<clipindex>1</clipindex>
														</link>
													</clipitem>
												</track>
											</video>
											<audio>
												<track>
													<clipitem id="clipitem-14" frameBlend="FALSE">
														<masterclipid>masterclip-5</masterclipid>
														<name>A002_C001_0216MW_005.R3D</name>
														<rate>
															<timebase>30</timebase>
															<ntsc>TRUE</ntsc>
														</rate>
														<file id="file-5"/>
														<sourcetrack>
															<mediatype>audio</mediatype>
															<trackindex>1</trackindex>
														</sourcetrack>
														<link>
															<linkclipref>clipitem-13</linkclipref>
															<mediatype>video</mediatype>
															<trackindex>1</trackindex>
															<clipindex>1</clipindex>
														</link>
														<link>
															<linkclipref>clipitem-14</linkclipref>
															<mediatype>audio</mediatype>
															<trackindex>1</trackindex>
															<clipindex>1</clipindex>
														</link>
														<link>
															<linkclipref>clipitem-15</linkclipref>
															<mediatype>audio</mediatype>
															<trackindex>2</trackindex>
															<clipindex>1</clipindex>
														</link>
													</clipitem>
												</track>
												<track>
													<clipitem id="clipitem-15" frameBlend="FALSE">
														<masterclipid>masterclip-5</masterclipid>
														<name>A002_C001_0216MW_005.R3D</name>
														<rate>
															<timebase>30</timebase>
															<ntsc>TRUE</ntsc>
														</rate>
														<file id="file-5"/>
														<sourcetrack>
															<mediatype>audio</mediatype>
															<trackindex>2</trackindex>
														</sourcetrack>
														<link>
															<linkclipref>clipitem-13</linkclipref>
															<mediatype>video</mediatype>
															<trackindex>1</trackindex>
															<clipindex>1</clipindex>
														</link>
														<link>
															<linkclipref>clipitem-14</linkclipref>
															<mediatype>audio</mediatype>
															<trackindex>1</trackindex>
															<clipindex>1</clipindex>
														</link>
														<link>
															<linkclipref>clipitem-15</linkclipref>
															<mediatype>audio</mediatype>
															<trackindex>2</trackindex>
															<clipindex>1</clipindex>
														</link>
													</clipitem>
												</track>
											</audio>
										</media>
										<logginginfo>
											<description></description>
											<scene></scene>
											<shottake></shottake>
											<lognote>As Shot</lognote>
										</logginginfo>
										<labels>
											<label2>Iris</label2>
										</labels>
									</clip>
									<clip id="masterclip-6" explodedTracks="true" frameBlend="FALSE">
										<uuid>5593c133-c5cb-415e-b7d6-09219a8ed668</uuid>
										<masterclipid>masterclip-6</masterclipid>
										<ismasterclip>TRUE</ismasterclip>
										<duration>14400</duration>
										<rate>
											<timebase>30</timebase>
											<ntsc>TRUE</ntsc>
										</rate>
										<name>A002_C001_0216MW_006.R3D</name>
										<media>
											<video>
												<track>
													<clipitem id="clipitem-16" frameBlend="FALSE">
														<masterclipid>masterclip-6</masterclipid>
														<name>A002_C001_0216MW_006.R3D</name>
														<rate>
															<timebase>30</timebase>
															<ntsc>TRUE</ntsc>
														</rate>
														<alphatype>none</alphatype>
														<pixelaspectratio>square</pixelaspectratio>
														<anamorphic>FALSE</anamorphic>
														<file id="file-6">
															<name>A002_C001_0216MW_006.R3D</name>
															<pathurl>file://localhost/Volumes/REDLAB_3A/SESQUI/MASTER_FILES/DAY_00/RED/R001/A002/A002_0216FE.RDM/A002_C001_0216MW.RDC/A002_C001_0216MW_006.R3D</pathurl>
															<rate>
																<timebase>30</timebase>
																<ntsc>TRUE</ntsc>
															</rate>
															<duration>14400</duration>
															<timecode>
																<rate>
																	<timebase>30</timebase>
																	<ntsc>TRUE</ntsc>
																</rate>
																<string>02:21:21:13</string>
																<frame>254443</frame>
																<displayformat>NDF</displayformat>
															</timecode>
															<media hasDiscreteStreams="true">
																<video>
																	<samplecharacteristics>
																		<rate>
																			<timebase>30</timebase>
																			<ntsc>TRUE</ntsc>
																		</rate>
																		<width>6144</width>
																		<height>3160</height>
																		<anamorphic>FALSE</anamorphic>
																		<pixelaspectratio>square</pixelaspectratio>
																		<fielddominance>none</fielddominance>
																	</samplecharacteristics>
																</video>
																<audio>
																	<samplecharacteristics>
																		<depth>16</depth>
																		<samplerate>48000</samplerate>
																	</samplecharacteristics>
																	<channelcount>1</channelcount>
																	<layout>mono</layout>
																	<audiochannel>
																		<sourcechannel>1</sourcechannel>
																		<channellabel>discrete</channellabel>
																	</audiochannel>
																</audio>
																<audio>
																	<samplecharacteristics>
																		<depth>16</depth>
																		<samplerate>48000</samplerate>
																	</samplecharacteristics>
																	<channelcount>1</channelcount>
																	<layout>mono</layout>
																	<audiochannel>
																		<sourcechannel>2</sourcechannel>
																		<channellabel>discrete</channellabel>
																	</audiochannel>
																</audio>
															</media>
														</file>
														<link>
															<linkclipref>clipitem-16</linkclipref>
															<mediatype>video</mediatype>
															<trackindex>1</trackindex>
															<clipindex>1</clipindex>
														</link>
														<link>
															<linkclipref>clipitem-17</linkclipref>
															<mediatype>audio</mediatype>
															<trackindex>1</trackindex>
															<clipindex>1</clipindex>
														</link>
														<link>
															<linkclipref>clipitem-18</linkclipref>
															<mediatype>audio</mediatype>
															<trackindex>2</trackindex>
															<clipindex>1</clipindex>
														</link>
													</clipitem>
												</track>
											</video>
											<audio>
												<track>
													<clipitem id="clipitem-17" frameBlend="FALSE">
														<masterclipid>masterclip-6</masterclipid>
														<name>A002_C001_0216MW_006.R3D</name>
														<rate>
															<timebase>30</timebase>
															<ntsc>TRUE</ntsc>
														</rate>
														<file id="file-6"/>
														<sourcetrack>
															<mediatype>audio</mediatype>
															<trackindex>1</trackindex>
														</sourcetrack>
														<link>
															<linkclipref>clipitem-16</linkclipref>
															<mediatype>video</mediatype>
															<trackindex>1</trackindex>
															<clipindex>1</clipindex>
														</link>
														<link>
															<linkclipref>clipitem-17</linkclipref>
															<mediatype>audio</mediatype>
															<trackindex>1</trackindex>
															<clipindex>1</clipindex>
														</link>
														<link>
															<linkclipref>clipitem-18</linkclipref>
															<mediatype>audio</mediatype>
															<trackindex>2</trackindex>
															<clipindex>1</clipindex>
														</link>
													</clipitem>
												</track>
												<track>
													<clipitem id="clipitem-18" frameBlend="FALSE">
														<masterclipid>masterclip-6</masterclipid>
														<name>A002_C001_0216MW_006.R3D</name>
														<rate>
															<timebase>30</timebase>
															<ntsc>TRUE</ntsc>
														</rate>
														<file id="file-6"/>
														<sourcetrack>
															<mediatype>audio</mediatype>
															<trackindex>2</trackindex>
														</sourcetrack>
														<link>
															<linkclipref>clipitem-16</linkclipref>
															<mediatype>video</mediatype>
															<trackindex>1</trackindex>
															<clipindex>1</clipindex>
														</link>
														<link>
															<linkclipref>clipitem-17</linkclipref>
															<mediatype>audio</mediatype>
															<trackindex>1</trackindex>
															<clipindex>1</clipindex>
														</link>
														<link>
															<linkclipref>clipitem-18</linkclipref>
															<mediatype>audio</mediatype>
															<trackindex>2</trackindex>
															<clipindex>1</clipindex>
														</link>
													</clipitem>
												</track>
											</audio>
										</media>
										<logginginfo>
											<description></description>
											<scene></scene>
											<shottake></shottake>
											<lognote>As Shot</lognote>
										</logginginfo>
										<labels>
											<label2>Iris</label2>
										</labels>
									</clip>
									<clip id="masterclip-7" explodedTracks="true" frameBlend="FALSE">
										<uuid>06e5fa9b-e6bd-4cba-8926-3ff22f27f92b</uuid>
										<masterclipid>masterclip-7</masterclipid>
										<ismasterclip>TRUE</ismasterclip>
										<duration>14400</duration>
										<rate>
											<timebase>30</timebase>
											<ntsc>TRUE</ntsc>
										</rate>
										<name>A002_C001_0216MW_007.R3D</name>
										<media>
											<video>
												<track>
													<clipitem id="clipitem-19" frameBlend="FALSE">
														<masterclipid>masterclip-7</masterclipid>
														<name>A002_C001_0216MW_007.R3D</name>
														<rate>
															<timebase>30</timebase>
															<ntsc>TRUE</ntsc>
														</rate>
														<alphatype>none</alphatype>
														<pixelaspectratio>square</pixelaspectratio>
														<anamorphic>FALSE</anamorphic>
														<file id="file-7">
															<name>A002_C001_0216MW_007.R3D</name>
															<pathurl>file://localhost/Volumes/REDLAB_3A/SESQUI/MASTER_FILES/DAY_00/RED/R001/A002/A002_0216FE.RDM/A002_C001_0216MW.RDC/A002_C001_0216MW_007.R3D</pathurl>
															<rate>
																<timebase>30</timebase>
																<ntsc>TRUE</ntsc>
															</rate>
															<duration>14400</duration>
															<timecode>
																<rate>
																	<timebase>30</timebase>
																	<ntsc>TRUE</ntsc>
																</rate>
																<string>02:21:21:13</string>
																<frame>254443</frame>
																<displayformat>NDF</displayformat>
															</timecode>
															<media hasDiscreteStreams="true">
																<video>
																	<samplecharacteristics>
																		<rate>
																			<timebase>30</timebase>
																			<ntsc>TRUE</ntsc>
																		</rate>
																		<width>6144</width>
																		<height>3160</height>
																		<anamorphic>FALSE</anamorphic>
																		<pixelaspectratio>square</pixelaspectratio>
																		<fielddominance>none</fielddominance>
																	</samplecharacteristics>
																</video>
																<audio>
																	<samplecharacteristics>
																		<depth>16</depth>
																		<samplerate>48000</samplerate>
																	</samplecharacteristics>
																	<channelcount>1</channelcount>
																	<layout>mono</layout>
																	<audiochannel>
																		<sourcechannel>1</sourcechannel>
																		<channellabel>discrete</channellabel>
																	</audiochannel>
																</audio>
																<audio>
																	<samplecharacteristics>
																		<depth>16</depth>
																		<samplerate>48000</samplerate>
																	</samplecharacteristics>
																	<channelcount>1</channelcount>
																	<layout>mono</layout>
																	<audiochannel>
																		<sourcechannel>2</sourcechannel>
																		<channellabel>discrete</channellabel>
																	</audiochannel>
																</audio>
															</media>
														</file>
														<link>
															<linkclipref>clipitem-19</linkclipref>
															<mediatype>video</mediatype>
															<trackindex>1</trackindex>
															<clipindex>1</clipindex>
														</link>
														<link>
															<linkclipref>clipitem-20</linkclipref>
															<mediatype>audio</mediatype>
															<trackindex>1</trackindex>
															<clipindex>1</clipindex>
														</link>
														<link>
															<linkclipref>clipitem-21</linkclipref>
															<mediatype>audio</mediatype>
															<trackindex>2</trackindex>
															<clipindex>1</clipindex>
														</link>
													</clipitem>
												</track>
											</video>
											<audio>
												<track>
													<clipitem id="clipitem-20" frameBlend="FALSE">
														<masterclipid>masterclip-7</masterclipid>
														<name>A002_C001_0216MW_007.R3D</name>
														<rate>
															<timebase>30</timebase>
															<ntsc>TRUE</ntsc>
														</rate>
														<file id="file-7"/>
														<sourcetrack>
															<mediatype>audio</mediatype>
															<trackindex>1</trackindex>
														</sourcetrack>
														<link>
															<linkclipref>clipitem-19</linkclipref>
															<mediatype>video</mediatype>
															<trackindex>1</trackindex>
															<clipindex>1</clipindex>
														</link>
														<link>
															<linkclipref>clipitem-20</linkclipref>
															<mediatype>audio</mediatype>
															<trackindex>1</trackindex>
															<clipindex>1</clipindex>
														</link>
														<link>
															<linkclipref>clipitem-21</linkclipref>
															<mediatype>audio</mediatype>
															<trackindex>2</trackindex>
															<clipindex>1</clipindex>
														</link>
													</clipitem>
												</track>
												<track>
													<clipitem id="clipitem-21" frameBlend="FALSE">
														<masterclipid>masterclip-7</masterclipid>
														<name>A002_C001_0216MW_007.R3D</name>
														<rate>
															<timebase>30</timebase>
															<ntsc>TRUE</ntsc>
														</rate>
														<file id="file-7"/>
														<sourcetrack>
															<mediatype>audio</mediatype>
															<trackindex>2</trackindex>
														</sourcetrack>
														<link>
															<linkclipref>clipitem-19</linkclipref>
															<mediatype>video</mediatype>
															<trackindex>1</trackindex>
															<clipindex>1</clipindex>
														</link>
														<link>
															<linkclipref>clipitem-20</linkclipref>
															<mediatype>audio</mediatype>
															<trackindex>1</trackindex>
															<clipindex>1</clipindex>
														</link>
														<link>
															<linkclipref>clipitem-21</linkclipref>
															<mediatype>audio</mediatype>
															<trackindex>2</trackindex>
															<clipindex>1</clipindex>
														</link>
													</clipitem>
												</track>
											</audio>
										</media>
										<logginginfo>
											<description></description>
											<scene></scene>
											<shottake></shottake>
											<lognote>As Shot</lognote>
										</logginginfo>
										<labels>
											<label2>Iris</label2>
										</labels>
									</clip>
									<clip id="masterclip-8" explodedTracks="true" frameBlend="FALSE">
										<uuid>a77b8440-48ec-41a4-a03c-ca5896d348ef</uuid>
										<masterclipid>masterclip-8</masterclipid>
										<ismasterclip>TRUE</ismasterclip>
										<duration>14400</duration>
										<rate>
											<timebase>30</timebase>
											<ntsc>TRUE</ntsc>
										</rate>
										<name>A002_C001_0216MW_008.R3D</name>
										<media>
											<video>
												<track>
													<clipitem id="clipitem-22" frameBlend="FALSE">
														<masterclipid>masterclip-8</masterclipid>
														<name>A002_C001_0216MW_008.R3D</name>
														<rate>
															<timebase>30</timebase>
															<ntsc>TRUE</ntsc>
														</rate>
														<alphatype>none</alphatype>
														<pixelaspectratio>square</pixelaspectratio>
														<anamorphic>FALSE</anamorphic>
														<file id="file-8">
															<name>A002_C001_0216MW_008.R3D</name>
															<pathurl>file://localhost/Volumes/REDLAB_3A/SESQUI/MASTER_FILES/DAY_00/RED/R001/A002/A002_0216FE.RDM/A002_C001_0216MW.RDC/A002_C001_0216MW_008.R3D</pathurl>
															<rate>
																<timebase>30</timebase>
																<ntsc>TRUE</ntsc>
															</rate>
															<duration>14400</duration>
															<timecode>
																<rate>
																	<timebase>30</timebase>
																	<ntsc>TRUE</ntsc>
																</rate>
																<string>02:21:21:13</string>
																<frame>254443</frame>
																<displayformat>NDF</displayformat>
															</timecode>
															<media hasDiscreteStreams="true">
																<video>
																	<samplecharacteristics>
																		<rate>
																			<timebase>30</timebase>
																			<ntsc>TRUE</ntsc>
																		</rate>
																		<width>6144</width>
																		<height>3160</height>
																		<anamorphic>FALSE</anamorphic>
																		<pixelaspectratio>square</pixelaspectratio>
																		<fielddominance>none</fielddominance>
																	</samplecharacteristics>
																</video>
																<audio>
																	<samplecharacteristics>
																		<depth>16</depth>
																		<samplerate>48000</samplerate>
																	</samplecharacteristics>
																	<channelcount>1</channelcount>
																	<layout>mono</layout>
																	<audiochannel>
																		<sourcechannel>1</sourcechannel>
																		<channellabel>discrete</channellabel>
																	</audiochannel>
																</audio>
																<audio>
																	<samplecharacteristics>
																		<depth>16</depth>
																		<samplerate>48000</samplerate>
																	</samplecharacteristics>
																	<channelcount>1</channelcount>
																	<layout>mono</layout>
																	<audiochannel>
																		<sourcechannel>2</sourcechannel>
																		<channellabel>discrete</channellabel>
																	</audiochannel>
																</audio>
															</media>
														</file>
														<link>
															<linkclipref>clipitem-22</linkclipref>
															<mediatype>video</mediatype>
															<trackindex>1</trackindex>
															<clipindex>1</clipindex>
														</link>
														<link>
															<linkclipref>clipitem-23</linkclipref>
															<mediatype>audio</mediatype>
															<trackindex>1</trackindex>
															<clipindex>1</clipindex>
														</link>
														<link>
															<linkclipref>clipitem-24</linkclipref>
															<mediatype>audio</mediatype>
															<trackindex>2</trackindex>
															<clipindex>1</clipindex>
														</link>
													</clipitem>
												</track>
											</video>
											<audio>
												<track>
													<clipitem id="clipitem-23" frameBlend="FALSE">
														<masterclipid>masterclip-8</masterclipid>
														<name>A002_C001_0216MW_008.R3D</name>
														<rate>
															<timebase>30</timebase>
															<ntsc>TRUE</ntsc>
														</rate>
														<file id="file-8"/>
														<sourcetrack>
															<mediatype>audio</mediatype>
															<trackindex>1</trackindex>
														</sourcetrack>
														<link>
															<linkclipref>clipitem-22</linkclipref>
															<mediatype>video</mediatype>
															<trackindex>1</trackindex>
															<clipindex>1</clipindex>
														</link>
														<link>
															<linkclipref>clipitem-23</linkclipref>
															<mediatype>audio</mediatype>
															<trackindex>1</trackindex>
															<clipindex>1</clipindex>
														</link>
														<link>
															<linkclipref>clipitem-24</linkclipref>
															<mediatype>audio</mediatype>
															<trackindex>2</trackindex>
															<clipindex>1</clipindex>
														</link>
													</clipitem>
												</track>
												<track>
													<clipitem id="clipitem-24" frameBlend="FALSE">
														<masterclipid>masterclip-8</masterclipid>
														<name>A002_C001_0216MW_008.R3D</name>
														<rate>
															<timebase>30</timebase>
															<ntsc>TRUE</ntsc>
														</rate>
														<file id="file-8"/>
														<sourcetrack>
															<mediatype>audio</mediatype>
															<trackindex>2</trackindex>
														</sourcetrack>
														<link>
															<linkclipref>clipitem-22</linkclipref>
															<mediatype>video</mediatype>
															<trackindex>1</trackindex>
															<clipindex>1</clipindex>
														</link>
														<link>
															<linkclipref>clipitem-23</linkclipref>
															<mediatype>audio</mediatype>
															<trackindex>1</trackindex>
															<clipindex>1</clipindex>
														</link>
														<link>
															<linkclipref>clipitem-24</linkclipref>
															<mediatype>audio</mediatype>
															<trackindex>2</trackindex>
															<clipindex>1</clipindex>
														</link>
													</clipitem>
												</track>
											</audio>
										</media>
										<logginginfo>
											<description></description>
											<scene></scene>
											<shottake></shottake>
											<lognote>As Shot</lognote>
										</logginginfo>
										<labels>
										</labels>
									</clip>
									<clip id="masterclip-9" explodedTracks="true" frameBlend="FALSE">
										<uuid>9e1da1d7-47de-4a68-9717-de96023d98ee</uuid>
										<masterclipid>masterclip-9</masterclipid>
										<ismasterclip>TRUE</ismasterclip>
										<duration>14400</duration>
										<rate>
											<timebase>30</timebase>
											<ntsc>TRUE</ntsc>
										</rate>
										<name>A002_C001_0216MW_009.R3D</name>
										<media>
											<video>
												<track>
													<clipitem id="clipitem-25" frameBlend="FALSE">
														<masterclipid>masterclip-9</masterclipid>
														<name>A002_C001_0216MW_009.R3D</name>
														<rate>
															<timebase>30</timebase>
															<ntsc>TRUE</ntsc>
														</rate>
														<alphatype>none</alphatype>
														<pixelaspectratio>square</pixelaspectratio>
														<anamorphic>FALSE</anamorphic>
														<file id="file-9">
															<name>A002_C001_0216MW_009.R3D</name>
															<pathurl>file://localhost/Volumes/REDLAB_3A/SESQUI/MASTER_FILES/DAY_00/RED/R001/A002/A002_0216FE.RDM/A002_C001_0216MW.RDC/A002_C001_0216MW_009.R3D</pathurl>
															<rate>
																<timebase>30</timebase>
																<ntsc>TRUE</ntsc>
															</rate>
															<duration>14400</duration>
															<timecode>
																<rate>
																	<timebase>30</timebase>
																	<ntsc>TRUE</ntsc>
																</rate>
																<string>02:21:21:13</string>
																<frame>254443</frame>
																<displayformat>NDF</displayformat>
															</timecode>
															<media hasDiscreteStreams="true">
																<video>
																	<samplecharacteristics>
																		<rate>
																			<timebase>30</timebase>
																			<ntsc>TRUE</ntsc>
																		</rate>
																		<width>6144</width>
																		<height>3160</height>
																		<anamorphic>FALSE</anamorphic>
																		<pixelaspectratio>square</pixelaspectratio>
																		<fielddominance>none</fielddominance>
																	</samplecharacteristics>
																</video>
																<audio>
																	<samplecharacteristics>
																		<depth>16</depth>
																		<samplerate>48000</samplerate>
																	</samplecharacteristics>
																	<channelcount>1</channelcount>
																	<layout>mono</layout>
																	<audiochannel>
																		<sourcechannel>1</sourcechannel>
																		<channellabel>discrete</channellabel>
																	</audiochannel>
																</audio>
																<audio>
																	<samplecharacteristics>
																		<depth>16</depth>
																		<samplerate>48000</samplerate>
																	</samplecharacteristics>
																	<channelcount>1</channelcount>
																	<layout>mono</layout>
																	<audiochannel>
																		<sourcechannel>2</sourcechannel>
																		<channellabel>discrete</channellabel>
																	</audiochannel>
																</audio>
															</media>
														</file>
														<link>
															<linkclipref>clipitem-25</linkclipref>
															<mediatype>video</mediatype>
															<trackindex>1</trackindex>
															<clipindex>1</clipindex>
														</link>
														<link>
															<linkclipref>clipitem-26</linkclipref>
															<mediatype>audio</mediatype>
															<trackindex>1</trackindex>
															<clipindex>1</clipindex>
														</link>
														<link>
															<linkclipref>clipitem-27</linkclipref>
															<mediatype>audio</mediatype>
															<trackindex>2</trackindex>
															<clipindex>1</clipindex>
														</link>
													</clipitem>
												</track>
											</video>
											<audio>
												<track>
													<clipitem id="clipitem-26" frameBlend="FALSE">
														<masterclipid>masterclip-9</masterclipid>
														<name>A002_C001_0216MW_009.R3D</name>
														<rate>
															<timebase>30</timebase>
															<ntsc>TRUE</ntsc>
														</rate>
														<file id="file-9"/>
														<sourcetrack>
															<mediatype>audio</mediatype>
															<trackindex>1</trackindex>
														</sourcetrack>
														<link>
															<linkclipref>clipitem-25</linkclipref>
															<mediatype>video</mediatype>
															<trackindex>1</trackindex>
															<clipindex>1</clipindex>
														</link>
														<link>
															<linkclipref>clipitem-26</linkclipref>
															<mediatype>audio</mediatype>
															<trackindex>1</trackindex>
															<clipindex>1</clipindex>
														</link>
														<link>
															<linkclipref>clipitem-27</linkclipref>
															<mediatype>audio</mediatype>
															<trackindex>2</trackindex>
															<clipindex>1</clipindex>
														</link>
													</clipitem>
												</track>
												<track>
													<clipitem id="clipitem-27" frameBlend="FALSE">
														<masterclipid>masterclip-9</masterclipid>
														<name>A002_C001_0216MW_009.R3D</name>
														<rate>
															<timebase>30</timebase>
															<ntsc>TRUE</ntsc>
														</rate>
														<file id="file-9"/>
														<sourcetrack>
															<mediatype>audio</mediatype>
															<trackindex>2</trackindex>
														</sourcetrack>
														<link>
															<linkclipref>clipitem-25</linkclipref>
															<mediatype>video</mediatype>
															<trackindex>1</trackindex>
															<clipindex>1</clipindex>
														</link>
														<link>
															<linkclipref>clipitem-26</linkclipref>
															<mediatype>audio</mediatype>
															<trackindex>1</trackindex>
															<clipindex>1</clipindex>
														</link>
														<link>
															<linkclipref>clipitem-27</linkclipref>
															<mediatype>audio</mediatype>
															<trackindex>2</trackindex>
															<clipindex>1</clipindex>
														</link>
													</clipitem>
												</track>
											</audio>
										</media>
										<logginginfo>
											<description></description>
											<scene></scene>
											<shottake></shottake>
											<lognote>As Shot</lognote>
										</logginginfo>
										<labels>
										</labels>
									</clip>
									<clip id="masterclip-10" explodedTracks="true" frameBlend="FALSE">
										<uuid>c5e2b4d0-8693-418f-919d-29b51b14a418</uuid>
										<masterclipid>masterclip-10</masterclipid>
										<ismasterclip>TRUE</ismasterclip>
										<duration>14400</duration>
										<rate>
											<timebase>30</timebase>
											<ntsc>TRUE</ntsc>
										</rate>
										<name>A002_C001_0216MW_010.R3D</name>
										<media>
											<video>
												<track>
													<clipitem id="clipitem-28" frameBlend="FALSE">
														<masterclipid>masterclip-10</masterclipid>
														<name>A002_C001_0216MW_010.R3D</name>
														<rate>
															<timebase>30</timebase>
															<ntsc>TRUE</ntsc>
														</rate>
														<alphatype>none</alphatype>
														<pixelaspectratio>square</pixelaspectratio>
														<anamorphic>FALSE</anamorphic>
														<file id="file-10">
															<name>A002_C001_0216MW_010.R3D</name>
															<pathurl>file://localhost/Volumes/REDLAB_3A/SESQUI/MASTER_FILES/DAY_00/RED/R001/A002/A002_0216FE.RDM/A002_C001_0216MW.RDC/A002_C001_0216MW_010.R3D</pathurl>
															<rate>
																<timebase>30</timebase>
																<ntsc>TRUE</ntsc>
															</rate>
															<duration>14400</duration>
															<timecode>
																<rate>
																	<timebase>30</timebase>
																	<ntsc>TRUE</ntsc>
																</rate>
																<string>02:21:21:13</string>
																<frame>254443</frame>
																<displayformat>NDF</displayformat>
															</timecode>
															<media hasDiscreteStreams="true">
																<video>
																	<samplecharacteristics>
																		<rate>
																			<timebase>30</timebase>
																			<ntsc>TRUE</ntsc>
																		</rate>
																		<width>6144</width>
																		<height>3160</height>
																		<anamorphic>FALSE</anamorphic>
																		<pixelaspectratio>square</pixelaspectratio>
																		<fielddominance>none</fielddominance>
																	</samplecharacteristics>
																</video>
																<audio>
																	<samplecharacteristics>
																		<depth>16</depth>
																		<samplerate>48000</samplerate>
																	</samplecharacteristics>
																	<channelcount>1</channelcount>
																	<layout>mono</layout>
																	<audiochannel>
																		<sourcechannel>1</sourcechannel>
																		<channellabel>discrete</channellabel>
																	</audiochannel>
																</audio>
																<audio>
																	<samplecharacteristics>
																		<depth>16</depth>
																		<samplerate>48000</samplerate>
																	</samplecharacteristics>
																	<channelcount>1</channelcount>
																	<layout>mono</layout>
																	<audiochannel>
																		<sourcechannel>2</sourcechannel>
																		<channellabel>discrete</channellabel>
																	</audiochannel>
																</audio>
															</media>
														</file>
														<link>
															<linkclipref>clipitem-28</linkclipref>
															<mediatype>video</mediatype>
															<trackindex>1</trackindex>
															<clipindex>1</clipindex>
														</link>
														<link>
															<linkclipref>clipitem-29</linkclipref>
															<mediatype>audio</mediatype>
															<trackindex>1</trackindex>
															<clipindex>1</clipindex>
														</link>
														<link>
															<linkclipref>clipitem-30</linkclipref>
															<mediatype>audio</mediatype>
															<trackindex>2</trackindex>
															<clipindex>1</clipindex>
														</link>
													</clipitem>
												</track>
											</video>
											<audio>
												<track>
													<clipitem id="clipitem-29" frameBlend="FALSE">
														<masterclipid>masterclip-10</masterclipid>
														<name>A002_C001_0216MW_010.R3D</name>
														<rate>
															<timebase>30</timebase>
															<ntsc>TRUE</ntsc>
														</rate>
														<file id="file-10"/>
														<sourcetrack>
															<mediatype>audio</mediatype>
															<trackindex>1</trackindex>
														</sourcetrack>
														<link>
															<linkclipref>clipitem-28</linkclipref>
															<mediatype>video</mediatype>
															<trackindex>1</trackindex>
															<clipindex>1</clipindex>
														</link>
														<link>
															<linkclipref>clipitem-29</linkclipref>
															<mediatype>audio</mediatype>
															<trackindex>1</trackindex>
															<clipindex>1</clipindex>
														</link>
														<link>
															<linkclipref>clipitem-30</linkclipref>
															<mediatype>audio</mediatype>
															<trackindex>2</trackindex>
															<clipindex>1</clipindex>
														</link>
													</clipitem>
												</track>
												<track>
													<clipitem id="clipitem-30" frameBlend="FALSE">
														<masterclipid>masterclip-10</masterclipid>
														<name>A002_C001_0216MW_010.R3D</name>
														<rate>
															<timebase>30</timebase>
															<ntsc>TRUE</ntsc>
														</rate>
														<file id="file-10"/>
														<sourcetrack>
															<mediatype>audio</mediatype>
															<trackindex>2</trackindex>
														</sourcetrack>
														<link>
															<linkclipref>clipitem-28</linkclipref>
															<mediatype>video</mediatype>
															<trackindex>1</trackindex>
															<clipindex>1</clipindex>
														</link>
														<link>
															<linkclipref>clipitem-29</linkclipref>
															<mediatype>audio</mediatype>
															<trackindex>1</trackindex>
															<clipindex>1</clipindex>
														</link>
														<link>
															<linkclipref>clipitem-30</linkclipref>
															<mediatype>audio</mediatype>
															<trackindex>2</trackindex>
															<clipindex>1</clipindex>
														</link>
													</clipitem>
												</track>
											</audio>
										</media>
										<logginginfo>
											<description></description>
											<scene></scene>
											<shottake></shottake>
											<lognote>As Shot</lognote>
										</logginginfo>
										<labels>
										</labels>
									</clip>
								</children>
							</bin>
							<bin>
								<name>B001_C002_0216U2.RDC</name>
								<labels>
									<label2>Mango</label2>
								</labels>
								<children>
									<clip id="masterclip-11" explodedTracks="true" frameBlend="FALSE">
										<uuid>601c26b5-5607-4902-a0db-be3e82e25b86</uuid>
										<masterclipid>masterclip-11</masterclipid>
										<ismasterclip>TRUE</ismasterclip>
										<duration>14615</duration>
										<rate>
											<timebase>30</timebase>
											<ntsc>TRUE</ntsc>
										</rate>
										<name>B001_C002_0216U2_001.R3D</name>
										<media>
											<video>
												<track>
													<clipitem id="clipitem-31" frameBlend="FALSE">
														<masterclipid>masterclip-11</masterclipid>
														<name>B001_C002_0216U2_001.R3D</name>
														<rate>
															<timebase>30</timebase>
															<ntsc>TRUE</ntsc>
														</rate>
														<alphatype>none</alphatype>
														<pixelaspectratio>square</pixelaspectratio>
														<anamorphic>FALSE</anamorphic>
														<file id="file-11">
															<name>B001_C002_0216U2_001.R3D</name>
															<pathurl>file://localhost/Volumes/REDLAB_3A/SESQUI/MASTER_FILES/DAY_00/RED/R001/B001/B001_021684.RDM/B001_C002_0216U2.RDC/B001_C002_0216U2_001.R3D</pathurl>
															<rate>
																<timebase>30</timebase>
																<ntsc>TRUE</ntsc>
															</rate>
															<duration>14615</duration>
															<timecode>
																<rate>
																	<timebase>30</timebase>
																	<ntsc>TRUE</ntsc>
																</rate>
																<string>02:21:16:24</string>
																<frame>254304</frame>
																<displayformat>NDF</displayformat>
															</timecode>
															<media hasDiscreteStreams="true">
																<video>
																	<samplecharacteristics>
																		<rate>
																			<timebase>30</timebase>
																			<ntsc>TRUE</ntsc>
																		</rate>
																		<width>6144</width>
																		<height>3160</height>
																		<anamorphic>FALSE</anamorphic>
																		<pixelaspectratio>square</pixelaspectratio>
																		<fielddominance>none</fielddominance>
																	</samplecharacteristics>
																</video>
																<audio>
																	<samplecharacteristics>
																		<depth>16</depth>
																		<samplerate>48000</samplerate>
																	</samplecharacteristics>
																	<channelcount>1</channelcount>
																	<layout>mono</layout>
																	<audiochannel>
																		<sourcechannel>1</sourcechannel>
																		<channellabel>discrete</channellabel>
																	</audiochannel>
																</audio>
																<audio>
																	<samplecharacteristics>
																		<depth>16</depth>
																		<samplerate>48000</samplerate>
																	</samplecharacteristics>
																	<channelcount>1</channelcount>
																	<layout>mono</layout>
																	<audiochannel>
																		<sourcechannel>2</sourcechannel>
																		<channellabel>discrete</channellabel>
																	</audiochannel>
																</audio>
															</media>
														</file>
														<link>
															<linkclipref>clipitem-31</linkclipref>
															<mediatype>video</mediatype>
															<trackindex>1</trackindex>
															<clipindex>1</clipindex>
														</link>
														<link>
															<linkclipref>clipitem-32</linkclipref>
															<mediatype>audio</mediatype>
															<trackindex>1</trackindex>
															<clipindex>1</clipindex>
														</link>
														<link>
															<linkclipref>clipitem-33</linkclipref>
															<mediatype>audio</mediatype>
															<trackindex>2</trackindex>
															<clipindex>1</clipindex>
														</link>
													</clipitem>
												</track>
											</video>
											<audio>
												<track>
													<clipitem id="clipitem-32" frameBlend="FALSE">
														<masterclipid>masterclip-11</masterclipid>
														<name>B001_C002_0216U2_001.R3D</name>
														<rate>
															<timebase>30</timebase>
															<ntsc>TRUE</ntsc>
														</rate>
														<file id="file-11"/>
														<sourcetrack>
															<mediatype>audio</mediatype>
															<trackindex>1</trackindex>
														</sourcetrack>
														<link>
															<linkclipref>clipitem-31</linkclipref>
															<mediatype>video</mediatype>
															<trackindex>1</trackindex>
															<clipindex>1</clipindex>
														</link>
														<link>
															<linkclipref>clipitem-32</linkclipref>
															<mediatype>audio</mediatype>
															<trackindex>1</trackindex>
															<clipindex>1</clipindex>
														</link>
														<link>
															<linkclipref>clipitem-33</linkclipref>
															<mediatype>audio</mediatype>
															<trackindex>2</trackindex>
															<clipindex>1</clipindex>
														</link>
													</clipitem>
												</track>
												<track>
													<clipitem id="clipitem-33" frameBlend="FALSE">
														<masterclipid>masterclip-11</masterclipid>
														<name>B001_C002_0216U2_001.R3D</name>
														<rate>
															<timebase>30</timebase>
															<ntsc>TRUE</ntsc>
														</rate>
														<file id="file-11"/>
														<sourcetrack>
															<mediatype>audio</mediatype>
															<trackindex>2</trackindex>
														</sourcetrack>
														<link>
															<linkclipref>clipitem-31</linkclipref>
															<mediatype>video</mediatype>
															<trackindex>1</trackindex>
															<clipindex>1</clipindex>
														</link>
														<link>
															<linkclipref>clipitem-32</linkclipref>
															<mediatype>audio</mediatype>
															<trackindex>1</trackindex>
															<clipindex>1</clipindex>
														</link>
														<link>
															<linkclipref>clipitem-33</linkclipref>
															<mediatype>audio</mediatype>
															<trackindex>2</trackindex>
															<clipindex>1</clipindex>
														</link>
													</clipitem>
												</track>
											</audio>
										</media>
										<logginginfo>
											<description></description>
											<scene></scene>
											<shottake></shottake>
											<lognote>As Shot</lognote>
										</logginginfo>
										<labels>
											<label2>Iris</label2>
										</labels>
									</clip>
									<clip id="masterclip-12" explodedTracks="true" frameBlend="FALSE">
										<uuid>1bee79b2-16af-472f-b591-9183678da771</uuid>
										<masterclipid>masterclip-12</masterclipid>
										<ismasterclip>TRUE</ismasterclip>
										<duration>14615</duration>
										<rate>
											<timebase>30</timebase>
											<ntsc>TRUE</ntsc>
										</rate>
										<name>B001_C002_0216U2_002.R3D</name>
										<media>
											<video>
												<track>
													<clipitem id="clipitem-34" frameBlend="FALSE">
														<masterclipid>masterclip-12</masterclipid>
														<name>B001_C002_0216U2_002.R3D</name>
														<rate>
															<timebase>30</timebase>
															<ntsc>TRUE</ntsc>
														</rate>
														<alphatype>none</alphatype>
														<pixelaspectratio>square</pixelaspectratio>
														<anamorphic>FALSE</anamorphic>
														<file id="file-12">
															<name>B001_C002_0216U2_002.R3D</name>
															<pathurl>file://localhost/Volumes/REDLAB_3A/SESQUI/MASTER_FILES/DAY_00/RED/R001/B001/B001_021684.RDM/B001_C002_0216U2.RDC/B001_C002_0216U2_002.R3D</pathurl>
															<rate>
																<timebase>30</timebase>
																<ntsc>TRUE</ntsc>
															</rate>
															<duration>14615</duration>
															<timecode>
																<rate>
																	<timebase>30</timebase>
																	<ntsc>TRUE</ntsc>
																</rate>
																<string>02:21:16:24</string>
																<frame>254304</frame>
																<displayformat>NDF</displayformat>
															</timecode>
															<media hasDiscreteStreams="true">
																<video>
																	<samplecharacteristics>
																		<rate>
																			<timebase>30</timebase>
																			<ntsc>TRUE</ntsc>
																		</rate>
																		<width>6144</width>
																		<height>3160</height>
																		<anamorphic>FALSE</anamorphic>
																		<pixelaspectratio>square</pixelaspectratio>
																		<fielddominance>none</fielddominance>
																	</samplecharacteristics>
																</video>
																<audio>
																	<samplecharacteristics>
																		<depth>16</depth>
																		<samplerate>48000</samplerate>
																	</samplecharacteristics>
																	<channelcount>1</channelcount>
																	<layout>mono</layout>
																	<audiochannel>
																		<sourcechannel>1</sourcechannel>
																		<channellabel>discrete</channellabel>
																	</audiochannel>
																</audio>
																<audio>
																	<samplecharacteristics>
																		<depth>16</depth>
																		<samplerate>48000</samplerate>
																	</samplecharacteristics>
																	<channelcount>1</channelcount>
																	<layout>mono</layout>
																	<audiochannel>
																		<sourcechannel>2</sourcechannel>
																		<channellabel>discrete</channellabel>
																	</audiochannel>
																</audio>
															</media>
														</file>
														<link>
															<linkclipref>clipitem-34</linkclipref>
															<mediatype>video</mediatype>
															<trackindex>1</trackindex>
															<clipindex>1</clipindex>
														</link>
														<link>
															<linkclipref>clipitem-35</linkclipref>
															<mediatype>audio</mediatype>
															<trackindex>1</trackindex>
															<clipindex>1</clipindex>
														</link>
														<link>
															<linkclipref>clipitem-36</linkclipref>
															<mediatype>audio</mediatype>
															<trackindex>2</trackindex>
															<clipindex>1</clipindex>
														</link>
													</clipitem>
												</track>
											</video>
											<audio>
												<track>
													<clipitem id="clipitem-35" frameBlend="FALSE">
														<masterclipid>masterclip-12</masterclipid>
														<name>B001_C002_0216U2_002.R3D</name>
														<rate>
															<timebase>30</timebase>
															<ntsc>TRUE</ntsc>
														</rate>
														<file id="file-12"/>
														<sourcetrack>
															<mediatype>audio</mediatype>
															<trackindex>1</trackindex>
														</sourcetrack>
														<link>
															<linkclipref>clipitem-34</linkclipref>
															<mediatype>video</mediatype>
															<trackindex>1</trackindex>
															<clipindex>1</clipindex>
														</link>
														<link>
															<linkclipref>clipitem-35</linkclipref>
															<mediatype>audio</mediatype>
															<trackindex>1</trackindex>
															<clipindex>1</clipindex>
														</link>
														<link>
															<linkclipref>clipitem-36</linkclipref>
															<mediatype>audio</mediatype>
															<trackindex>2</trackindex>
															<clipindex>1</clipindex>
														</link>
													</clipitem>
												</track>
												<track>
													<clipitem id="clipitem-36" frameBlend="FALSE">
														<masterclipid>masterclip-12</masterclipid>
														<name>B001_C002_0216U2_002.R3D</name>
														<rate>
															<timebase>30</timebase>
															<ntsc>TRUE</ntsc>
														</rate>
														<file id="file-12"/>
														<sourcetrack>
															<mediatype>audio</mediatype>
															<trackindex>2</trackindex>
														</sourcetrack>
														<link>
															<linkclipref>clipitem-34</linkclipref>
															<mediatype>video</mediatype>
															<trackindex>1</trackindex>
															<clipindex>1</clipindex>
														</link>
														<link>
															<linkclipref>clipitem-35</linkclipref>
															<mediatype>audio</mediatype>
															<trackindex>1</trackindex>
															<clipindex>1</clipindex>
														</link>
														<link>
															<linkclipref>clipitem-36</linkclipref>
															<mediatype>audio</mediatype>
															<trackindex>2</trackindex>
															<clipindex>1</clipindex>
														</link>
													</clipitem>
												</track>
											</audio>
										</media>
										<logginginfo>
											<description></description>
											<scene></scene>
											<shottake></shottake>
											<lognote>As Shot</lognote>
										</logginginfo>
										<labels>
											<label2>Iris</label2>
										</labels>
									</clip>
									<clip id="masterclip-13" explodedTracks="true" frameBlend="FALSE">
										<uuid>1f6a46fe-4c61-4d26-9d12-ed9527d51202</uuid>
										<masterclipid>masterclip-13</masterclipid>
										<ismasterclip>TRUE</ismasterclip>
										<duration>14615</duration>
										<rate>
											<timebase>30</timebase>
											<ntsc>TRUE</ntsc>
										</rate>
										<name>B001_C002_0216U2_003.R3D</name>
										<media>
											<video>
												<track>
													<clipitem id="clipitem-37" frameBlend="FALSE">
														<masterclipid>masterclip-13</masterclipid>
														<name>B001_C002_0216U2_003.R3D</name>
														<rate>
															<timebase>30</timebase>
															<ntsc>TRUE</ntsc>
														</rate>
														<alphatype>none</alphatype>
														<pixelaspectratio>square</pixelaspectratio>
														<anamorphic>FALSE</anamorphic>
														<file id="file-13">
															<name>B001_C002_0216U2_003.R3D</name>
															<pathurl>file://localhost/Volumes/REDLAB_3A/SESQUI/MASTER_FILES/DAY_00/RED/R001/B001/B001_021684.RDM/B001_C002_0216U2.RDC/B001_C002_0216U2_003.R3D</pathurl>
															<rate>
																<timebase>30</timebase>
																<ntsc>TRUE</ntsc>
															</rate>
															<duration>14615</duration>
															<timecode>
																<rate>
																	<timebase>30</timebase>
																	<ntsc>TRUE</ntsc>
																</rate>
																<string>02:21:16:24</string>
																<frame>254304</frame>
																<displayformat>NDF</displayformat>
															</timecode>
															<media hasDiscreteStreams="true">
																<video>
																	<samplecharacteristics>
																		<rate>
																			<timebase>30</timebase>
																			<ntsc>TRUE</ntsc>
																		</rate>
																		<width>6144</width>
																		<height>3160</height>
																		<anamorphic>FALSE</anamorphic>
																		<pixelaspectratio>square</pixelaspectratio>
																		<fielddominance>none</fielddominance>
																	</samplecharacteristics>
																</video>
																<audio>
																	<samplecharacteristics>
																		<depth>16</depth>
																		<samplerate>48000</samplerate>
																	</samplecharacteristics>
																	<channelcount>1</channelcount>
																	<layout>mono</layout>
																	<audiochannel>
																		<sourcechannel>1</sourcechannel>
																		<channellabel>discrete</channellabel>
																	</audiochannel>
																</audio>
																<audio>
																	<samplecharacteristics>
																		<depth>16</depth>
																		<samplerate>48000</samplerate>
																	</samplecharacteristics>
																	<channelcount>1</channelcount>
																	<layout>mono</layout>
																	<audiochannel>
																		<sourcechannel>2</sourcechannel>
																		<channellabel>discrete</channellabel>
																	</audiochannel>
																</audio>
															</media>
														</file>
														<link>
															<linkclipref>clipitem-37</linkclipref>
															<mediatype>video</mediatype>
															<trackindex>1</trackindex>
															<clipindex>1</clipindex>
														</link>
														<link>
															<linkclipref>clipitem-38</linkclipref>
															<mediatype>audio</mediatype>
															<trackindex>1</trackindex>
															<clipindex>1</clipindex>
														</link>
														<link>
															<linkclipref>clipitem-39</linkclipref>
															<mediatype>audio</mediatype>
															<trackindex>2</trackindex>
															<clipindex>1</clipindex>
														</link>
													</clipitem>
												</track>
											</video>
											<audio>
												<track>
													<clipitem id="clipitem-38" frameBlend="FALSE">
														<masterclipid>masterclip-13</masterclipid>
														<name>B001_C002_0216U2_003.R3D</name>
														<rate>
															<timebase>30</timebase>
															<ntsc>TRUE</ntsc>
														</rate>
														<file id="file-13"/>
														<sourcetrack>
															<mediatype>audio</mediatype>
															<trackindex>1</trackindex>
														</sourcetrack>
														<link>
															<linkclipref>clipitem-37</linkclipref>
															<mediatype>video</mediatype>
															<trackindex>1</trackindex>
															<clipindex>1</clipindex>
														</link>
														<link>
															<linkclipref>clipitem-38</linkclipref>
															<mediatype>audio</mediatype>
															<trackindex>1</trackindex>
															<clipindex>1</clipindex>
														</link>
														<link>
															<linkclipref>clipitem-39</linkclipref>
															<mediatype>audio</mediatype>
															<trackindex>2</trackindex>
															<clipindex>1</clipindex>
														</link>
													</clipitem>
												</track>
												<track>
													<clipitem id="clipitem-39" frameBlend="FALSE">
														<masterclipid>masterclip-13</masterclipid>
														<name>B001_C002_0216U2_003.R3D</name>
														<rate>
															<timebase>30</timebase>
															<ntsc>TRUE</ntsc>
														</rate>
														<file id="file-13"/>
														<sourcetrack>
															<mediatype>audio</mediatype>
															<trackindex>2</trackindex>
														</sourcetrack>
														<link>
															<linkclipref>clipitem-37</linkclipref>
															<mediatype>video</mediatype>
															<trackindex>1</trackindex>
															<clipindex>1</clipindex>
														</link>
														<link>
															<linkclipref>clipitem-38</linkclipref>
															<mediatype>audio</mediatype>
															<trackindex>1</trackindex>
															<clipindex>1</clipindex>
														</link>
														<link>
															<linkclipref>clipitem-39</linkclipref>
															<mediatype>audio</mediatype>
															<trackindex>2</trackindex>
															<clipindex>1</clipindex>
														</link>
													</clipitem>
												</track>
											</audio>
										</media>
										<logginginfo>
											<description></description>
											<scene></scene>
											<shottake></shottake>
											<lognote>As Shot</lognote>
										</logginginfo>
										<labels>
											<label2>Iris</label2>
										</labels>
									</clip>
									<clip id="masterclip-14" explodedTracks="true" frameBlend="FALSE">
										<uuid>4c03cd5b-1648-43b9-bfc0-f9606bab4db6</uuid>
										<masterclipid>masterclip-14</masterclipid>
										<ismasterclip>TRUE</ismasterclip>
										<duration>14615</duration>
										<rate>
											<timebase>30</timebase>
											<ntsc>TRUE</ntsc>
										</rate>
										<name>B001_C002_0216U2_004.R3D</name>
										<media>
											<video>
												<track>
													<clipitem id="clipitem-40" frameBlend="FALSE">
														<masterclipid>masterclip-14</masterclipid>
														<name>B001_C002_0216U2_004.R3D</name>
														<rate>
															<timebase>30</timebase>
															<ntsc>TRUE</ntsc>
														</rate>
														<alphatype>none</alphatype>
														<pixelaspectratio>square</pixelaspectratio>
														<anamorphic>FALSE</anamorphic>
														<file id="file-14">
															<name>B001_C002_0216U2_004.R3D</name>
															<pathurl>file://localhost/Volumes/REDLAB_3A/SESQUI/MASTER_FILES/DAY_00/RED/R001/B001/B001_021684.RDM/B001_C002_0216U2.RDC/B001_C002_0216U2_004.R3D</pathurl>
															<rate>
																<timebase>30</timebase>
																<ntsc>TRUE</ntsc>
															</rate>
															<duration>14615</duration>
															<timecode>
																<rate>
																	<timebase>30</timebase>
																	<ntsc>TRUE</ntsc>
																</rate>
																<string>02:21:16:24</string>
																<frame>254304</frame>
																<displayformat>NDF</displayformat>
															</timecode>
															<media hasDiscreteStreams="true">
																<video>
																	<samplecharacteristics>
																		<rate>
																			<timebase>30</timebase>
																			<ntsc>TRUE</ntsc>
																		</rate>
																		<width>6144</width>
																		<height>3160</height>
																		<anamorphic>FALSE</anamorphic>
																		<pixelaspectratio>square</pixelaspectratio>
																		<fielddominance>none</fielddominance>
																	</samplecharacteristics>
																</video>
																<audio>
																	<samplecharacteristics>
																		<depth>16</depth>
																		<samplerate>48000</samplerate>
																	</samplecharacteristics>
																	<channelcount>1</channelcount>
																	<layout>mono</layout>
																	<audiochannel>
																		<sourcechannel>1</sourcechannel>
																		<channellabel>discrete</channellabel>
																	</audiochannel>
																</audio>
																<audio>
																	<samplecharacteristics>
																		<depth>16</depth>
																		<samplerate>48000</samplerate>
																	</samplecharacteristics>
																	<channelcount>1</channelcount>
																	<layout>mono</layout>
																	<audiochannel>
																		<sourcechannel>2</sourcechannel>
																		<channellabel>discrete</channellabel>
																	</audiochannel>
																</audio>
															</media>
														</file>
														<link>
															<linkclipref>clipitem-40</linkclipref>
															<mediatype>video</mediatype>
															<trackindex>1</trackindex>
															<clipindex>1</clipindex>
														</link>
														<link>
															<linkclipref>clipitem-41</linkclipref>
															<mediatype>audio</mediatype>
															<trackindex>1</trackindex>
															<clipindex>1</clipindex>
														</link>
														<link>
															<linkclipref>clipitem-42</linkclipref>
															<mediatype>audio</mediatype>
															<trackindex>2</trackindex>
															<clipindex>1</clipindex>
														</link>
													</clipitem>
												</track>
											</video>
											<audio>
												<track>
													<clipitem id="clipitem-41" frameBlend="FALSE">
														<masterclipid>masterclip-14</masterclipid>
														<name>B001_C002_0216U2_004.R3D</name>
														<rate>
															<timebase>30</timebase>
															<ntsc>TRUE</ntsc>
														</rate>
														<file id="file-14"/>
														<sourcetrack>
															<mediatype>audio</mediatype>
															<trackindex>1</trackindex>
														</sourcetrack>
														<link>
															<linkclipref>clipitem-40</linkclipref>
															<mediatype>video</mediatype>
															<trackindex>1</trackindex>
															<clipindex>1</clipindex>
														</link>
														<link>
															<linkclipref>clipitem-41</linkclipref>
															<mediatype>audio</mediatype>
															<trackindex>1</trackindex>
															<clipindex>1</clipindex>
														</link>
														<link>
															<linkclipref>clipitem-42</linkclipref>
															<mediatype>audio</mediatype>
															<trackindex>2</trackindex>
															<clipindex>1</clipindex>
														</link>
													</clipitem>
												</track>
												<track>
													<clipitem id="clipitem-42" frameBlend="FALSE">
														<masterclipid>masterclip-14</masterclipid>
														<name>B001_C002_0216U2_004.R3D</name>
														<rate>
															<timebase>30</timebase>
															<ntsc>TRUE</ntsc>
														</rate>
														<file id="file-14"/>
														<sourcetrack>
															<mediatype>audio</mediatype>
															<trackindex>2</trackindex>
														</sourcetrack>
														<link>
															<linkclipref>clipitem-40</linkclipref>
															<mediatype>video</mediatype>
															<trackindex>1</trackindex>
															<clipindex>1</clipindex>
														</link>
														<link>
															<linkclipref>clipitem-41</linkclipref>
															<mediatype>audio</mediatype>
															<trackindex>1</trackindex>
															<clipindex>1</clipindex>
														</link>
														<link>
															<linkclipref>clipitem-42</linkclipref>
															<mediatype>audio</mediatype>
															<trackindex>2</trackindex>
															<clipindex>1</clipindex>
														</link>
													</clipitem>
												</track>
											</audio>
										</media>
										<logginginfo>
											<description></description>
											<scene></scene>
											<shottake></shottake>
											<lognote>As Shot</lognote>
										</logginginfo>
										<labels>
											<label2>Iris</label2>
										</labels>
									</clip>
									<clip id="masterclip-15" explodedTracks="true" frameBlend="FALSE">
										<uuid>a86da6f9-54d0-4222-b245-dd7f8fff4833</uuid>
										<masterclipid>masterclip-15</masterclipid>
										<ismasterclip>TRUE</ismasterclip>
										<duration>14615</duration>
										<rate>
											<timebase>30</timebase>
											<ntsc>TRUE</ntsc>
										</rate>
										<name>B001_C002_0216U2_005.R3D</name>
										<media>
											<video>
												<track>
													<clipitem id="clipitem-43" frameBlend="FALSE">
														<masterclipid>masterclip-15</masterclipid>
														<name>B001_C002_0216U2_005.R3D</name>
														<rate>
															<timebase>30</timebase>
															<ntsc>TRUE</ntsc>
														</rate>
														<alphatype>none</alphatype>
														<pixelaspectratio>square</pixelaspectratio>
														<anamorphic>FALSE</anamorphic>
														<file id="file-15">
															<name>B001_C002_0216U2_005.R3D</name>
															<pathurl>file://localhost/Volumes/REDLAB_3A/SESQUI/MASTER_FILES/DAY_00/RED/R001/B001/B001_021684.RDM/B001_C002_0216U2.RDC/B001_C002_0216U2_005.R3D</pathurl>
															<rate>
																<timebase>30</timebase>
																<ntsc>TRUE</ntsc>
															</rate>
															<duration>14615</duration>
															<timecode>
																<rate>
																	<timebase>30</timebase>
																	<ntsc>TRUE</ntsc>
																</rate>
																<string>02:21:16:24</string>
																<frame>254304</frame>
																<displayformat>NDF</displayformat>
															</timecode>
															<media hasDiscreteStreams="true">
																<video>
																	<samplecharacteristics>
																		<rate>
																			<timebase>30</timebase>
																			<ntsc>TRUE</ntsc>
																		</rate>
																		<width>6144</width>
																		<height>3160</height>
																		<anamorphic>FALSE</anamorphic>
																		<pixelaspectratio>square</pixelaspectratio>
																		<fielddominance>none</fielddominance>
																	</samplecharacteristics>
																</video>
																<audio>
																	<samplecharacteristics>
																		<depth>16</depth>
																		<samplerate>48000</samplerate>
																	</samplecharacteristics>
																	<channelcount>1</channelcount>
																	<layout>mono</layout>
																	<audiochannel>
																		<sourcechannel>1</sourcechannel>
																		<channellabel>discrete</channellabel>
																	</audiochannel>
																</audio>
																<audio>
																	<samplecharacteristics>
																		<depth>16</depth>
																		<samplerate>48000</samplerate>
																	</samplecharacteristics>
																	<channelcount>1</channelcount>
																	<layout>mono</layout>
																	<audiochannel>
																		<sourcechannel>2</sourcechannel>
																		<channellabel>discrete</channellabel>
																	</audiochannel>
																</audio>
															</media>
														</file>
														<link>
															<linkclipref>clipitem-43</linkclipref>
															<mediatype>video</mediatype>
															<trackindex>1</trackindex>
															<clipindex>1</clipindex>
														</link>
														<link>
															<linkclipref>clipitem-44</linkclipref>
															<mediatype>audio</mediatype>
															<trackindex>1</trackindex>
															<clipindex>1</clipindex>
														</link>
														<link>
															<linkclipref>clipitem-45</linkclipref>
															<mediatype>audio</mediatype>
															<trackindex>2</trackindex>
															<clipindex>1</clipindex>
														</link>
													</clipitem>
												</track>
											</video>
											<audio>
												<track>
													<clipitem id="clipitem-44" frameBlend="FALSE">
														<masterclipid>masterclip-15</masterclipid>
														<name>B001_C002_0216U2_005.R3D</name>
														<rate>
															<timebase>30</timebase>
															<ntsc>TRUE</ntsc>
														</rate>
														<file id="file-15"/>
														<sourcetrack>
															<mediatype>audio</mediatype>
															<trackindex>1</trackindex>
														</sourcetrack>
														<link>
															<linkclipref>clipitem-43</linkclipref>
															<mediatype>video</mediatype>
															<trackindex>1</trackindex>
															<clipindex>1</clipindex>
														</link>
														<link>
															<linkclipref>clipitem-44</linkclipref>
															<mediatype>audio</mediatype>
															<trackindex>1</trackindex>
															<clipindex>1</clipindex>
														</link>
														<link>
															<linkclipref>clipitem-45</linkclipref>
															<mediatype>audio</mediatype>
															<trackindex>2</trackindex>
															<clipindex>1</clipindex>
														</link>
													</clipitem>
												</track>
												<track>
													<clipitem id="clipitem-45" frameBlend="FALSE">
														<masterclipid>masterclip-15</masterclipid>
														<name>B001_C002_0216U2_005.R3D</name>
														<rate>
															<timebase>30</timebase>
															<ntsc>TRUE</ntsc>
														</rate>
														<file id="file-15"/>
														<sourcetrack>
															<mediatype>audio</mediatype>
															<trackindex>2</trackindex>
														</sourcetrack>
														<link>
															<linkclipref>clipitem-43</linkclipref>
															<mediatype>video</mediatype>
															<trackindex>1</trackindex>
															<clipindex>1</clipindex>
														</link>
														<link>
															<linkclipref>clipitem-44</linkclipref>
															<mediatype>audio</mediatype>
															<trackindex>1</trackindex>
															<clipindex>1</clipindex>
														</link>
														<link>
															<linkclipref>clipitem-45</linkclipref>
															<mediatype>audio</mediatype>
															<trackindex>2</trackindex>
															<clipindex>1</clipindex>
														</link>
													</clipitem>
												</track>
											</audio>
										</media>
										<logginginfo>
											<description></description>
											<scene></scene>
											<shottake></shottake>
											<lognote>As Shot</lognote>
										</logginginfo>
										<labels>
										</labels>
									</clip>
									<clip id="masterclip-16" explodedTracks="true" frameBlend="FALSE">
										<uuid>8d20c6a6-e8c5-409a-b275-29416f42d9b0</uuid>
										<masterclipid>masterclip-16</masterclipid>
										<ismasterclip>TRUE</ismasterclip>
										<duration>14615</duration>
										<rate>
											<timebase>30</timebase>
											<ntsc>TRUE</ntsc>
										</rate>
										<name>B001_C002_0216U2_006.R3D</name>
										<media>
											<video>
												<track>
													<clipitem id="clipitem-46" frameBlend="FALSE">
														<masterclipid>masterclip-16</masterclipid>
														<name>B001_C002_0216U2_006.R3D</name>
														<rate>
															<timebase>30</timebase>
															<ntsc>TRUE</ntsc>
														</rate>
														<alphatype>none</alphatype>
														<pixelaspectratio>square</pixelaspectratio>
														<anamorphic>FALSE</anamorphic>
														<file id="file-16">
															<name>B001_C002_0216U2_006.R3D</name>
															<pathurl>file://localhost/Volumes/REDLAB_3A/SESQUI/MASTER_FILES/DAY_00/RED/R001/B001/B001_021684.RDM/B001_C002_0216U2.RDC/B001_C002_0216U2_006.R3D</pathurl>
															<rate>
																<timebase>30</timebase>
																<ntsc>TRUE</ntsc>
															</rate>
															<duration>14615</duration>
															<timecode>
																<rate>
																	<timebase>30</timebase>
																	<ntsc>TRUE</ntsc>
																</rate>
																<string>02:21:16:24</string>
																<frame>254304</frame>
																<displayformat>NDF</displayformat>
															</timecode>
															<media hasDiscreteStreams="true">
																<video>
																	<samplecharacteristics>
																		<rate>
																			<timebase>30</timebase>
																			<ntsc>TRUE</ntsc>
																		</rate>
																		<width>6144</width>
																		<height>3160</height>
																		<anamorphic>FALSE</anamorphic>
																		<pixelaspectratio>square</pixelaspectratio>
																		<fielddominance>none</fielddominance>
																	</samplecharacteristics>
																</video>
																<audio>
																	<samplecharacteristics>
																		<depth>16</depth>
																		<samplerate>48000</samplerate>
																	</samplecharacteristics>
																	<channelcount>1</channelcount>
																	<layout>mono</layout>
																	<audiochannel>
																		<sourcechannel>1</sourcechannel>
																		<channellabel>discrete</channellabel>
																	</audiochannel>
																</audio>
																<audio>
																	<samplecharacteristics>
																		<depth>16</depth>
																		<samplerate>48000</samplerate>
																	</samplecharacteristics>
																	<channelcount>1</channelcount>
																	<layout>mono</layout>
																	<audiochannel>
																		<sourcechannel>2</sourcechannel>
																		<channellabel>discrete</channellabel>
																	</audiochannel>
																</audio>
															</media>
														</file>
														<link>
															<linkclipref>clipitem-46</linkclipref>
															<mediatype>video</mediatype>
															<trackindex>1</trackindex>
															<clipindex>1</clipindex>
														</link>
														<link>
															<linkclipref>clipitem-47</linkclipref>
															<mediatype>audio</mediatype>
															<trackindex>1</trackindex>
															<clipindex>1</clipindex>
														</link>
														<link>
															<linkclipref>clipitem-48</linkclipref>
															<mediatype>audio</mediatype>
															<trackindex>2</trackindex>
															<clipindex>1</clipindex>
														</link>
													</clipitem>
												</track>
											</video>
											<audio>
												<track>
													<clipitem id="clipitem-47" frameBlend="FALSE">
														<masterclipid>masterclip-16</masterclipid>
														<name>B001_C002_0216U2_006.R3D</name>
														<rate>
															<timebase>30</timebase>
															<ntsc>TRUE</ntsc>
														</rate>
														<file id="file-16"/>
														<sourcetrack>
															<mediatype>audio</mediatype>
															<trackindex>1</trackindex>
														</sourcetrack>
														<link>
															<linkclipref>clipitem-46</linkclipref>
															<mediatype>video</mediatype>
															<trackindex>1</trackindex>
															<clipindex>1</clipindex>
														</link>
														<link>
															<linkclipref>clipitem-47</linkclipref>
															<mediatype>audio</mediatype>
															<trackindex>1</trackindex>
															<clipindex>1</clipindex>
														</link>
														<link>
															<linkclipref>clipitem-48</linkclipref>
															<mediatype>audio</mediatype>
															<trackindex>2</trackindex>
															<clipindex>1</clipindex>
														</link>
													</clipitem>
												</track>
												<track>
													<clipitem id="clipitem-48" frameBlend="FALSE">
														<masterclipid>masterclip-16</masterclipid>
														<name>B001_C002_0216U2_006.R3D</name>
														<rate>
															<timebase>30</timebase>
															<ntsc>TRUE</ntsc>
														</rate>
														<file id="file-16"/>
														<sourcetrack>
															<mediatype>audio</mediatype>
															<trackindex>2</trackindex>
														</sourcetrack>
														<link>
															<linkclipref>clipitem-46</linkclipref>
															<mediatype>video</mediatype>
															<trackindex>1</trackindex>
															<clipindex>1</clipindex>
														</link>
														<link>
															<linkclipref>clipitem-47</linkclipref>
															<mediatype>audio</mediatype>
															<trackindex>1</trackindex>
															<clipindex>1</clipindex>
														</link>
														<link>
															<linkclipref>clipitem-48</linkclipref>
															<mediatype>audio</mediatype>
															<trackindex>2</trackindex>
															<clipindex>1</clipindex>
														</link>
													</clipitem>
												</track>
											</audio>
										</media>
										<logginginfo>
											<description></description>
											<scene></scene>
											<shottake></shottake>
											<lognote>As Shot</lognote>
										</logginginfo>
										<labels>
										</labels>
									</clip>
									<clip id="masterclip-17" explodedTracks="true" frameBlend="FALSE">
										<uuid>12591e5c-2e37-4aef-be80-d4578f60585b</uuid>
										<masterclipid>masterclip-17</masterclipid>
										<ismasterclip>TRUE</ismasterclip>
										<duration>14615</duration>
										<rate>
											<timebase>30</timebase>
											<ntsc>TRUE</ntsc>
										</rate>
										<name>B001_C002_0216U2_007.R3D</name>
										<media>
											<video>
												<track>
													<clipitem id="clipitem-49" frameBlend="FALSE">
														<masterclipid>masterclip-17</masterclipid>
														<name>B001_C002_0216U2_007.R3D</name>
														<rate>
															<timebase>30</timebase>
															<ntsc>TRUE</ntsc>
														</rate>
														<alphatype>none</alphatype>
														<pixelaspectratio>square</pixelaspectratio>
														<anamorphic>FALSE</anamorphic>
														<file id="file-17">
															<name>B001_C002_0216U2_007.R3D</name>
															<pathurl>file://localhost/Volumes/REDLAB_3A/SESQUI/MASTER_FILES/DAY_00/RED/R001/B001/B001_021684.RDM/B001_C002_0216U2.RDC/B001_C002_0216U2_007.R3D</pathurl>
															<rate>
																<timebase>30</timebase>
																<ntsc>TRUE</ntsc>
															</rate>
															<duration>14615</duration>
															<timecode>
																<rate>
																	<timebase>30</timebase>
																	<ntsc>TRUE</ntsc>
																</rate>
																<string>02:21:16:24</string>
																<frame>254304</frame>
																<displayformat>NDF</displayformat>
															</timecode>
															<media hasDiscreteStreams="true">
																<video>
																	<samplecharacteristics>
																		<rate>
																			<timebase>30</timebase>
																			<ntsc>TRUE</ntsc>
																		</rate>
																		<width>6144</width>
																		<height>3160</height>
																		<anamorphic>FALSE</anamorphic>
																		<pixelaspectratio>square</pixelaspectratio>
																		<fielddominance>none</fielddominance>
																	</samplecharacteristics>
																</video>
																<audio>
																	<samplecharacteristics>
																		<depth>16</depth>
																		<samplerate>48000</samplerate>
																	</samplecharacteristics>
																	<channelcount>1</channelcount>
																	<layout>mono</layout>
																	<audiochannel>
																		<sourcechannel>1</sourcechannel>
																		<channellabel>discrete</channellabel>
																	</audiochannel>
																</audio>
																<audio>
																	<samplecharacteristics>
																		<depth>16</depth>
																		<samplerate>48000</samplerate>
																	</samplecharacteristics>
																	<channelcount>1</channelcount>
																	<layout>mono</layout>
																	<audiochannel>
																		<sourcechannel>2</sourcechannel>
																		<channellabel>discrete</channellabel>
																	</audiochannel>
																</audio>
															</media>
														</file>
														<link>
															<linkclipref>clipitem-49</linkclipref>
															<mediatype>video</mediatype>
															<trackindex>1</trackindex>
															<clipindex>1</clipindex>
														</link>
														<link>
															<linkclipref>clipitem-50</linkclipref>
															<mediatype>audio</mediatype>
															<trackindex>1</trackindex>
															<clipindex>1</clipindex>
														</link>
														<link>
															<linkclipref>clipitem-51</linkclipref>
															<mediatype>audio</mediatype>
															<trackindex>2</trackindex>
															<clipindex>1</clipindex>
														</link>
													</clipitem>
												</track>
											</video>
											<audio>
												<track>
													<clipitem id="clipitem-50" frameBlend="FALSE">
														<masterclipid>masterclip-17</masterclipid>
														<name>B001_C002_0216U2_007.R3D</name>
														<rate>
															<timebase>30</timebase>
															<ntsc>TRUE</ntsc>
														</rate>
														<file id="file-17"/>
														<sourcetrack>
															<mediatype>audio</mediatype>
															<trackindex>1</trackindex>
														</sourcetrack>
														<link>
															<linkclipref>clipitem-49</linkclipref>
															<mediatype>video</mediatype>
															<trackindex>1</trackindex>
															<clipindex>1</clipindex>
														</link>
														<link>
															<linkclipref>clipitem-50</linkclipref>
															<mediatype>audio</mediatype>
															<trackindex>1</trackindex>
															<clipindex>1</clipindex>
														</link>
														<link>
															<linkclipref>clipitem-51</linkclipref>
															<mediatype>audio</mediatype>
															<trackindex>2</trackindex>
															<clipindex>1</clipindex>
														</link>
													</clipitem>
												</track>
												<track>
													<clipitem id="clipitem-51" frameBlend="FALSE">
														<masterclipid>masterclip-17</masterclipid>
														<name>B001_C002_0216U2_007.R3D</name>
														<rate>
															<timebase>30</timebase>
															<ntsc>TRUE</ntsc>
														</rate>
														<file id="file-17"/>
														<sourcetrack>
															<mediatype>audio</mediatype>
															<trackindex>2</trackindex>
														</sourcetrack>
														<link>
															<linkclipref>clipitem-49</linkclipref>
															<mediatype>video</mediatype>
															<trackindex>1</trackindex>
															<clipindex>1</clipindex>
														</link>
														<link>
															<linkclipref>clipitem-50</linkclipref>
															<mediatype>audio</mediatype>
															<trackindex>1</trackindex>
															<clipindex>1</clipindex>
														</link>
														<link>
															<linkclipref>clipitem-51</linkclipref>
															<mediatype>audio</mediatype>
															<trackindex>2</trackindex>
															<clipindex>1</clipindex>
														</link>
													</clipitem>
												</track>
											</audio>
										</media>
										<logginginfo>
											<description></description>
											<scene></scene>
											<shottake></shottake>
											<lognote>As Shot</lognote>
										</logginginfo>
										<labels>
										</labels>
									</clip>
									<clip id="masterclip-18" explodedTracks="true" frameBlend="FALSE">
										<uuid>99170f12-78d2-4a5d-8c67-d2748f571467</uuid>
										<masterclipid>masterclip-18</masterclipid>
										<ismasterclip>TRUE</ismasterclip>
										<duration>14615</duration>
										<rate>
											<timebase>30</timebase>
											<ntsc>TRUE</ntsc>
										</rate>
										<name>B001_C002_0216U2_008.R3D</name>
										<media>
											<video>
												<track>
													<clipitem id="clipitem-52" frameBlend="FALSE">
														<masterclipid>masterclip-18</masterclipid>
														<name>B001_C002_0216U2_008.R3D</name>
														<rate>
															<timebase>30</timebase>
															<ntsc>TRUE</ntsc>
														</rate>
														<alphatype>none</alphatype>
														<pixelaspectratio>square</pixelaspectratio>
														<anamorphic>FALSE</anamorphic>
														<file id="file-18">
															<name>B001_C002_0216U2_008.R3D</name>
															<pathurl>file://localhost/Volumes/REDLAB_3A/SESQUI/MASTER_FILES/DAY_00/RED/R001/B001/B001_021684.RDM/B001_C002_0216U2.RDC/B001_C002_0216U2_008.R3D</pathurl>
															<rate>
																<timebase>30</timebase>
																<ntsc>TRUE</ntsc>
															</rate>
															<duration>14615</duration>
															<timecode>
																<rate>
																	<timebase>30</timebase>
																	<ntsc>TRUE</ntsc>
																</rate>
																<string>02:21:16:24</string>
																<frame>254304</frame>
																<displayformat>NDF</displayformat>
															</timecode>
															<media hasDiscreteStreams="true">
																<video>
																	<samplecharacteristics>
																		<rate>
																			<timebase>30</timebase>
																			<ntsc>TRUE</ntsc>
																		</rate>
																		<width>6144</width>
																		<height>3160</height>
																		<anamorphic>FALSE</anamorphic>
																		<pixelaspectratio>square</pixelaspectratio>
																		<fielddominance>none</fielddominance>
																	</samplecharacteristics>
																</video>
																<audio>
																	<samplecharacteristics>
																		<depth>16</depth>
																		<samplerate>48000</samplerate>
																	</samplecharacteristics>
																	<channelcount>1</channelcount>
																	<layout>mono</layout>
																	<audiochannel>
																		<sourcechannel>1</sourcechannel>
																		<channellabel>discrete</channellabel>
																	</audiochannel>
																</audio>
																<audio>
																	<samplecharacteristics>
																		<depth>16</depth>
																		<samplerate>48000</samplerate>
																	</samplecharacteristics>
																	<channelcount>1</channelcount>
																	<layout>mono</layout>
																	<audiochannel>
																		<sourcechannel>2</sourcechannel>
																		<channellabel>discrete</channellabel>
																	</audiochannel>
																</audio>
															</media>
														</file>
														<link>
															<linkclipref>clipitem-52</linkclipref>
															<mediatype>video</mediatype>
															<trackindex>1</trackindex>
															<clipindex>1</clipindex>
														</link>
														<link>
															<linkclipref>clipitem-53</linkclipref>
															<mediatype>audio</mediatype>
															<trackindex>1</trackindex>
															<clipindex>1</clipindex>
														</link>
														<link>
															<linkclipref>clipitem-54</linkclipref>
															<mediatype>audio</mediatype>
															<trackindex>2</trackindex>
															<clipindex>1</clipindex>
														</link>
													</clipitem>
												</track>
											</video>
											<audio>
												<track>
													<clipitem id="clipitem-53" frameBlend="FALSE">
														<masterclipid>masterclip-18</masterclipid>
														<name>B001_C002_0216U2_008.R3D</name>
														<rate>
															<timebase>30</timebase>
															<ntsc>TRUE</ntsc>
														</rate>
														<file id="file-18"/>
														<sourcetrack>
															<mediatype>audio</mediatype>
															<trackindex>1</trackindex>
														</sourcetrack>
														<link>
															<linkclipref>clipitem-52</linkclipref>
															<mediatype>video</mediatype>
															<trackindex>1</trackindex>
															<clipindex>1</clipindex>
														</link>
														<link>
															<linkclipref>clipitem-53</linkclipref>
															<mediatype>audio</mediatype>
															<trackindex>1</trackindex>
															<clipindex>1</clipindex>
														</link>
														<link>
															<linkclipref>clipitem-54</linkclipref>
															<mediatype>audio</mediatype>
															<trackindex>2</trackindex>
															<clipindex>1</clipindex>
														</link>
													</clipitem>
												</track>
												<track>
													<clipitem id="clipitem-54" frameBlend="FALSE">
														<masterclipid>masterclip-18</masterclipid>
														<name>B001_C002_0216U2_008.R3D</name>
														<rate>
															<timebase>30</timebase>
															<ntsc>TRUE</ntsc>
														</rate>
														<file id="file-18"/>
														<sourcetrack>
															<mediatype>audio</mediatype>
															<trackindex>2</trackindex>
														</sourcetrack>
														<link>
															<linkclipref>clipitem-52</linkclipref>
															<mediatype>video</mediatype>
															<trackindex>1</trackindex>
															<clipindex>1</clipindex>
														</link>
														<link>
															<linkclipref>clipitem-53</linkclipref>
															<mediatype>audio</mediatype>
															<trackindex>1</trackindex>
															<clipindex>1</clipindex>
														</link>
														<link>
															<linkclipref>clipitem-54</linkclipref>
															<mediatype>audio</mediatype>
															<trackindex>2</trackindex>
															<clipindex>1</clipindex>
														</link>
													</clipitem>
												</track>
											</audio>
										</media>
										<logginginfo>
											<description></description>
											<scene></scene>
											<shottake></shottake>
											<lognote>As Shot</lognote>
										</logginginfo>
										<labels>
										</labels>
									</clip>
									<clip id="masterclip-19" explodedTracks="true" frameBlend="FALSE">
										<uuid>8f366cea-8b5b-483f-811e-f457b255f5a5</uuid>
										<masterclipid>masterclip-19</masterclipid>
										<ismasterclip>TRUE</ismasterclip>
										<duration>14615</duration>
										<rate>
											<timebase>30</timebase>
											<ntsc>TRUE</ntsc>
										</rate>
										<name>B001_C002_0216U2_009.R3D</name>
										<media>
											<video>
												<track>
													<clipitem id="clipitem-55" frameBlend="FALSE">
														<masterclipid>masterclip-19</masterclipid>
														<name>B001_C002_0216U2_009.R3D</name>
														<rate>
															<timebase>30</timebase>
															<ntsc>TRUE</ntsc>
														</rate>
														<alphatype>none</alphatype>
														<pixelaspectratio>square</pixelaspectratio>
														<anamorphic>FALSE</anamorphic>
														<file id="file-19">
															<name>B001_C002_0216U2_009.R3D</name>
															<pathurl>file://localhost/Volumes/REDLAB_3A/SESQUI/MASTER_FILES/DAY_00/RED/R001/B001/B001_021684.RDM/B001_C002_0216U2.RDC/B001_C002_0216U2_009.R3D</pathurl>
															<rate>
																<timebase>30</timebase>
																<ntsc>TRUE</ntsc>
															</rate>
															<duration>14615</duration>
															<timecode>
																<rate>
																	<timebase>30</timebase>
																	<ntsc>TRUE</ntsc>
																</rate>
																<string>02:21:16:24</string>
																<frame>254304</frame>
																<displayformat>NDF</displayformat>
															</timecode>
															<media hasDiscreteStreams="true">
																<video>
																	<samplecharacteristics>
																		<rate>
																			<timebase>30</timebase>
																			<ntsc>TRUE</ntsc>
																		</rate>
																		<width>6144</width>
																		<height>3160</height>
																		<anamorphic>FALSE</anamorphic>
																		<pixelaspectratio>square</pixelaspectratio>
																		<fielddominance>none</fielddominance>
																	</samplecharacteristics>
																</video>
																<audio>
																	<samplecharacteristics>
																		<depth>16</depth>
																		<samplerate>48000</samplerate>
																	</samplecharacteristics>
																	<channelcount>1</channelcount>
																	<layout>mono</layout>
																	<audiochannel>
																		<sourcechannel>1</sourcechannel>
																		<channellabel>discrete</channellabel>
																	</audiochannel>
																</audio>
																<audio>
																	<samplecharacteristics>
																		<depth>16</depth>
																		<samplerate>48000</samplerate>
																	</samplecharacteristics>
																	<channelcount>1</channelcount>
																	<layout>mono</layout>
																	<audiochannel>
																		<sourcechannel>2</sourcechannel>
																		<channellabel>discrete</channellabel>
																	</audiochannel>
																</audio>
															</media>
														</file>
														<link>
															<linkclipref>clipitem-55</linkclipref>
															<mediatype>video</mediatype>
															<trackindex>1</trackindex>
															<clipindex>1</clipindex>
														</link>
														<link>
															<linkclipref>clipitem-56</linkclipref>
															<mediatype>audio</mediatype>
															<trackindex>1</trackindex>
															<clipindex>1</clipindex>
														</link>
														<link>
															<linkclipref>clipitem-57</linkclipref>
															<mediatype>audio</mediatype>
															<trackindex>2</trackindex>
															<clipindex>1</clipindex>
														</link>
													</clipitem>
												</track>
											</video>
											<audio>
												<track>
													<clipitem id="clipitem-56" frameBlend="FALSE">
														<masterclipid>masterclip-19</masterclipid>
														<name>B001_C002_0216U2_009.R3D</name>
														<rate>
															<timebase>30</timebase>
															<ntsc>TRUE</ntsc>
														</rate>
														<file id="file-19"/>
														<sourcetrack>
															<mediatype>audio</mediatype>
															<trackindex>1</trackindex>
														</sourcetrack>
														<link>
															<linkclipref>clipitem-55</linkclipref>
															<mediatype>video</mediatype>
															<trackindex>1</trackindex>
															<clipindex>1</clipindex>
														</link>
														<link>
															<linkclipref>clipitem-56</linkclipref>
															<mediatype>audio</mediatype>
															<trackindex>1</trackindex>
															<clipindex>1</clipindex>
														</link>
														<link>
															<linkclipref>clipitem-57</linkclipref>
															<mediatype>audio</mediatype>
															<trackindex>2</trackindex>
															<clipindex>1</clipindex>
														</link>
													</clipitem>
												</track>
												<track>
													<clipitem id="clipitem-57" frameBlend="FALSE">
														<masterclipid>masterclip-19</masterclipid>
														<name>B001_C002_0216U2_009.R3D</name>
														<rate>
															<timebase>30</timebase>
															<ntsc>TRUE</ntsc>
														</rate>
														<file id="file-19"/>
														<sourcetrack>
															<mediatype>audio</mediatype>
															<trackindex>2</trackindex>
														</sourcetrack>
														<link>
															<linkclipref>clipitem-55</linkclipref>
															<mediatype>video</mediatype>
															<trackindex>1</trackindex>
															<clipindex>1</clipindex>
														</link>
														<link>
															<linkclipref>clipitem-56</linkclipref>
															<mediatype>audio</mediatype>
															<trackindex>1</trackindex>
															<clipindex>1</clipindex>
														</link>
														<link>
															<linkclipref>clipitem-57</linkclipref>
															<mediatype>audio</mediatype>
															<trackindex>2</trackindex>
															<clipindex>1</clipindex>
														</link>
													</clipitem>
												</track>
											</audio>
										</media>
										<logginginfo>
											<description></description>
											<scene></scene>
											<shottake></shottake>
											<lognote>As Shot</lognote>
										</logginginfo>
										<labels>
										</labels>
									</clip>
									<clip id="masterclip-20" explodedTracks="true" frameBlend="FALSE">
										<uuid>fe963348-8ea7-438d-8236-ff4e688751e6</uuid>
										<masterclipid>masterclip-20</masterclipid>
										<ismasterclip>TRUE</ismasterclip>
										<duration>14615</duration>
										<rate>
											<timebase>30</timebase>
											<ntsc>TRUE</ntsc>
										</rate>
										<name>B001_C002_0216U2_010.R3D</name>
										<media>
											<video>
												<track>
													<clipitem id="clipitem-58" frameBlend="FALSE">
														<masterclipid>masterclip-20</masterclipid>
														<name>B001_C002_0216U2_010.R3D</name>
														<rate>
															<timebase>30</timebase>
															<ntsc>TRUE</ntsc>
														</rate>
														<alphatype>none</alphatype>
														<pixelaspectratio>square</pixelaspectratio>
														<anamorphic>FALSE</anamorphic>
														<file id="file-20">
															<name>B001_C002_0216U2_010.R3D</name>
															<pathurl>file://localhost/Volumes/REDLAB_3A/SESQUI/MASTER_FILES/DAY_00/RED/R001/B001/B001_021684.RDM/B001_C002_0216U2.RDC/B001_C002_0216U2_010.R3D</pathurl>
															<rate>
																<timebase>30</timebase>
																<ntsc>TRUE</ntsc>
															</rate>
															<duration>14615</duration>
															<timecode>
																<rate>
																	<timebase>30</timebase>
																	<ntsc>TRUE</ntsc>
																</rate>
																<string>02:21:16:24</string>
																<frame>254304</frame>
																<displayformat>NDF</displayformat>
															</timecode>
															<media hasDiscreteStreams="true">
																<video>
																	<samplecharacteristics>
																		<rate>
																			<timebase>30</timebase>
																			<ntsc>TRUE</ntsc>
																		</rate>
																		<width>6144</width>
																		<height>3160</height>
																		<anamorphic>FALSE</anamorphic>
																		<pixelaspectratio>square</pixelaspectratio>
																		<fielddominance>none</fielddominance>
																	</samplecharacteristics>
																</video>
																<audio>
																	<samplecharacteristics>
																		<depth>16</depth>
																		<samplerate>48000</samplerate>
																	</samplecharacteristics>
																	<channelcount>1</channelcount>
																	<layout>mono</layout>
																	<audiochannel>
																		<sourcechannel>1</sourcechannel>
																		<channellabel>discrete</channellabel>
																	</audiochannel>
																</audio>
																<audio>
																	<samplecharacteristics>
																		<depth>16</depth>
																		<samplerate>48000</samplerate>
																	</samplecharacteristics>
																	<channelcount>1</channelcount>
																	<layout>mono</layout>
																	<audiochannel>
																		<sourcechannel>2</sourcechannel>
																		<channellabel>discrete</channellabel>
																	</audiochannel>
																</audio>
															</media>
														</file>
														<link>
															<linkclipref>clipitem-58</linkclipref>
															<mediatype>video</mediatype>
															<trackindex>1</trackindex>
															<clipindex>1</clipindex>
														</link>
														<link>
															<linkclipref>clipitem-59</linkclipref>
															<mediatype>audio</mediatype>
															<trackindex>1</trackindex>
															<clipindex>1</clipindex>
														</link>
														<link>
															<linkclipref>clipitem-60</linkclipref>
															<mediatype>audio</mediatype>
															<trackindex>2</trackindex>
															<clipindex>1</clipindex>
														</link>
													</clipitem>
												</track>
											</video>
											<audio>
												<track>
													<clipitem id="clipitem-59" frameBlend="FALSE">
														<masterclipid>masterclip-20</masterclipid>
														<name>B001_C002_0216U2_010.R3D</name>
														<rate>
															<timebase>30</timebase>
															<ntsc>TRUE</ntsc>
														</rate>
														<file id="file-20"/>
														<sourcetrack>
															<mediatype>audio</mediatype>
															<trackindex>1</trackindex>
														</sourcetrack>
														<link>
															<linkclipref>clipitem-58</linkclipref>
															<mediatype>video</mediatype>
															<trackindex>1</trackindex>
															<clipindex>1</clipindex>
														</link>
														<link>
															<linkclipref>clipitem-59</linkclipref>
															<mediatype>audio</mediatype>
															<trackindex>1</trackindex>
															<clipindex>1</clipindex>
														</link>
														<link>
															<linkclipref>clipitem-60</linkclipref>
															<mediatype>audio</mediatype>
															<trackindex>2</trackindex>
															<clipindex>1</clipindex>
														</link>
													</clipitem>
												</track>
												<track>
													<clipitem id="clipitem-60" frameBlend="FALSE">
														<masterclipid>masterclip-20</masterclipid>
														<name>B001_C002_0216U2_010.R3D</name>
														<rate>
															<timebase>30</timebase>
															<ntsc>TRUE</ntsc>
														</rate>
														<file id="file-20"/>
														<sourcetrack>
															<mediatype>audio</mediatype>
															<trackindex>2</trackindex>
														</sourcetrack>
														<link>
															<linkclipref>clipitem-58</linkclipref>
															<mediatype>video</mediatype>
															<trackindex>1</trackindex>
															<clipindex>1</clipindex>
														</link>
														<link>
															<linkclipref>clipitem-59</linkclipref>
															<mediatype>audio</mediatype>
															<trackindex>1</trackindex>
															<clipindex>1</clipindex>
														</link>
														<link>
															<linkclipref>clipitem-60</linkclipref>
															<mediatype>audio</mediatype>
															<trackindex>2</trackindex>
															<clipindex>1</clipindex>
														</link>
													</clipitem>
												</track>
											</audio>
										</media>
										<logginginfo>
											<description></description>
											<scene></scene>
											<shottake></shottake>
											<lognote>As Shot</lognote>
										</logginginfo>
										<labels>
										</labels>
									</clip>
									<clip id="masterclip-21" explodedTracks="true" frameBlend="FALSE">
										<uuid>1cfff7ec-b0fc-40af-9f3a-4ac2391ffb97</uuid>
										<masterclipid>masterclip-21</masterclipid>
										<ismasterclip>TRUE</ismasterclip>
										<duration>14615</duration>
										<rate>
											<timebase>30</timebase>
											<ntsc>TRUE</ntsc>
										</rate>
										<name>B001_C002_0216U2_011.R3D</name>
										<media>
											<video>
												<track>
													<clipitem id="clipitem-61" frameBlend="FALSE">
														<masterclipid>masterclip-21</masterclipid>
														<name>B001_C002_0216U2_011.R3D</name>
														<rate>
															<timebase>30</timebase>
															<ntsc>TRUE</ntsc>
														</rate>
														<alphatype>none</alphatype>
														<pixelaspectratio>square</pixelaspectratio>
														<anamorphic>FALSE</anamorphic>
														<file id="file-21">
															<name>B001_C002_0216U2_011.R3D</name>
															<pathurl>file://localhost/Volumes/REDLAB_3A/SESQUI/MASTER_FILES/DAY_00/RED/R001/B001/B001_021684.RDM/B001_C002_0216U2.RDC/B001_C002_0216U2_011.R3D</pathurl>
															<rate>
																<timebase>30</timebase>
																<ntsc>TRUE</ntsc>
															</rate>
															<duration>14615</duration>
															<timecode>
																<rate>
																	<timebase>30</timebase>
																	<ntsc>TRUE</ntsc>
																</rate>
																<string>02:21:16:24</string>
																<frame>254304</frame>
																<displayformat>NDF</displayformat>
															</timecode>
															<media hasDiscreteStreams="true">
																<video>
																	<samplecharacteristics>
																		<rate>
																			<timebase>30</timebase>
																			<ntsc>TRUE</ntsc>
																		</rate>
																		<width>6144</width>
																		<height>3160</height>
																		<anamorphic>FALSE</anamorphic>
																		<pixelaspectratio>square</pixelaspectratio>
																		<fielddominance>none</fielddominance>
																	</samplecharacteristics>
																</video>
																<audio>
																	<samplecharacteristics>
																		<depth>16</depth>
																		<samplerate>48000</samplerate>
																	</samplecharacteristics>
																	<channelcount>1</channelcount>
																	<layout>mono</layout>
																	<audiochannel>
																		<sourcechannel>1</sourcechannel>
																		<channellabel>discrete</channellabel>
																	</audiochannel>
																</audio>
																<audio>
																	<samplecharacteristics>
																		<depth>16</depth>
																		<samplerate>48000</samplerate>
																	</samplecharacteristics>
																	<channelcount>1</channelcount>
																	<layout>mono</layout>
																	<audiochannel>
																		<sourcechannel>2</sourcechannel>
																		<channellabel>discrete</channellabel>
																	</audiochannel>
																</audio>
															</media>
														</file>
														<link>
															<linkclipref>clipitem-61</linkclipref>
															<mediatype>video</mediatype>
															<trackindex>1</trackindex>
															<clipindex>1</clipindex>
														</link>
														<link>
															<linkclipref>clipitem-62</linkclipref>
															<mediatype>audio</mediatype>
															<trackindex>1</trackindex>
															<clipindex>1</clipindex>
														</link>
														<link>
															<linkclipref>clipitem-63</linkclipref>
															<mediatype>audio</mediatype>
															<trackindex>2</trackindex>
															<clipindex>1</clipindex>
														</link>
													</clipitem>
												</track>
											</video>
											<audio>
												<track>
													<clipitem id="clipitem-62" frameBlend="FALSE">
														<masterclipid>masterclip-21</masterclipid>
														<name>B001_C002_0216U2_011.R3D</name>
														<rate>
															<timebase>30</timebase>
															<ntsc>TRUE</ntsc>
														</rate>
														<file id="file-21"/>
														<sourcetrack>
															<mediatype>audio</mediatype>
															<trackindex>1</trackindex>
														</sourcetrack>
														<link>
															<linkclipref>clipitem-61</linkclipref>
															<mediatype>video</mediatype>
															<trackindex>1</trackindex>
															<clipindex>1</clipindex>
														</link>
														<link>
															<linkclipref>clipitem-62</linkclipref>
															<mediatype>audio</mediatype>
															<trackindex>1</trackindex>
															<clipindex>1</clipindex>
														</link>
														<link>
															<linkclipref>clipitem-63</linkclipref>
															<mediatype>audio</mediatype>
															<trackindex>2</trackindex>
															<clipindex>1</clipindex>
														</link>
													</clipitem>
												</track>
												<track>
													<clipitem id="clipitem-63" frameBlend="FALSE">
														<masterclipid>masterclip-21</masterclipid>
														<name>B001_C002_0216U2_011.R3D</name>
														<rate>
															<timebase>30</timebase>
															<ntsc>TRUE</ntsc>
														</rate>
														<file id="file-21"/>
														<sourcetrack>
															<mediatype>audio</mediatype>
															<trackindex>2</trackindex>
														</sourcetrack>
														<link>
															<linkclipref>clipitem-61</linkclipref>
															<mediatype>video</mediatype>
															<trackindex>1</trackindex>
															<clipindex>1</clipindex>
														</link>
														<link>
															<linkclipref>clipitem-62</linkclipref>
															<mediatype>audio</mediatype>
															<trackindex>1</trackindex>
															<clipindex>1</clipindex>
														</link>
														<link>
															<linkclipref>clipitem-63</linkclipref>
															<mediatype>audio</mediatype>
															<trackindex>2</trackindex>
															<clipindex>1</clipindex>
														</link>
													</clipitem>
												</track>
											</audio>
										</media>
										<logginginfo>
											<description></description>
											<scene></scene>
											<shottake></shottake>
											<lognote>As Shot</lognote>
										</logginginfo>
										<labels>
										</labels>
									</clip>
								</children>
							</bin>
							<bin>
								<name>C001_C002_0216K9.RDC</name>
								<labels>
									<label2>Mango</label2>
								</labels>
								<children>
									<clip id="masterclip-22" explodedTracks="true" frameBlend="FALSE">
										<uuid>9c87b192-e3de-451a-a3d7-09544e761ced</uuid>
										<masterclipid>masterclip-22</masterclipid>
										<ismasterclip>TRUE</ismasterclip>
										<duration>14445</duration>
										<rate>
											<timebase>30</timebase>
											<ntsc>TRUE</ntsc>
										</rate>
										<name>C001_C002_0216K9_001.R3D</name>
										<media>
											<video>
												<track>
													<clipitem id="clipitem-64" frameBlend="FALSE">
														<masterclipid>masterclip-22</masterclipid>
														<name>C001_C002_0216K9_001.R3D</name>
														<rate>
															<timebase>30</timebase>
															<ntsc>TRUE</ntsc>
														</rate>
														<alphatype>none</alphatype>
														<pixelaspectratio>square</pixelaspectratio>
														<anamorphic>FALSE</anamorphic>
														<file id="file-22">
															<name>C001_C002_0216K9_001.R3D</name>
															<pathurl>file://localhost/Volumes/REDLAB_3A/SESQUI/MASTER_FILES/DAY_00/RED/R001/C001/C001_0216T0.RDM/C001_C002_0216K9.RDC/C001_C002_0216K9_001.R3D</pathurl>
															<rate>
																<timebase>30</timebase>
																<ntsc>TRUE</ntsc>
															</rate>
															<duration>14445</duration>
															<timecode>
																<rate>
																	<timebase>30</timebase>
																	<ntsc>TRUE</ntsc>
																</rate>
																<string>02:21:24:20</string>
																<frame>254540</frame>
																<displayformat>NDF</displayformat>
															</timecode>
															<media hasDiscreteStreams="true">
																<video>
																	<samplecharacteristics>
																		<rate>
																			<timebase>30</timebase>
																			<ntsc>TRUE</ntsc>
																		</rate>
																		<width>6144</width>
																		<height>3160</height>
																		<anamorphic>FALSE</anamorphic>
																		<pixelaspectratio>square</pixelaspectratio>
																		<fielddominance>none</fielddominance>
																	</samplecharacteristics>
																</video>
																<audio>
																	<samplecharacteristics>
																		<depth>16</depth>
																		<samplerate>48000</samplerate>
																	</samplecharacteristics>
																	<channelcount>1</channelcount>
																	<layout>mono</layout>
																	<audiochannel>
																		<sourcechannel>1</sourcechannel>
																		<channellabel>discrete</channellabel>
																	</audiochannel>
																</audio>
																<audio>
																	<samplecharacteristics>
																		<depth>16</depth>
																		<samplerate>48000</samplerate>
																	</samplecharacteristics>
																	<channelcount>1</channelcount>
																	<layout>mono</layout>
																	<audiochannel>
																		<sourcechannel>2</sourcechannel>
																		<channellabel>discrete</channellabel>
																	</audiochannel>
																</audio>
															</media>
														</file>
														<link>
															<linkclipref>clipitem-64</linkclipref>
															<mediatype>video</mediatype>
															<trackindex>1</trackindex>
															<clipindex>1</clipindex>
														</link>
														<link>
															<linkclipref>clipitem-65</linkclipref>
															<mediatype>audio</mediatype>
															<trackindex>1</trackindex>
															<clipindex>1</clipindex>
														</link>
														<link>
															<linkclipref>clipitem-66</linkclipref>
															<mediatype>audio</mediatype>
															<trackindex>2</trackindex>
															<clipindex>1</clipindex>
														</link>
													</clipitem>
												</track>
											</video>
											<audio>
												<track>
													<clipitem id="clipitem-65" frameBlend="FALSE">
														<masterclipid>masterclip-22</masterclipid>
														<name>C001_C002_0216K9_001.R3D</name>
														<rate>
															<timebase>30</timebase>
															<ntsc>TRUE</ntsc>
														</rate>
														<file id="file-22"/>
														<sourcetrack>
															<mediatype>audio</mediatype>
															<trackindex>1</trackindex>
														</sourcetrack>
														<link>
															<linkclipref>clipitem-64</linkclipref>
															<mediatype>video</mediatype>
															<trackindex>1</trackindex>
															<clipindex>1</clipindex>
														</link>
														<link>
															<linkclipref>clipitem-65</linkclipref>
															<mediatype>audio</mediatype>
															<trackindex>1</trackindex>
															<clipindex>1</clipindex>
														</link>
														<link>
															<linkclipref>clipitem-66</linkclipref>
															<mediatype>audio</mediatype>
															<trackindex>2</trackindex>
															<clipindex>1</clipindex>
														</link>
													</clipitem>
												</track>
												<track>
													<clipitem id="clipitem-66" frameBlend="FALSE">
														<masterclipid>masterclip-22</masterclipid>
														<name>C001_C002_0216K9_001.R3D</name>
														<rate>
															<timebase>30</timebase>
															<ntsc>TRUE</ntsc>
														</rate>
														<file id="file-22"/>
														<sourcetrack>
															<mediatype>audio</mediatype>
															<trackindex>2</trackindex>
														</sourcetrack>
														<link>
															<linkclipref>clipitem-64</linkclipref>
															<mediatype>video</mediatype>
															<trackindex>1</trackindex>
															<clipindex>1</clipindex>
														</link>
														<link>
															<linkclipref>clipitem-65</linkclipref>
															<mediatype>audio</mediatype>
															<trackindex>1</trackindex>
															<clipindex>1</clipindex>
														</link>
														<link>
															<linkclipref>clipitem-66</linkclipref>
															<mediatype>audio</mediatype>
															<trackindex>2</trackindex>
															<clipindex>1</clipindex>
														</link>
													</clipitem>
												</track>
											</audio>
										</media>
										<logginginfo>
											<description></description>
											<scene></scene>
											<shottake></shottake>
											<lognote>As Shot</lognote>
										</logginginfo>
										<labels>
										</labels>
									</clip>
									<clip id="masterclip-23" explodedTracks="true" frameBlend="FALSE">
										<uuid>557550ed-d7e2-4539-a28d-e2c77bf62898</uuid>
										<masterclipid>masterclip-23</masterclipid>
										<ismasterclip>TRUE</ismasterclip>
										<duration>14445</duration>
										<rate>
											<timebase>30</timebase>
											<ntsc>TRUE</ntsc>
										</rate>
										<name>C001_C002_0216K9_002.R3D</name>
										<media>
											<video>
												<track>
													<clipitem id="clipitem-67" frameBlend="FALSE">
														<masterclipid>masterclip-23</masterclipid>
														<name>C001_C002_0216K9_002.R3D</name>
														<rate>
															<timebase>30</timebase>
															<ntsc>TRUE</ntsc>
														</rate>
														<alphatype>none</alphatype>
														<pixelaspectratio>square</pixelaspectratio>
														<anamorphic>FALSE</anamorphic>
														<file id="file-23">
															<name>C001_C002_0216K9_002.R3D</name>
															<pathurl>file://localhost/Volumes/REDLAB_3A/SESQUI/MASTER_FILES/DAY_00/RED/R001/C001/C001_0216T0.RDM/C001_C002_0216K9.RDC/C001_C002_0216K9_002.R3D</pathurl>
															<rate>
																<timebase>30</timebase>
																<ntsc>TRUE</ntsc>
															</rate>
															<duration>14445</duration>
															<timecode>
																<rate>
																	<timebase>30</timebase>
																	<ntsc>TRUE</ntsc>
																</rate>
																<string>02:21:24:20</string>
																<frame>254540</frame>
																<displayformat>NDF</displayformat>
															</timecode>
															<media hasDiscreteStreams="true">
																<video>
																	<samplecharacteristics>
																		<rate>
																			<timebase>30</timebase>
																			<ntsc>TRUE</ntsc>
																		</rate>
																		<width>6144</width>
																		<height>3160</height>
																		<anamorphic>FALSE</anamorphic>
																		<pixelaspectratio>square</pixelaspectratio>
																		<fielddominance>none</fielddominance>
																	</samplecharacteristics>
																</video>
																<audio>
																	<samplecharacteristics>
																		<depth>16</depth>
																		<samplerate>48000</samplerate>
																	</samplecharacteristics>
																	<channelcount>1</channelcount>
																	<layout>mono</layout>
																	<audiochannel>
																		<sourcechannel>1</sourcechannel>
																		<channellabel>discrete</channellabel>
																	</audiochannel>
																</audio>
																<audio>
																	<samplecharacteristics>
																		<depth>16</depth>
																		<samplerate>48000</samplerate>
																	</samplecharacteristics>
																	<channelcount>1</channelcount>
																	<layout>mono</layout>
																	<audiochannel>
																		<sourcechannel>2</sourcechannel>
																		<channellabel>discrete</channellabel>
																	</audiochannel>
																</audio>
															</media>
														</file>
														<link>
															<linkclipref>clipitem-67</linkclipref>
															<mediatype>video</mediatype>
															<trackindex>1</trackindex>
															<clipindex>1</clipindex>
														</link>
														<link>
															<linkclipref>clipitem-68</linkclipref>
															<mediatype>audio</mediatype>
															<trackindex>1</trackindex>
															<clipindex>1</clipindex>
														</link>
														<link>
															<linkclipref>clipitem-69</linkclipref>
															<mediatype>audio</mediatype>
															<trackindex>2</trackindex>
															<clipindex>1</clipindex>
														</link>
													</clipitem>
												</track>
											</video>
											<audio>
												<track>
													<clipitem id="clipitem-68" frameBlend="FALSE">
														<masterclipid>masterclip-23</masterclipid>
														<name>C001_C002_0216K9_002.R3D</name>
														<rate>
															<timebase>30</timebase>
															<ntsc>TRUE</ntsc>
														</rate>
														<file id="file-23"/>
														<sourcetrack>
															<mediatype>audio</mediatype>
															<trackindex>1</trackindex>
														</sourcetrack>
														<link>
															<linkclipref>clipitem-67</linkclipref>
															<mediatype>video</mediatype>
															<trackindex>1</trackindex>
															<clipindex>1</clipindex>
														</link>
														<link>
															<linkclipref>clipitem-68</linkclipref>
															<mediatype>audio</mediatype>
															<trackindex>1</trackindex>
															<clipindex>1</clipindex>
														</link>
														<link>
															<linkclipref>clipitem-69</linkclipref>
															<mediatype>audio</mediatype>
															<trackindex>2</trackindex>
															<clipindex>1</clipindex>
														</link>
													</clipitem>
												</track>
												<track>
													<clipitem id="clipitem-69" frameBlend="FALSE">
														<masterclipid>masterclip-23</masterclipid>
														<name>C001_C002_0216K9_002.R3D</name>
														<rate>
															<timebase>30</timebase>
															<ntsc>TRUE</ntsc>
														</rate>
														<file id="file-23"/>
														<sourcetrack>
															<mediatype>audio</mediatype>
															<trackindex>2</trackindex>
														</sourcetrack>
														<link>
															<linkclipref>clipitem-67</linkclipref>
															<mediatype>video</mediatype>
															<trackindex>1</trackindex>
															<clipindex>1</clipindex>
														</link>
														<link>
															<linkclipref>clipitem-68</linkclipref>
															<mediatype>audio</mediatype>
															<trackindex>1</trackindex>
															<clipindex>1</clipindex>
														</link>
														<link>
															<linkclipref>clipitem-69</linkclipref>
															<mediatype>audio</mediatype>
															<trackindex>2</trackindex>
															<clipindex>1</clipindex>
														</link>
													</clipitem>
												</track>
											</audio>
										</media>
										<logginginfo>
											<description></description>
											<scene></scene>
											<shottake></shottake>
											<lognote>As Shot</lognote>
										</logginginfo>
										<labels>
										</labels>
									</clip>
									<clip id="masterclip-24" explodedTracks="true" frameBlend="FALSE">
										<uuid>212ac9bc-74c3-4822-b3b4-95eb78a9ce34</uuid>
										<masterclipid>masterclip-24</masterclipid>
										<ismasterclip>TRUE</ismasterclip>
										<duration>14445</duration>
										<rate>
											<timebase>30</timebase>
											<ntsc>TRUE</ntsc>
										</rate>
										<name>C001_C002_0216K9_003.R3D</name>
										<media>
											<video>
												<track>
													<clipitem id="clipitem-70" frameBlend="FALSE">
														<masterclipid>masterclip-24</masterclipid>
														<name>C001_C002_0216K9_003.R3D</name>
														<rate>
															<timebase>30</timebase>
															<ntsc>TRUE</ntsc>
														</rate>
														<alphatype>none</alphatype>
														<pixelaspectratio>square</pixelaspectratio>
														<anamorphic>FALSE</anamorphic>
														<file id="file-24">
															<name>C001_C002_0216K9_003.R3D</name>
															<pathurl>file://localhost/Volumes/REDLAB_3A/SESQUI/MASTER_FILES/DAY_00/RED/R001/C001/C001_0216T0.RDM/C001_C002_0216K9.RDC/C001_C002_0216K9_003.R3D</pathurl>
															<rate>
																<timebase>30</timebase>
																<ntsc>TRUE</ntsc>
															</rate>
															<duration>14445</duration>
															<timecode>
																<rate>
																	<timebase>30</timebase>
																	<ntsc>TRUE</ntsc>
																</rate>
																<string>02:21:24:20</string>
																<frame>254540</frame>
																<displayformat>NDF</displayformat>
															</timecode>
															<media hasDiscreteStreams="true">
																<video>
																	<samplecharacteristics>
																		<rate>
																			<timebase>30</timebase>
																			<ntsc>TRUE</ntsc>
																		</rate>
																		<width>6144</width>
																		<height>3160</height>
																		<anamorphic>FALSE</anamorphic>
																		<pixelaspectratio>square</pixelaspectratio>
																		<fielddominance>none</fielddominance>
																	</samplecharacteristics>
																</video>
																<audio>
																	<samplecharacteristics>
																		<depth>16</depth>
																		<samplerate>48000</samplerate>
																	</samplecharacteristics>
																	<channelcount>1</channelcount>
																	<layout>mono</layout>
																	<audiochannel>
																		<sourcechannel>1</sourcechannel>
																		<channellabel>discrete</channellabel>
																	</audiochannel>
																</audio>
																<audio>
																	<samplecharacteristics>
																		<depth>16</depth>
																		<samplerate>48000</samplerate>
																	</samplecharacteristics>
																	<channelcount>1</channelcount>
																	<layout>mono</layout>
																	<audiochannel>
																		<sourcechannel>2</sourcechannel>
																		<channellabel>discrete</channellabel>
																	</audiochannel>
																</audio>
															</media>
														</file>
														<link>
															<linkclipref>clipitem-70</linkclipref>
															<mediatype>video</mediatype>
															<trackindex>1</trackindex>
															<clipindex>1</clipindex>
														</link>
														<link>
															<linkclipref>clipitem-71</linkclipref>
															<mediatype>audio</mediatype>
															<trackindex>1</trackindex>
															<clipindex>1</clipindex>
														</link>
														<link>
															<linkclipref>clipitem-72</linkclipref>
															<mediatype>audio</mediatype>
															<trackindex>2</trackindex>
															<clipindex>1</clipindex>
														</link>
													</clipitem>
												</track>
											</video>
											<audio>
												<track>
													<clipitem id="clipitem-71" frameBlend="FALSE">
														<masterclipid>masterclip-24</masterclipid>
														<name>C001_C002_0216K9_003.R3D</name>
														<rate>
															<timebase>30</timebase>
															<ntsc>TRUE</ntsc>
														</rate>
														<file id="file-24"/>
														<sourcetrack>
															<mediatype>audio</mediatype>
															<trackindex>1</trackindex>
														</sourcetrack>
														<link>
															<linkclipref>clipitem-70</linkclipref>
															<mediatype>video</mediatype>
															<trackindex>1</trackindex>
															<clipindex>1</clipindex>
														</link>
														<link>
															<linkclipref>clipitem-71</linkclipref>
															<mediatype>audio</mediatype>
															<trackindex>1</trackindex>
															<clipindex>1</clipindex>
														</link>
														<link>
															<linkclipref>clipitem-72</linkclipref>
															<mediatype>audio</mediatype>
															<trackindex>2</trackindex>
															<clipindex>1</clipindex>
														</link>
													</clipitem>
												</track>
												<track>
													<clipitem id="clipitem-72" frameBlend="FALSE">
														<masterclipid>masterclip-24</masterclipid>
														<name>C001_C002_0216K9_003.R3D</name>
														<rate>
															<timebase>30</timebase>
															<ntsc>TRUE</ntsc>
														</rate>
														<file id="file-24"/>
														<sourcetrack>
															<mediatype>audio</mediatype>
															<trackindex>2</trackindex>
														</sourcetrack>
														<link>
															<linkclipref>clipitem-70</linkclipref>
															<mediatype>video</mediatype>
															<trackindex>1</trackindex>
															<clipindex>1</clipindex>
														</link>
														<link>
															<linkclipref>clipitem-71</linkclipref>
															<mediatype>audio</mediatype>
															<trackindex>1</trackindex>
															<clipindex>1</clipindex>
														</link>
														<link>
															<linkclipref>clipitem-72</linkclipref>
															<mediatype>audio</mediatype>
															<trackindex>2</trackindex>
															<clipindex>1</clipindex>
														</link>
													</clipitem>
												</track>
											</audio>
										</media>
										<logginginfo>
											<description></description>
											<scene></scene>
											<shottake></shottake>
											<lognote>As Shot</lognote>
										</logginginfo>
										<labels>
										</labels>
									</clip>
									<clip id="masterclip-25" explodedTracks="true" frameBlend="FALSE">
										<uuid>4f1dc8b1-6297-4abc-af0c-b0d7f1dd891b</uuid>
										<masterclipid>masterclip-25</masterclipid>
										<ismasterclip>TRUE</ismasterclip>
										<duration>14445</duration>
										<rate>
											<timebase>30</timebase>
											<ntsc>TRUE</ntsc>
										</rate>
										<name>C001_C002_0216K9_004.R3D</name>
										<media>
											<video>
												<track>
													<clipitem id="clipitem-73" frameBlend="FALSE">
														<masterclipid>masterclip-25</masterclipid>
														<name>C001_C002_0216K9_004.R3D</name>
														<rate>
															<timebase>30</timebase>
															<ntsc>TRUE</ntsc>
														</rate>
														<alphatype>none</alphatype>
														<pixelaspectratio>square</pixelaspectratio>
														<anamorphic>FALSE</anamorphic>
														<file id="file-25">
															<name>C001_C002_0216K9_004.R3D</name>
															<pathurl>file://localhost/Volumes/REDLAB_3A/SESQUI/MASTER_FILES/DAY_00/RED/R001/C001/C001_0216T0.RDM/C001_C002_0216K9.RDC/C001_C002_0216K9_004.R3D</pathurl>
															<rate>
																<timebase>30</timebase>
																<ntsc>TRUE</ntsc>
															</rate>
															<duration>14445</duration>
															<timecode>
																<rate>
																	<timebase>30</timebase>
																	<ntsc>TRUE</ntsc>
																</rate>
																<string>02:21:24:20</string>
																<frame>254540</frame>
																<displayformat>NDF</displayformat>
															</timecode>
															<media hasDiscreteStreams="true">
																<video>
																	<samplecharacteristics>
																		<rate>
																			<timebase>30</timebase>
																			<ntsc>TRUE</ntsc>
																		</rate>
																		<width>6144</width>
																		<height>3160</height>
																		<anamorphic>FALSE</anamorphic>
																		<pixelaspectratio>square</pixelaspectratio>
																		<fielddominance>none</fielddominance>
																	</samplecharacteristics>
																</video>
																<audio>
																	<samplecharacteristics>
																		<depth>16</depth>
																		<samplerate>48000</samplerate>
																	</samplecharacteristics>
																	<channelcount>1</channelcount>
																	<layout>mono</layout>
																	<audiochannel>
																		<sourcechannel>1</sourcechannel>
																		<channellabel>discrete</channellabel>
																	</audiochannel>
																</audio>
																<audio>
																	<samplecharacteristics>
																		<depth>16</depth>
																		<samplerate>48000</samplerate>
																	</samplecharacteristics>
																	<channelcount>1</channelcount>
																	<layout>mono</layout>
																	<audiochannel>
																		<sourcechannel>2</sourcechannel>
																		<channellabel>discrete</channellabel>
																	</audiochannel>
																</audio>
															</media>
														</file>
														<link>
															<linkclipref>clipitem-73</linkclipref>
															<mediatype>video</mediatype>
															<trackindex>1</trackindex>
															<clipindex>1</clipindex>
														</link>
														<link>
															<linkclipref>clipitem-74</linkclipref>
															<mediatype>audio</mediatype>
															<trackindex>1</trackindex>
															<clipindex>1</clipindex>
														</link>
														<link>
															<linkclipref>clipitem-75</linkclipref>
															<mediatype>audio</mediatype>
															<trackindex>2</trackindex>
															<clipindex>1</clipindex>
														</link>
													</clipitem>
												</track>
											</video>
											<audio>
												<track>
													<clipitem id="clipitem-74" frameBlend="FALSE">
														<masterclipid>masterclip-25</masterclipid>
														<name>C001_C002_0216K9_004.R3D</name>
														<rate>
															<timebase>30</timebase>
															<ntsc>TRUE</ntsc>
														</rate>
														<file id="file-25"/>
														<sourcetrack>
															<mediatype>audio</mediatype>
															<trackindex>1</trackindex>
														</sourcetrack>
														<link>
															<linkclipref>clipitem-73</linkclipref>
															<mediatype>video</mediatype>
															<trackindex>1</trackindex>
															<clipindex>1</clipindex>
														</link>
														<link>
															<linkclipref>clipitem-74</linkclipref>
															<mediatype>audio</mediatype>
															<trackindex>1</trackindex>
															<clipindex>1</clipindex>
														</link>
														<link>
															<linkclipref>clipitem-75</linkclipref>
															<mediatype>audio</mediatype>
															<trackindex>2</trackindex>
															<clipindex>1</clipindex>
														</link>
													</clipitem>
												</track>
												<track>
													<clipitem id="clipitem-75" frameBlend="FALSE">
														<masterclipid>masterclip-25</masterclipid>
														<name>C001_C002_0216K9_004.R3D</name>
														<rate>
															<timebase>30</timebase>
															<ntsc>TRUE</ntsc>
														</rate>
														<file id="file-25"/>
														<sourcetrack>
															<mediatype>audio</mediatype>
															<trackindex>2</trackindex>
														</sourcetrack>
														<link>
															<linkclipref>clipitem-73</linkclipref>
															<mediatype>video</mediatype>
															<trackindex>1</trackindex>
															<clipindex>1</clipindex>
														</link>
														<link>
															<linkclipref>clipitem-74</linkclipref>
															<mediatype>audio</mediatype>
															<trackindex>1</trackindex>
															<clipindex>1</clipindex>
														</link>
														<link>
															<linkclipref>clipitem-75</linkclipref>
															<mediatype>audio</mediatype>
															<trackindex>2</trackindex>
															<clipindex>1</clipindex>
														</link>
													</clipitem>
												</track>
											</audio>
										</media>
										<logginginfo>
											<description></description>
											<scene></scene>
											<shottake></shottake>
											<lognote>As Shot</lognote>
										</logginginfo>
										<labels>
										</labels>
									</clip>
									<clip id="masterclip-26" explodedTracks="true" frameBlend="FALSE">
										<uuid>6da5d2a2-d180-400f-ba7c-8b2f871d25ff</uuid>
										<masterclipid>masterclip-26</masterclipid>
										<ismasterclip>TRUE</ismasterclip>
										<duration>14445</duration>
										<rate>
											<timebase>30</timebase>
											<ntsc>TRUE</ntsc>
										</rate>
										<name>C001_C002_0216K9_005.R3D</name>
										<media>
											<video>
												<track>
													<clipitem id="clipitem-76" frameBlend="FALSE">
														<masterclipid>masterclip-26</masterclipid>
														<name>C001_C002_0216K9_005.R3D</name>
														<rate>
															<timebase>30</timebase>
															<ntsc>TRUE</ntsc>
														</rate>
														<alphatype>none</alphatype>
														<pixelaspectratio>square</pixelaspectratio>
														<anamorphic>FALSE</anamorphic>
														<file id="file-26">
															<name>C001_C002_0216K9_005.R3D</name>
															<pathurl>file://localhost/Volumes/REDLAB_3A/SESQUI/MASTER_FILES/DAY_00/RED/R001/C001/C001_0216T0.RDM/C001_C002_0216K9.RDC/C001_C002_0216K9_005.R3D</pathurl>
															<rate>
																<timebase>30</timebase>
																<ntsc>TRUE</ntsc>
															</rate>
															<duration>14445</duration>
															<timecode>
																<rate>
																	<timebase>30</timebase>
																	<ntsc>TRUE</ntsc>
																</rate>
																<string>02:21:24:20</string>
																<frame>254540</frame>
																<displayformat>NDF</displayformat>
															</timecode>
															<media hasDiscreteStreams="true">
																<video>
																	<samplecharacteristics>
																		<rate>
																			<timebase>30</timebase>
																			<ntsc>TRUE</ntsc>
																		</rate>
																		<width>6144</width>
																		<height>3160</height>
																		<anamorphic>FALSE</anamorphic>
																		<pixelaspectratio>square</pixelaspectratio>
																		<fielddominance>none</fielddominance>
																	</samplecharacteristics>
																</video>
																<audio>
																	<samplecharacteristics>
																		<depth>16</depth>
																		<samplerate>48000</samplerate>
																	</samplecharacteristics>
																	<channelcount>1</channelcount>
																	<layout>mono</layout>
																	<audiochannel>
																		<sourcechannel>1</sourcechannel>
																		<channellabel>discrete</channellabel>
																	</audiochannel>
																</audio>
																<audio>
																	<samplecharacteristics>
																		<depth>16</depth>
																		<samplerate>48000</samplerate>
																	</samplecharacteristics>
																	<channelcount>1</channelcount>
																	<layout>mono</layout>
																	<audiochannel>
																		<sourcechannel>2</sourcechannel>
																		<channellabel>discrete</channellabel>
																	</audiochannel>
																</audio>
															</media>
														</file>
														<link>
															<linkclipref>clipitem-76</linkclipref>
															<mediatype>video</mediatype>
															<trackindex>1</trackindex>
															<clipindex>1</clipindex>
														</link>
														<link>
															<linkclipref>clipitem-77</linkclipref>
															<mediatype>audio</mediatype>
															<trackindex>1</trackindex>
															<clipindex>1</clipindex>
														</link>
														<link>
															<linkclipref>clipitem-78</linkclipref>
															<mediatype>audio</mediatype>
															<trackindex>2</trackindex>
															<clipindex>1</clipindex>
														</link>
													</clipitem>
												</track>
											</video>
											<audio>
												<track>
													<clipitem id="clipitem-77" frameBlend="FALSE">
														<masterclipid>masterclip-26</masterclipid>
														<name>C001_C002_0216K9_005.R3D</name>
														<rate>
															<timebase>30</timebase>
															<ntsc>TRUE</ntsc>
														</rate>
														<file id="file-26"/>
														<sourcetrack>
															<mediatype>audio</mediatype>
															<trackindex>1</trackindex>
														</sourcetrack>
														<link>
															<linkclipref>clipitem-76</linkclipref>
															<mediatype>video</mediatype>
															<trackindex>1</trackindex>
															<clipindex>1</clipindex>
														</link>
														<link>
															<linkclipref>clipitem-77</linkclipref>
															<mediatype>audio</mediatype>
															<trackindex>1</trackindex>
															<clipindex>1</clipindex>
														</link>
														<link>
															<linkclipref>clipitem-78</linkclipref>
															<mediatype>audio</mediatype>
															<trackindex>2</trackindex>
															<clipindex>1</clipindex>
														</link>
													</clipitem>
												</track>
												<track>
													<clipitem id="clipitem-78" frameBlend="FALSE">
														<masterclipid>masterclip-26</masterclipid>
														<name>C001_C002_0216K9_005.R3D</name>
														<rate>
															<timebase>30</timebase>
															<ntsc>TRUE</ntsc>
														</rate>
														<file id="file-26"/>
														<sourcetrack>
															<mediatype>audio</mediatype>
															<trackindex>2</trackindex>
														</sourcetrack>
														<link>
															<linkclipref>clipitem-76</linkclipref>
															<mediatype>video</mediatype>
															<trackindex>1</trackindex>
															<clipindex>1</clipindex>
														</link>
														<link>
															<linkclipref>clipitem-77</linkclipref>
															<mediatype>audio</mediatype>
															<trackindex>1</trackindex>
															<clipindex>1</clipindex>
														</link>
														<link>
															<linkclipref>clipitem-78</linkclipref>
															<mediatype>audio</mediatype>
															<trackindex>2</trackindex>
															<clipindex>1</clipindex>
														</link>
													</clipitem>
												</track>
											</audio>
										</media>
										<logginginfo>
											<description></description>
											<scene></scene>
											<shottake></shottake>
											<lognote>As Shot</lognote>
										</logginginfo>
										<labels>
										</labels>
									</clip>
									<clip id="masterclip-27" explodedTracks="true" frameBlend="FALSE">
										<uuid>542e8d66-faf9-408c-93bc-867258f18067</uuid>
										<masterclipid>masterclip-27</masterclipid>
										<ismasterclip>TRUE</ismasterclip>
										<duration>14445</duration>
										<rate>
											<timebase>30</timebase>
											<ntsc>TRUE</ntsc>
										</rate>
										<name>C001_C002_0216K9_006.R3D</name>
										<media>
											<video>
												<track>
													<clipitem id="clipitem-79" frameBlend="FALSE">
														<masterclipid>masterclip-27</masterclipid>
														<name>C001_C002_0216K9_006.R3D</name>
														<rate>
															<timebase>30</timebase>
															<ntsc>TRUE</ntsc>
														</rate>
														<alphatype>none</alphatype>
														<pixelaspectratio>square</pixelaspectratio>
														<anamorphic>FALSE</anamorphic>
														<file id="file-27">
															<name>C001_C002_0216K9_006.R3D</name>
															<pathurl>file://localhost/Volumes/REDLAB_3A/SESQUI/MASTER_FILES/DAY_00/RED/R001/C001/C001_0216T0.RDM/C001_C002_0216K9.RDC/C001_C002_0216K9_006.R3D</pathurl>
															<rate>
																<timebase>30</timebase>
																<ntsc>TRUE</ntsc>
															</rate>
															<duration>14445</duration>
															<timecode>
																<rate>
																	<timebase>30</timebase>
																	<ntsc>TRUE</ntsc>
																</rate>
																<string>02:21:24:20</string>
																<frame>254540</frame>
																<displayformat>NDF</displayformat>
															</timecode>
															<media hasDiscreteStreams="true">
																<video>
																	<samplecharacteristics>
																		<rate>
																			<timebase>30</timebase>
																			<ntsc>TRUE</ntsc>
																		</rate>
																		<width>6144</width>
																		<height>3160</height>
																		<anamorphic>FALSE</anamorphic>
																		<pixelaspectratio>square</pixelaspectratio>
																		<fielddominance>none</fielddominance>
																	</samplecharacteristics>
																</video>
																<audio>
																	<samplecharacteristics>
																		<depth>16</depth>
																		<samplerate>48000</samplerate>
																	</samplecharacteristics>
																	<channelcount>1</channelcount>
																	<layout>mono</layout>
																	<audiochannel>
																		<sourcechannel>1</sourcechannel>
																		<channellabel>discrete</channellabel>
																	</audiochannel>
																</audio>
																<audio>
																	<samplecharacteristics>
																		<depth>16</depth>
																		<samplerate>48000</samplerate>
																	</samplecharacteristics>
																	<channelcount>1</channelcount>
																	<layout>mono</layout>
																	<audiochannel>
																		<sourcechannel>2</sourcechannel>
																		<channellabel>discrete</channellabel>
																	</audiochannel>
																</audio>
															</media>
														</file>
														<link>
															<linkclipref>clipitem-79</linkclipref>
															<mediatype>video</mediatype>
															<trackindex>1</trackindex>
															<clipindex>1</clipindex>
														</link>
														<link>
															<linkclipref>clipitem-80</linkclipref>
															<mediatype>audio</mediatype>
															<trackindex>1</trackindex>
															<clipindex>1</clipindex>
														</link>
														<link>
															<linkclipref>clipitem-81</linkclipref>
															<mediatype>audio</mediatype>
															<trackindex>2</trackindex>
															<clipindex>1</clipindex>
														</link>
													</clipitem>
												</track>
											</video>
											<audio>
												<track>
													<clipitem id="clipitem-80" frameBlend="FALSE">
														<masterclipid>masterclip-27</masterclipid>
														<name>C001_C002_0216K9_006.R3D</name>
														<rate>
															<timebase>30</timebase>
															<ntsc>TRUE</ntsc>
														</rate>
														<file id="file-27"/>
														<sourcetrack>
															<mediatype>audio</mediatype>
															<trackindex>1</trackindex>
														</sourcetrack>
														<link>
															<linkclipref>clipitem-79</linkclipref>
															<mediatype>video</mediatype>
															<trackindex>1</trackindex>
															<clipindex>1</clipindex>
														</link>
														<link>
															<linkclipref>clipitem-80</linkclipref>
															<mediatype>audio</mediatype>
															<trackindex>1</trackindex>
															<clipindex>1</clipindex>
														</link>
														<link>
															<linkclipref>clipitem-81</linkclipref>
															<mediatype>audio</mediatype>
															<trackindex>2</trackindex>
															<clipindex>1</clipindex>
														</link>
													</clipitem>
												</track>
												<track>
													<clipitem id="clipitem-81" frameBlend="FALSE">
														<masterclipid>masterclip-27</masterclipid>
														<name>C001_C002_0216K9_006.R3D</name>
														<rate>
															<timebase>30</timebase>
															<ntsc>TRUE</ntsc>
														</rate>
														<file id="file-27"/>
														<sourcetrack>
															<mediatype>audio</mediatype>
															<trackindex>2</trackindex>
														</sourcetrack>
														<link>
															<linkclipref>clipitem-79</linkclipref>
															<mediatype>video</mediatype>
															<trackindex>1</trackindex>
															<clipindex>1</clipindex>
														</link>
														<link>
															<linkclipref>clipitem-80</linkclipref>
															<mediatype>audio</mediatype>
															<trackindex>1</trackindex>
															<clipindex>1</clipindex>
														</link>
														<link>
															<linkclipref>clipitem-81</linkclipref>
															<mediatype>audio</mediatype>
															<trackindex>2</trackindex>
															<clipindex>1</clipindex>
														</link>
													</clipitem>
												</track>
											</audio>
										</media>
										<logginginfo>
											<description></description>
											<scene></scene>
											<shottake></shottake>
											<lognote>As Shot</lognote>
										</logginginfo>
										<labels>
										</labels>
									</clip>
									<clip id="masterclip-28" explodedTracks="true" frameBlend="FALSE">
										<uuid>9aedcd1f-3b64-409e-b5e3-b45bd60daaad</uuid>
										<masterclipid>masterclip-28</masterclipid>
										<ismasterclip>TRUE</ismasterclip>
										<duration>14445</duration>
										<rate>
											<timebase>30</timebase>
											<ntsc>TRUE</ntsc>
										</rate>
										<name>C001_C002_0216K9_007.R3D</name>
										<media>
											<video>
												<track>
													<clipitem id="clipitem-82" frameBlend="FALSE">
														<masterclipid>masterclip-28</masterclipid>
														<name>C001_C002_0216K9_007.R3D</name>
														<rate>
															<timebase>30</timebase>
															<ntsc>TRUE</ntsc>
														</rate>
														<alphatype>none</alphatype>
														<pixelaspectratio>square</pixelaspectratio>
														<anamorphic>FALSE</anamorphic>
														<file id="file-28">
															<name>C001_C002_0216K9_007.R3D</name>
															<pathurl>file://localhost/Volumes/REDLAB_3A/SESQUI/MASTER_FILES/DAY_00/RED/R001/C001/C001_0216T0.RDM/C001_C002_0216K9.RDC/C001_C002_0216K9_007.R3D</pathurl>
															<rate>
																<timebase>30</timebase>
																<ntsc>TRUE</ntsc>
															</rate>
															<duration>14445</duration>
															<timecode>
																<rate>
																	<timebase>30</timebase>
																	<ntsc>TRUE</ntsc>
																</rate>
																<string>02:21:24:20</string>
																<frame>254540</frame>
																<displayformat>NDF</displayformat>
															</timecode>
															<media hasDiscreteStreams="true">
																<video>
																	<samplecharacteristics>
																		<rate>
																			<timebase>30</timebase>
																			<ntsc>TRUE</ntsc>
																		</rate>
																		<width>6144</width>
																		<height>3160</height>
																		<anamorphic>FALSE</anamorphic>
																		<pixelaspectratio>square</pixelaspectratio>
																		<fielddominance>none</fielddominance>
																	</samplecharacteristics>
																</video>
																<audio>
																	<samplecharacteristics>
																		<depth>16</depth>
																		<samplerate>48000</samplerate>
																	</samplecharacteristics>
																	<channelcount>1</channelcount>
																	<layout>mono</layout>
																	<audiochannel>
																		<sourcechannel>1</sourcechannel>
																		<channellabel>discrete</channellabel>
																	</audiochannel>
																</audio>
																<audio>
																	<samplecharacteristics>
																		<depth>16</depth>
																		<samplerate>48000</samplerate>
																	</samplecharacteristics>
																	<channelcount>1</channelcount>
																	<layout>mono</layout>
																	<audiochannel>
																		<sourcechannel>2</sourcechannel>
																		<channellabel>discrete</channellabel>
																	</audiochannel>
																</audio>
															</media>
														</file>
														<link>
															<linkclipref>clipitem-82</linkclipref>
															<mediatype>video</mediatype>
															<trackindex>1</trackindex>
															<clipindex>1</clipindex>
														</link>
														<link>
															<linkclipref>clipitem-83</linkclipref>
															<mediatype>audio</mediatype>
															<trackindex>1</trackindex>
															<clipindex>1</clipindex>
														</link>
														<link>
															<linkclipref>clipitem-84</linkclipref>
															<mediatype>audio</mediatype>
															<trackindex>2</trackindex>
															<clipindex>1</clipindex>
														</link>
													</clipitem>
												</track>
											</video>
											<audio>
												<track>
													<clipitem id="clipitem-83" frameBlend="FALSE">
														<masterclipid>masterclip-28</masterclipid>
														<name>C001_C002_0216K9_007.R3D</name>
														<rate>
															<timebase>30</timebase>
															<ntsc>TRUE</ntsc>
														</rate>
														<file id="file-28"/>
														<sourcetrack>
															<mediatype>audio</mediatype>
															<trackindex>1</trackindex>
														</sourcetrack>
														<link>
															<linkclipref>clipitem-82</linkclipref>
															<mediatype>video</mediatype>
															<trackindex>1</trackindex>
															<clipindex>1</clipindex>
														</link>
														<link>
															<linkclipref>clipitem-83</linkclipref>
															<mediatype>audio</mediatype>
															<trackindex>1</trackindex>
															<clipindex>1</clipindex>
														</link>
														<link>
															<linkclipref>clipitem-84</linkclipref>
															<mediatype>audio</mediatype>
															<trackindex>2</trackindex>
															<clipindex>1</clipindex>
														</link>
													</clipitem>
												</track>
												<track>
													<clipitem id="clipitem-84" frameBlend="FALSE">
														<masterclipid>masterclip-28</masterclipid>
														<name>C001_C002_0216K9_007.R3D</name>
														<rate>
															<timebase>30</timebase>
															<ntsc>TRUE</ntsc>
														</rate>
														<file id="file-28"/>
														<sourcetrack>
															<mediatype>audio</mediatype>
															<trackindex>2</trackindex>
														</sourcetrack>
														<link>
															<linkclipref>clipitem-82</linkclipref>
															<mediatype>video</mediatype>
															<trackindex>1</trackindex>
															<clipindex>1</clipindex>
														</link>
														<link>
															<linkclipref>clipitem-83</linkclipref>
															<mediatype>audio</mediatype>
															<trackindex>1</trackindex>
															<clipindex>1</clipindex>
														</link>
														<link>
															<linkclipref>clipitem-84</linkclipref>
															<mediatype>audio</mediatype>
															<trackindex>2</trackindex>
															<clipindex>1</clipindex>
														</link>
													</clipitem>
												</track>
											</audio>
										</media>
										<logginginfo>
											<description></description>
											<scene></scene>
											<shottake></shottake>
											<lognote>As Shot</lognote>
										</logginginfo>
										<labels>
										</labels>
									</clip>
									<clip id="masterclip-29" explodedTracks="true" frameBlend="FALSE">
										<uuid>e4a19a68-423c-4182-ab28-4461d3c4450e</uuid>
										<masterclipid>masterclip-29</masterclipid>
										<ismasterclip>TRUE</ismasterclip>
										<duration>14445</duration>
										<rate>
											<timebase>30</timebase>
											<ntsc>TRUE</ntsc>
										</rate>
										<name>C001_C002_0216K9_008.R3D</name>
										<media>
											<video>
												<track>
													<clipitem id="clipitem-85" frameBlend="FALSE">
														<masterclipid>masterclip-29</masterclipid>
														<name>C001_C002_0216K9_008.R3D</name>
														<rate>
															<timebase>30</timebase>
															<ntsc>TRUE</ntsc>
														</rate>
														<alphatype>none</alphatype>
														<pixelaspectratio>square</pixelaspectratio>
														<anamorphic>FALSE</anamorphic>
														<file id="file-29">
															<name>C001_C002_0216K9_008.R3D</name>
															<pathurl>file://localhost/Volumes/REDLAB_3A/SESQUI/MASTER_FILES/DAY_00/RED/R001/C001/C001_0216T0.RDM/C001_C002_0216K9.RDC/C001_C002_0216K9_008.R3D</pathurl>
															<rate>
																<timebase>30</timebase>
																<ntsc>TRUE</ntsc>
															</rate>
															<duration>14445</duration>
															<timecode>
																<rate>
																	<timebase>30</timebase>
																	<ntsc>TRUE</ntsc>
																</rate>
																<string>02:21:24:20</string>
																<frame>254540</frame>
																<displayformat>NDF</displayformat>
															</timecode>
															<media hasDiscreteStreams="true">
																<video>
																	<samplecharacteristics>
																		<rate>
																			<timebase>30</timebase>
																			<ntsc>TRUE</ntsc>
																		</rate>
																		<width>6144</width>
																		<height>3160</height>
																		<anamorphic>FALSE</anamorphic>
																		<pixelaspectratio>square</pixelaspectratio>
																		<fielddominance>none</fielddominance>
																	</samplecharacteristics>
																</video>
																<audio>
																	<samplecharacteristics>
																		<depth>16</depth>
																		<samplerate>48000</samplerate>
																	</samplecharacteristics>
																	<channelcount>1</channelcount>
																	<layout>mono</layout>
																	<audiochannel>
																		<sourcechannel>1</sourcechannel>
																		<channellabel>discrete</channellabel>
																	</audiochannel>
																</audio>
																<audio>
																	<samplecharacteristics>
																		<depth>16</depth>
																		<samplerate>48000</samplerate>
																	</samplecharacteristics>
																	<channelcount>1</channelcount>
																	<layout>mono</layout>
																	<audiochannel>
																		<sourcechannel>2</sourcechannel>
																		<channellabel>discrete</channellabel>
																	</audiochannel>
																</audio>
															</media>
														</file>
														<link>
															<linkclipref>clipitem-85</linkclipref>
															<mediatype>video</mediatype>
															<trackindex>1</trackindex>
															<clipindex>1</clipindex>
														</link>
														<link>
															<linkclipref>clipitem-86</linkclipref>
															<mediatype>audio</mediatype>
															<trackindex>1</trackindex>
															<clipindex>1</clipindex>
														</link>
														<link>
															<linkclipref>clipitem-87</linkclipref>
															<mediatype>audio</mediatype>
															<trackindex>2</trackindex>
															<clipindex>1</clipindex>
														</link>
													</clipitem>
												</track>
											</video>
											<audio>
												<track>
													<clipitem id="clipitem-86" frameBlend="FALSE">
														<masterclipid>masterclip-29</masterclipid>
														<name>C001_C002_0216K9_008.R3D</name>
														<rate>
															<timebase>30</timebase>
															<ntsc>TRUE</ntsc>
														</rate>
														<file id="file-29"/>
														<sourcetrack>
															<mediatype>audio</mediatype>
															<trackindex>1</trackindex>
														</sourcetrack>
														<link>
															<linkclipref>clipitem-85</linkclipref>
															<mediatype>video</mediatype>
															<trackindex>1</trackindex>
															<clipindex>1</clipindex>
														</link>
														<link>
															<linkclipref>clipitem-86</linkclipref>
															<mediatype>audio</mediatype>
															<trackindex>1</trackindex>
															<clipindex>1</clipindex>
														</link>
														<link>
															<linkclipref>clipitem-87</linkclipref>
															<mediatype>audio</mediatype>
															<trackindex>2</trackindex>
															<clipindex>1</clipindex>
														</link>
													</clipitem>
												</track>
												<track>
													<clipitem id="clipitem-87" frameBlend="FALSE">
														<masterclipid>masterclip-29</masterclipid>
														<name>C001_C002_0216K9_008.R3D</name>
														<rate>
															<timebase>30</timebase>
															<ntsc>TRUE</ntsc>
														</rate>
														<file id="file-29"/>
														<sourcetrack>
															<mediatype>audio</mediatype>
															<trackindex>2</trackindex>
														</sourcetrack>
														<link>
															<linkclipref>clipitem-85</linkclipref>
															<mediatype>video</mediatype>
															<trackindex>1</trackindex>
															<clipindex>1</clipindex>
														</link>
														<link>
															<linkclipref>clipitem-86</linkclipref>
															<mediatype>audio</mediatype>
															<trackindex>1</trackindex>
															<clipindex>1</clipindex>
														</link>
														<link>
															<linkclipref>clipitem-87</linkclipref>
															<mediatype>audio</mediatype>
															<trackindex>2</trackindex>
															<clipindex>1</clipindex>
														</link>
													</clipitem>
												</track>
											</audio>
										</media>
										<logginginfo>
											<description></description>
											<scene></scene>
											<shottake></shottake>
											<lognote>As Shot</lognote>
										</logginginfo>
										<labels>
										</labels>
									</clip>
									<clip id="masterclip-30" explodedTracks="true" frameBlend="FALSE">
										<uuid>edaa411e-9905-4487-9b1d-562e7b43cce7</uuid>
										<masterclipid>masterclip-30</masterclipid>
										<ismasterclip>TRUE</ismasterclip>
										<duration>14445</duration>
										<rate>
											<timebase>30</timebase>
											<ntsc>TRUE</ntsc>
										</rate>
										<name>C001_C002_0216K9_009.R3D</name>
										<media>
											<video>
												<track>
													<clipitem id="clipitem-88" frameBlend="FALSE">
														<masterclipid>masterclip-30</masterclipid>
														<name>C001_C002_0216K9_009.R3D</name>
														<rate>
															<timebase>30</timebase>
															<ntsc>TRUE</ntsc>
														</rate>
														<alphatype>none</alphatype>
														<pixelaspectratio>square</pixelaspectratio>
														<anamorphic>FALSE</anamorphic>
														<file id="file-30">
															<name>C001_C002_0216K9_009.R3D</name>
															<pathurl>file://localhost/Volumes/REDLAB_3A/SESQUI/MASTER_FILES/DAY_00/RED/R001/C001/C001_0216T0.RDM/C001_C002_0216K9.RDC/C001_C002_0216K9_009.R3D</pathurl>
															<rate>
																<timebase>30</timebase>
																<ntsc>TRUE</ntsc>
															</rate>
															<duration>14445</duration>
															<timecode>
																<rate>
																	<timebase>30</timebase>
																	<ntsc>TRUE</ntsc>
																</rate>
																<string>02:21:24:20</string>
																<frame>254540</frame>
																<displayformat>NDF</displayformat>
															</timecode>
															<media hasDiscreteStreams="true">
																<video>
																	<samplecharacteristics>
																		<rate>
																			<timebase>30</timebase>
																			<ntsc>TRUE</ntsc>
																		</rate>
																		<width>6144</width>
																		<height>3160</height>
																		<anamorphic>FALSE</anamorphic>
																		<pixelaspectratio>square</pixelaspectratio>
																		<fielddominance>none</fielddominance>
																	</samplecharacteristics>
																</video>
																<audio>
																	<samplecharacteristics>
																		<depth>16</depth>
																		<samplerate>48000</samplerate>
																	</samplecharacteristics>
																	<channelcount>1</channelcount>
																	<layout>mono</layout>
																	<audiochannel>
																		<sourcechannel>1</sourcechannel>
																		<channellabel>discrete</channellabel>
																	</audiochannel>
																</audio>
																<audio>
																	<samplecharacteristics>
																		<depth>16</depth>
																		<samplerate>48000</samplerate>
																	</samplecharacteristics>
																	<channelcount>1</channelcount>
																	<layout>mono</layout>
																	<audiochannel>
																		<sourcechannel>2</sourcechannel>
																		<channellabel>discrete</channellabel>
																	</audiochannel>
																</audio>
															</media>
														</file>
														<link>
															<linkclipref>clipitem-88</linkclipref>
															<mediatype>video</mediatype>
															<trackindex>1</trackindex>
															<clipindex>1</clipindex>
														</link>
														<link>
															<linkclipref>clipitem-89</linkclipref>
															<mediatype>audio</mediatype>
															<trackindex>1</trackindex>
															<clipindex>1</clipindex>
														</link>
														<link>
															<linkclipref>clipitem-90</linkclipref>
															<mediatype>audio</mediatype>
															<trackindex>2</trackindex>
															<clipindex>1</clipindex>
														</link>
													</clipitem>
												</track>
											</video>
											<audio>
												<track>
													<clipitem id="clipitem-89" frameBlend="FALSE">
														<masterclipid>masterclip-30</masterclipid>
														<name>C001_C002_0216K9_009.R3D</name>
														<rate>
															<timebase>30</timebase>
															<ntsc>TRUE</ntsc>
														</rate>
														<file id="file-30"/>
														<sourcetrack>
															<mediatype>audio</mediatype>
															<trackindex>1</trackindex>
														</sourcetrack>
														<link>
															<linkclipref>clipitem-88</linkclipref>
															<mediatype>video</mediatype>
															<trackindex>1</trackindex>
															<clipindex>1</clipindex>
														</link>
														<link>
															<linkclipref>clipitem-89</linkclipref>
															<mediatype>audio</mediatype>
															<trackindex>1</trackindex>
															<clipindex>1</clipindex>
														</link>
														<link>
															<linkclipref>clipitem-90</linkclipref>
															<mediatype>audio</mediatype>
															<trackindex>2</trackindex>
															<clipindex>1</clipindex>
														</link>
													</clipitem>
												</track>
												<track>
													<clipitem id="clipitem-90" frameBlend="FALSE">
														<masterclipid>masterclip-30</masterclipid>
														<name>C001_C002_0216K9_009.R3D</name>
														<rate>
															<timebase>30</timebase>
															<ntsc>TRUE</ntsc>
														</rate>
														<file id="file-30"/>
														<sourcetrack>
															<mediatype>audio</mediatype>
															<trackindex>2</trackindex>
														</sourcetrack>
														<link>
															<linkclipref>clipitem-88</linkclipref>
															<mediatype>video</mediatype>
															<trackindex>1</trackindex>
															<clipindex>1</clipindex>
														</link>
														<link>
															<linkclipref>clipitem-89</linkclipref>
															<mediatype>audio</mediatype>
															<trackindex>1</trackindex>
															<clipindex>1</clipindex>
														</link>
														<link>
															<linkclipref>clipitem-90</linkclipref>
															<mediatype>audio</mediatype>
															<trackindex>2</trackindex>
															<clipindex>1</clipindex>
														</link>
													</clipitem>
												</track>
											</audio>
										</media>
										<logginginfo>
											<description></description>
											<scene></scene>
											<shottake></shottake>
											<lognote>As Shot</lognote>
										</logginginfo>
										<labels>
										</labels>
									</clip>
									<clip id="masterclip-31" explodedTracks="true" frameBlend="FALSE">
										<uuid>221c4d08-705b-4ed0-bb73-fd0d57000598</uuid>
										<masterclipid>masterclip-31</masterclipid>
										<ismasterclip>TRUE</ismasterclip>
										<duration>14445</duration>
										<rate>
											<timebase>30</timebase>
											<ntsc>TRUE</ntsc>
										</rate>
										<name>C001_C002_0216K9_010.R3D</name>
										<media>
											<video>
												<track>
													<clipitem id="clipitem-91" frameBlend="FALSE">
														<masterclipid>masterclip-31</masterclipid>
														<name>C001_C002_0216K9_010.R3D</name>
														<rate>
															<timebase>30</timebase>
															<ntsc>TRUE</ntsc>
														</rate>
														<alphatype>none</alphatype>
														<pixelaspectratio>square</pixelaspectratio>
														<anamorphic>FALSE</anamorphic>
														<file id="file-31">
															<name>C001_C002_0216K9_010.R3D</name>
															<pathurl>file://localhost/Volumes/REDLAB_3A/SESQUI/MASTER_FILES/DAY_00/RED/R001/C001/C001_0216T0.RDM/C001_C002_0216K9.RDC/C001_C002_0216K9_010.R3D</pathurl>
															<rate>
																<timebase>30</timebase>
																<ntsc>TRUE</ntsc>
															</rate>
															<duration>14445</duration>
															<timecode>
																<rate>
																	<timebase>30</timebase>
																	<ntsc>TRUE</ntsc>
																</rate>
																<string>02:21:24:20</string>
																<frame>254540</frame>
																<displayformat>NDF</displayformat>
															</timecode>
															<media hasDiscreteStreams="true">
																<video>
																	<samplecharacteristics>
																		<rate>
																			<timebase>30</timebase>
																			<ntsc>TRUE</ntsc>
																		</rate>
																		<width>6144</width>
																		<height>3160</height>
																		<anamorphic>FALSE</anamorphic>
																		<pixelaspectratio>square</pixelaspectratio>
																		<fielddominance>none</fielddominance>
																	</samplecharacteristics>
																</video>
																<audio>
																	<samplecharacteristics>
																		<depth>16</depth>
																		<samplerate>48000</samplerate>
																	</samplecharacteristics>
																	<channelcount>1</channelcount>
																	<layout>mono</layout>
																	<audiochannel>
																		<sourcechannel>1</sourcechannel>
																		<channellabel>discrete</channellabel>
																	</audiochannel>
																</audio>
																<audio>
																	<samplecharacteristics>
																		<depth>16</depth>
																		<samplerate>48000</samplerate>
																	</samplecharacteristics>
																	<channelcount>1</channelcount>
																	<layout>mono</layout>
																	<audiochannel>
																		<sourcechannel>2</sourcechannel>
																		<channellabel>discrete</channellabel>
																	</audiochannel>
																</audio>
															</media>
														</file>
														<link>
															<linkclipref>clipitem-91</linkclipref>
															<mediatype>video</mediatype>
															<trackindex>1</trackindex>
															<clipindex>1</clipindex>
														</link>
														<link>
															<linkclipref>clipitem-92</linkclipref>
															<mediatype>audio</mediatype>
															<trackindex>1</trackindex>
															<clipindex>1</clipindex>
														</link>
														<link>
															<linkclipref>clipitem-93</linkclipref>
															<mediatype>audio</mediatype>
															<trackindex>2</trackindex>
															<clipindex>1</clipindex>
														</link>
													</clipitem>
												</track>
											</video>
											<audio>
												<track>
													<clipitem id="clipitem-92" frameBlend="FALSE">
														<masterclipid>masterclip-31</masterclipid>
														<name>C001_C002_0216K9_010.R3D</name>
														<rate>
															<timebase>30</timebase>
															<ntsc>TRUE</ntsc>
														</rate>
														<file id="file-31"/>
														<sourcetrack>
															<mediatype>audio</mediatype>
															<trackindex>1</trackindex>
														</sourcetrack>
														<link>
															<linkclipref>clipitem-91</linkclipref>
															<mediatype>video</mediatype>
															<trackindex>1</trackindex>
															<clipindex>1</clipindex>
														</link>
														<link>
															<linkclipref>clipitem-92</linkclipref>
															<mediatype>audio</mediatype>
															<trackindex>1</trackindex>
															<clipindex>1</clipindex>
														</link>
														<link>
															<linkclipref>clipitem-93</linkclipref>
															<mediatype>audio</mediatype>
															<trackindex>2</trackindex>
															<clipindex>1</clipindex>
														</link>
													</clipitem>
												</track>
												<track>
													<clipitem id="clipitem-93" frameBlend="FALSE">
														<masterclipid>masterclip-31</masterclipid>
														<name>C001_C002_0216K9_010.R3D</name>
														<rate>
															<timebase>30</timebase>
															<ntsc>TRUE</ntsc>
														</rate>
														<file id="file-31"/>
														<sourcetrack>
															<mediatype>audio</mediatype>
															<trackindex>2</trackindex>
														</sourcetrack>
														<link>
															<linkclipref>clipitem-91</linkclipref>
															<mediatype>video</mediatype>
															<trackindex>1</trackindex>
															<clipindex>1</clipindex>
														</link>
														<link>
															<linkclipref>clipitem-92</linkclipref>
															<mediatype>audio</mediatype>
															<trackindex>1</trackindex>
															<clipindex>1</clipindex>
														</link>
														<link>
															<linkclipref>clipitem-93</linkclipref>
															<mediatype>audio</mediatype>
															<trackindex>2</trackindex>
															<clipindex>1</clipindex>
														</link>
													</clipitem>
												</track>
											</audio>
										</media>
										<logginginfo>
											<description></description>
											<scene></scene>
											<shottake></shottake>
											<lognote>As Shot</lognote>
										</logginginfo>
										<labels>
										</labels>
									</clip>
									<clip id="masterclip-32" explodedTracks="true" frameBlend="FALSE">
										<uuid>0338238a-7a14-46c7-9851-c845c9520f08</uuid>
										<masterclipid>masterclip-32</masterclipid>
										<ismasterclip>TRUE</ismasterclip>
										<duration>14445</duration>
										<rate>
											<timebase>30</timebase>
											<ntsc>TRUE</ntsc>
										</rate>
										<name>C001_C002_0216K9_011.R3D</name>
										<media>
											<video>
												<track>
													<clipitem id="clipitem-94" frameBlend="FALSE">
														<masterclipid>masterclip-32</masterclipid>
														<name>C001_C002_0216K9_011.R3D</name>
														<rate>
															<timebase>30</timebase>
															<ntsc>TRUE</ntsc>
														</rate>
														<alphatype>none</alphatype>
														<pixelaspectratio>square</pixelaspectratio>
														<anamorphic>FALSE</anamorphic>
														<file id="file-32">
															<name>C001_C002_0216K9_011.R3D</name>
															<pathurl>file://localhost/Volumes/REDLAB_3A/SESQUI/MASTER_FILES/DAY_00/RED/R001/C001/C001_0216T0.RDM/C001_C002_0216K9.RDC/C001_C002_0216K9_011.R3D</pathurl>
															<rate>
																<timebase>30</timebase>
																<ntsc>TRUE</ntsc>
															</rate>
															<duration>14445</duration>
															<timecode>
																<rate>
																	<timebase>30</timebase>
																	<ntsc>TRUE</ntsc>
																</rate>
																<string>02:21:24:20</string>
																<frame>254540</frame>
																<displayformat>NDF</displayformat>
															</timecode>
															<media hasDiscreteStreams="true">
																<video>
																	<samplecharacteristics>
																		<rate>
																			<timebase>30</timebase>
																			<ntsc>TRUE</ntsc>
																		</rate>
																		<width>6144</width>
																		<height>3160</height>
																		<anamorphic>FALSE</anamorphic>
																		<pixelaspectratio>square</pixelaspectratio>
																		<fielddominance>none</fielddominance>
																	</samplecharacteristics>
																</video>
																<audio>
																	<samplecharacteristics>
																		<depth>16</depth>
																		<samplerate>48000</samplerate>
																	</samplecharacteristics>
																	<channelcount>1</channelcount>
																	<layout>mono</layout>
																	<audiochannel>
																		<sourcechannel>1</sourcechannel>
																		<channellabel>discrete</channellabel>
																	</audiochannel>
																</audio>
																<audio>
																	<samplecharacteristics>
																		<depth>16</depth>
																		<samplerate>48000</samplerate>
																	</samplecharacteristics>
																	<channelcount>1</channelcount>
																	<layout>mono</layout>
																	<audiochannel>
																		<sourcechannel>2</sourcechannel>
																		<channellabel>discrete</channellabel>
																	</audiochannel>
																</audio>
															</media>
														</file>
														<link>
															<linkclipref>clipitem-94</linkclipref>
															<mediatype>video</mediatype>
															<trackindex>1</trackindex>
															<clipindex>1</clipindex>
														</link>
														<link>
															<linkclipref>clipitem-95</linkclipref>
															<mediatype>audio</mediatype>
															<trackindex>1</trackindex>
															<clipindex>1</clipindex>
														</link>
														<link>
															<linkclipref>clipitem-96</linkclipref>
															<mediatype>audio</mediatype>
															<trackindex>2</trackindex>
															<clipindex>1</clipindex>
														</link>
													</clipitem>
												</track>
											</video>
											<audio>
												<track>
													<clipitem id="clipitem-95" frameBlend="FALSE">
														<masterclipid>masterclip-32</masterclipid>
														<name>C001_C002_0216K9_011.R3D</name>
														<rate>
															<timebase>30</timebase>
															<ntsc>TRUE</ntsc>
														</rate>
														<file id="file-32"/>
														<sourcetrack>
															<mediatype>audio</mediatype>
															<trackindex>1</trackindex>
														</sourcetrack>
														<link>
															<linkclipref>clipitem-94</linkclipref>
															<mediatype>video</mediatype>
															<trackindex>1</trackindex>
															<clipindex>1</clipindex>
														</link>
														<link>
															<linkclipref>clipitem-95</linkclipref>
															<mediatype>audio</mediatype>
															<trackindex>1</trackindex>
															<clipindex>1</clipindex>
														</link>
														<link>
															<linkclipref>clipitem-96</linkclipref>
															<mediatype>audio</mediatype>
															<trackindex>2</trackindex>
															<clipindex>1</clipindex>
														</link>
													</clipitem>
												</track>
												<track>
													<clipitem id="clipitem-96" frameBlend="FALSE">
														<masterclipid>masterclip-32</masterclipid>
														<name>C001_C002_0216K9_011.R3D</name>
														<rate>
															<timebase>30</timebase>
															<ntsc>TRUE</ntsc>
														</rate>
														<file id="file-32"/>
														<sourcetrack>
															<mediatype>audio</mediatype>
															<trackindex>2</trackindex>
														</sourcetrack>
														<link>
															<linkclipref>clipitem-94</linkclipref>
															<mediatype>video</mediatype>
															<trackindex>1</trackindex>
															<clipindex>1</clipindex>
														</link>
														<link>
															<linkclipref>clipitem-95</linkclipref>
															<mediatype>audio</mediatype>
															<trackindex>1</trackindex>
															<clipindex>1</clipindex>
														</link>
														<link>
															<linkclipref>clipitem-96</linkclipref>
															<mediatype>audio</mediatype>
															<trackindex>2</trackindex>
															<clipindex>1</clipindex>
														</link>
													</clipitem>
												</track>
											</audio>
										</media>
										<logginginfo>
											<description></description>
											<scene></scene>
											<shottake></shottake>
											<lognote>As Shot</lognote>
										</logginginfo>
										<labels>
										</labels>
									</clip>
								</children>
							</bin>
						</children>
					</bin>
				</children>
			</bin>
			<bin>
				<name>R002</name>
				<labels>
					<label2>Mango</label2>
				</labels>
				<children>
					<bin>
						<name>R002_C001</name>
						<labels>
							<label2>Mango</label2>
						</labels>
						<children>
							<clip id="masterclip-33" explodedTracks="true" frameBlend="FALSE">
								<uuid>9ef35082-7463-40b1-a20c-85a7cf6d44da</uuid>
								<masterclipid>masterclip-33</masterclipid>
								<ismasterclip>TRUE</ismasterclip>
								<duration>11135</duration>
								<rate>
									<timebase>30</timebase>
									<ntsc>TRUE</ntsc>
								</rate>
								<name>A003_C001_0216XI_001.R3D</name>
								<media>
									<video>
										<track>
											<clipitem id="clipitem-97" frameBlend="FALSE">
												<masterclipid>masterclip-33</masterclipid>
												<name>A003_C001_0216XI_001.R3D</name>
												<rate>
													<timebase>30</timebase>
													<ntsc>TRUE</ntsc>
												</rate>
												<alphatype>none</alphatype>
												<pixelaspectratio>square</pixelaspectratio>
												<anamorphic>FALSE</anamorphic>
												<file id="file-33">
													<name>A003_C001_0216XI_001.R3D</name>
													<pathurl>file://localhost/Volumes/REDLAB_3A/SESQUI/MASTER_FILES/DAY_00/RED/R002/A003/A003_0216XO.RDM/A003_C001_0216XI.RDC/A003_C001_0216XI_001.R3D</pathurl>
													<rate>
														<timebase>30</timebase>
														<ntsc>TRUE</ntsc>
													</rate>
													<duration>11135</duration>
													<timecode>
														<rate>
															<timebase>30</timebase>
															<ntsc>TRUE</ntsc>
														</rate>
														<string>02:59:23:02</string>
														<frame>322892</frame>
														<displayformat>NDF</displayformat>
													</timecode>
													<media hasDiscreteStreams="true">
														<video>
															<samplecharacteristics>
																<rate>
																	<timebase>30</timebase>
																	<ntsc>TRUE</ntsc>
																</rate>
																<width>6144</width>
																<height>3160</height>
																<anamorphic>FALSE</anamorphic>
																<pixelaspectratio>square</pixelaspectratio>
																<fielddominance>none</fielddominance>
															</samplecharacteristics>
														</video>
														<audio>
															<samplecharacteristics>
																<depth>16</depth>
																<samplerate>48000</samplerate>
															</samplecharacteristics>
															<channelcount>1</channelcount>
															<layout>mono</layout>
															<audiochannel>
																<sourcechannel>1</sourcechannel>
																<channellabel>discrete</channellabel>
															</audiochannel>
														</audio>
														<audio>
															<samplecharacteristics>
																<depth>16</depth>
																<samplerate>48000</samplerate>
															</samplecharacteristics>
															<channelcount>1</channelcount>
															<layout>mono</layout>
															<audiochannel>
																<sourcechannel>2</sourcechannel>
																<channellabel>discrete</channellabel>
															</audiochannel>
														</audio>
													</media>
												</file>
												<link>
													<linkclipref>clipitem-97</linkclipref>
													<mediatype>video</mediatype>
													<trackindex>1</trackindex>
													<clipindex>1</clipindex>
												</link>
												<link>
													<linkclipref>clipitem-98</linkclipref>
													<mediatype>audio</mediatype>
													<trackindex>1</trackindex>
													<clipindex>1</clipindex>
												</link>
												<link>
													<linkclipref>clipitem-99</linkclipref>
													<mediatype>audio</mediatype>
													<trackindex>2</trackindex>
													<clipindex>1</clipindex>
												</link>
											</clipitem>
										</track>
									</video>
									<audio>
										<track>
											<clipitem id="clipitem-98" frameBlend="FALSE">
												<masterclipid>masterclip-33</masterclipid>
												<name>A003_C001_0216XI_001.R3D</name>
												<rate>
													<timebase>30</timebase>
													<ntsc>TRUE</ntsc>
												</rate>
												<file id="file-33"/>
												<sourcetrack>
													<mediatype>audio</mediatype>
													<trackindex>1</trackindex>
												</sourcetrack>
												<link>
													<linkclipref>clipitem-97</linkclipref>
													<mediatype>video</mediatype>
													<trackindex>1</trackindex>
													<clipindex>1</clipindex>
												</link>
												<link>
													<linkclipref>clipitem-98</linkclipref>
													<mediatype>audio</mediatype>
													<trackindex>1</trackindex>
													<clipindex>1</clipindex>
												</link>
												<link>
													<linkclipref>clipitem-99</linkclipref>
													<mediatype>audio</mediatype>
													<trackindex>2</trackindex>
													<clipindex>1</clipindex>
												</link>
											</clipitem>
										</track>
										<track>
											<clipitem id="clipitem-99" frameBlend="FALSE">
												<masterclipid>masterclip-33</masterclipid>
												<name>A003_C001_0216XI_001.R3D</name>
												<rate>
													<timebase>30</timebase>
													<ntsc>TRUE</ntsc>
												</rate>
												<file id="file-33"/>
												<sourcetrack>
													<mediatype>audio</mediatype>
													<trackindex>2</trackindex>
												</sourcetrack>
												<link>
													<linkclipref>clipitem-97</linkclipref>
													<mediatype>video</mediatype>
													<trackindex>1</trackindex>
													<clipindex>1</clipindex>
												</link>
												<link>
													<linkclipref>clipitem-98</linkclipref>
													<mediatype>audio</mediatype>
													<trackindex>1</trackindex>
													<clipindex>1</clipindex>
												</link>
												<link>
													<linkclipref>clipitem-99</linkclipref>
													<mediatype>audio</mediatype>
													<trackindex>2</trackindex>
													<clipindex>1</clipindex>
												</link>
											</clipitem>
										</track>
									</audio>
								</media>
								<logginginfo>
									<description></description>
									<scene></scene>
									<shottake></shottake>
									<lognote>As Shot</lognote>
								</logginginfo>
								<labels>
									<label2>Iris</label2>
								</labels>
							</clip>
							<clip id="masterclip-34" explodedTracks="true" frameBlend="FALSE">
								<uuid>786f56ae-639e-47a9-98d1-b05ad12239c3</uuid>
								<masterclipid>masterclip-34</masterclipid>
								<ismasterclip>TRUE</ismasterclip>
								<duration>11045</duration>
								<rate>
									<timebase>30</timebase>
									<ntsc>TRUE</ntsc>
								</rate>
								<name>B002_C001_02169H_002.R3D</name>
								<media>
									<video>
										<track>
											<clipitem id="clipitem-100" frameBlend="FALSE">
												<masterclipid>masterclip-34</masterclipid>
												<name>B002_C001_02169H_002.R3D</name>
												<rate>
													<timebase>30</timebase>
													<ntsc>TRUE</ntsc>
												</rate>
												<alphatype>none</alphatype>
												<pixelaspectratio>square</pixelaspectratio>
												<anamorphic>FALSE</anamorphic>
												<file id="file-34">
													<name>B002_C001_02169H_002.R3D</name>
													<pathurl>file://localhost/Volumes/REDLAB_3A/SESQUI/MASTER_FILES/DAY_00/RED/R002/B002/B002_0216G4.RDM/B002_C001_02169H.RDC/B002_C001_02169H_002.R3D</pathurl>
													<rate>
														<timebase>30</timebase>
														<ntsc>TRUE</ntsc>
													</rate>
													<duration>11045</duration>
													<timecode>
														<rate>
															<timebase>30</timebase>
															<ntsc>TRUE</ntsc>
														</rate>
														<string>02:59:27:18</string>
														<frame>323028</frame>
														<displayformat>NDF</displayformat>
													</timecode>
													<media hasDiscreteStreams="true">
														<video>
															<samplecharacteristics>
																<rate>
																	<timebase>30</timebase>
																	<ntsc>TRUE</ntsc>
																</rate>
																<width>6144</width>
																<height>3160</height>
																<anamorphic>FALSE</anamorphic>
																<pixelaspectratio>square</pixelaspectratio>
																<fielddominance>none</fielddominance>
															</samplecharacteristics>
														</video>
														<audio>
															<samplecharacteristics>
																<depth>16</depth>
																<samplerate>48000</samplerate>
															</samplecharacteristics>
															<channelcount>1</channelcount>
															<layout>mono</layout>
															<audiochannel>
																<sourcechannel>1</sourcechannel>
																<channellabel>discrete</channellabel>
															</audiochannel>
														</audio>
														<audio>
															<samplecharacteristics>
																<depth>16</depth>
																<samplerate>48000</samplerate>
															</samplecharacteristics>
															<channelcount>1</channelcount>
															<layout>mono</layout>
															<audiochannel>
																<sourcechannel>2</sourcechannel>
																<channellabel>discrete</channellabel>
															</audiochannel>
														</audio>
													</media>
												</file>
												<link>
													<linkclipref>clipitem-100</linkclipref>
													<mediatype>video</mediatype>
													<trackindex>1</trackindex>
													<clipindex>1</clipindex>
												</link>
												<link>
													<linkclipref>clipitem-101</linkclipref>
													<mediatype>audio</mediatype>
													<trackindex>1</trackindex>
													<clipindex>1</clipindex>
												</link>
												<link>
													<linkclipref>clipitem-102</linkclipref>
													<mediatype>audio</mediatype>
													<trackindex>2</trackindex>
													<clipindex>1</clipindex>
												</link>
											</clipitem>
										</track>
									</video>
									<audio>
										<track>
											<clipitem id="clipitem-101" frameBlend="FALSE">
												<masterclipid>masterclip-34</masterclipid>
												<name>B002_C001_02169H_002.R3D</name>
												<rate>
													<timebase>30</timebase>
													<ntsc>TRUE</ntsc>
												</rate>
												<file id="file-34"/>
												<sourcetrack>
													<mediatype>audio</mediatype>
													<trackindex>1</trackindex>
												</sourcetrack>
												<link>
													<linkclipref>clipitem-100</linkclipref>
													<mediatype>video</mediatype>
													<trackindex>1</trackindex>
													<clipindex>1</clipindex>
												</link>
												<link>
													<linkclipref>clipitem-101</linkclipref>
													<mediatype>audio</mediatype>
													<trackindex>1</trackindex>
													<clipindex>1</clipindex>
												</link>
												<link>
													<linkclipref>clipitem-102</linkclipref>
													<mediatype>audio</mediatype>
													<trackindex>2</trackindex>
													<clipindex>1</clipindex>
												</link>
											</clipitem>
										</track>
										<track>
											<clipitem id="clipitem-102" frameBlend="FALSE">
												<masterclipid>masterclip-34</masterclipid>
												<name>B002_C001_02169H_002.R3D</name>
												<rate>
													<timebase>30</timebase>
													<ntsc>TRUE</ntsc>
												</rate>
												<file id="file-34"/>
												<sourcetrack>
													<mediatype>audio</mediatype>
													<trackindex>2</trackindex>
												</sourcetrack>
												<link>
													<linkclipref>clipitem-100</linkclipref>
													<mediatype>video</mediatype>
													<trackindex>1</trackindex>
													<clipindex>1</clipindex>
												</link>
												<link>
													<linkclipref>clipitem-101</linkclipref>
													<mediatype>audio</mediatype>
													<trackindex>1</trackindex>
													<clipindex>1</clipindex>
												</link>
												<link>
													<linkclipref>clipitem-102</linkclipref>
													<mediatype>audio</mediatype>
													<trackindex>2</trackindex>
													<clipindex>1</clipindex>
												</link>
											</clipitem>
										</track>
									</audio>
								</media>
								<logginginfo>
									<description></description>
									<scene></scene>
									<shottake></shottake>
									<lognote>As Shot</lognote>
								</logginginfo>
								<labels>
									<label2>Iris</label2>
								</labels>
							</clip>
							<clip id="masterclip-35" explodedTracks="true" frameBlend="FALSE">
								<uuid>2ffe87f7-c20c-45d1-9a3f-3d8f09dc5954</uuid>
								<masterclipid>masterclip-35</masterclipid>
								<ismasterclip>TRUE</ismasterclip>
								<duration>10995</duration>
								<rate>
									<timebase>30</timebase>
									<ntsc>TRUE</ntsc>
								</rate>
								<name>C002_C001_02168R_001.R3D</name>
								<media>
									<video>
										<track>
											<clipitem id="clipitem-103" frameBlend="FALSE">
												<masterclipid>masterclip-35</masterclipid>
												<name>C002_C001_02168R_001.R3D</name>
												<rate>
													<timebase>30</timebase>
													<ntsc>TRUE</ntsc>
												</rate>
												<alphatype>none</alphatype>
												<pixelaspectratio>square</pixelaspectratio>
												<anamorphic>FALSE</anamorphic>
												<file id="file-35">
													<name>C002_C001_02168R_001.R3D</name>
													<pathurl>file://localhost/Volumes/REDLAB_3A/SESQUI/MASTER_FILES/DAY_00/RED/R002/C002/C002_0216RL.RDM/C002_C001_02168R.RDC/C002_C001_02168R_001.R3D</pathurl>
													<rate>
														<timebase>30</timebase>
														<ntsc>TRUE</ntsc>
													</rate>
													<duration>10995</duration>
													<timecode>
														<rate>
															<timebase>30</timebase>
															<ntsc>TRUE</ntsc>
														</rate>
														<string>02:59:25:04</string>
														<frame>322954</frame>
														<displayformat>NDF</displayformat>
													</timecode>
													<media hasDiscreteStreams="true">
														<video>
															<samplecharacteristics>
																<rate>
																	<timebase>30</timebase>
																	<ntsc>TRUE</ntsc>
																</rate>
																<width>6144</width>
																<height>3160</height>
																<anamorphic>FALSE</anamorphic>
																<pixelaspectratio>square</pixelaspectratio>
																<fielddominance>none</fielddominance>
															</samplecharacteristics>
														</video>
														<audio>
															<samplecharacteristics>
																<depth>16</depth>
																<samplerate>48000</samplerate>
															</samplecharacteristics>
															<channelcount>1</channelcount>
															<layout>mono</layout>
															<audiochannel>
																<sourcechannel>1</sourcechannel>
																<channellabel>discrete</channellabel>
															</audiochannel>
														</audio>
														<audio>
															<samplecharacteristics>
																<depth>16</depth>
																<samplerate>48000</samplerate>
															</samplecharacteristics>
															<channelcount>1</channelcount>
															<layout>mono</layout>
															<audiochannel>
																<sourcechannel>2</sourcechannel>
																<channellabel>discrete</channellabel>
															</audiochannel>
														</audio>
													</media>
												</file>
												<link>
													<linkclipref>clipitem-103</linkclipref>
													<mediatype>video</mediatype>
													<trackindex>1</trackindex>
													<clipindex>1</clipindex>
												</link>
												<link>
													<linkclipref>clipitem-104</linkclipref>
													<mediatype>audio</mediatype>
													<trackindex>1</trackindex>
													<clipindex>1</clipindex>
												</link>
												<link>
													<linkclipref>clipitem-105</linkclipref>
													<mediatype>audio</mediatype>
													<trackindex>2</trackindex>
													<clipindex>1</clipindex>
												</link>
											</clipitem>
										</track>
									</video>
									<audio>
										<track>
											<clipitem id="clipitem-104" frameBlend="FALSE">
												<masterclipid>masterclip-35</masterclipid>
												<name>C002_C001_02168R_001.R3D</name>
												<rate>
													<timebase>30</timebase>
													<ntsc>TRUE</ntsc>
												</rate>
												<file id="file-35"/>
												<sourcetrack>
													<mediatype>audio</mediatype>
													<trackindex>1</trackindex>
												</sourcetrack>
												<link>
													<linkclipref>clipitem-103</linkclipref>
													<mediatype>video</mediatype>
													<trackindex>1</trackindex>
													<clipindex>1</clipindex>
												</link>
												<link>
													<linkclipref>clipitem-104</linkclipref>
													<mediatype>audio</mediatype>
													<trackindex>1</trackindex>
													<clipindex>1</clipindex>
												</link>
												<link>
													<linkclipref>clipitem-105</linkclipref>
													<mediatype>audio</mediatype>
													<trackindex>2</trackindex>
													<clipindex>1</clipindex>
												</link>
											</clipitem>
										</track>
										<track>
											<clipitem id="clipitem-105" frameBlend="FALSE">
												<masterclipid>masterclip-35</masterclipid>
												<name>C002_C001_02168R_001.R3D</name>
												<rate>
													<timebase>30</timebase>
													<ntsc>TRUE</ntsc>
												</rate>
												<file id="file-35"/>
												<sourcetrack>
													<mediatype>audio</mediatype>
													<trackindex>2</trackindex>
												</sourcetrack>
												<link>
													<linkclipref>clipitem-103</linkclipref>
													<mediatype>video</mediatype>
													<trackindex>1</trackindex>
													<clipindex>1</clipindex>
												</link>
												<link>
													<linkclipref>clipitem-104</linkclipref>
													<mediatype>audio</mediatype>
													<trackindex>1</trackindex>
													<clipindex>1</clipindex>
												</link>
												<link>
													<linkclipref>clipitem-105</linkclipref>
													<mediatype>audio</mediatype>
													<trackindex>2</trackindex>
													<clipindex>1</clipindex>
												</link>
											</clipitem>
										</track>
									</audio>
								</media>
								<logginginfo>
									<description></description>
									<scene></scene>
									<shottake></shottake>
									<lognote>As Shot</lognote>
								</logginginfo>
								<labels>
									<label2>Iris</label2>
								</labels>
							</clip>
						</children>
					</bin>
					<bin>
						<name>R002_C002</name>
						<labels>
							<label2>Mango</label2>
						</labels>
						<children>
							<bin>
								<name>C002_C002_0216M9.RDC</name>
								<labels>
									<label2>Mango</label2>
								</labels>
								<children>
									<clip id="masterclip-36" explodedTracks="true" frameBlend="FALSE">
										<uuid>51179a6e-b09a-4f66-8800-43ddb13e57fd</uuid>
										<masterclipid>masterclip-36</masterclipid>
										<ismasterclip>TRUE</ismasterclip>
										<duration>5430</duration>
										<rate>
											<timebase>30</timebase>
											<ntsc>TRUE</ntsc>
										</rate>
										<name>C002_C002_0216M9_001.R3D</name>
										<media>
											<video>
												<track>
													<clipitem id="clipitem-106" frameBlend="FALSE">
														<masterclipid>masterclip-36</masterclipid>
														<name>C002_C002_0216M9_001.R3D</name>
														<rate>
															<timebase>30</timebase>
															<ntsc>TRUE</ntsc>
														</rate>
														<alphatype>none</alphatype>
														<pixelaspectratio>square</pixelaspectratio>
														<anamorphic>FALSE</anamorphic>
														<file id="file-36">
															<name>C002_C002_0216M9_001.R3D</name>
															<pathurl>file://localhost/Volumes/REDLAB_3A/SESQUI/MASTER_FILES/DAY_00/RED/R002/C002/C002_0216RL.RDM/C002_C002_0216M9.RDC/C002_C002_0216M9_001.R3D</pathurl>
															<rate>
																<timebase>30</timebase>
																<ntsc>TRUE</ntsc>
															</rate>
															<duration>5430</duration>
															<timecode>
																<rate>
																	<timebase>30</timebase>
																	<ntsc>TRUE</ntsc>
																</rate>
																<string>03:20:30:01</string>
																<frame>360901</frame>
																<displayformat>NDF</displayformat>
															</timecode>
															<media hasDiscreteStreams="true">
																<video>
																	<samplecharacteristics>
																		<rate>
																			<timebase>30</timebase>
																			<ntsc>TRUE</ntsc>
																		</rate>
																		<width>6144</width>
																		<height>3160</height>
																		<anamorphic>FALSE</anamorphic>
																		<pixelaspectratio>square</pixelaspectratio>
																		<fielddominance>none</fielddominance>
																	</samplecharacteristics>
																</video>
																<audio>
																	<samplecharacteristics>
																		<depth>16</depth>
																		<samplerate>48000</samplerate>
																	</samplecharacteristics>
																	<channelcount>1</channelcount>
																	<layout>mono</layout>
																	<audiochannel>
																		<sourcechannel>1</sourcechannel>
																		<channellabel>discrete</channellabel>
																	</audiochannel>
																</audio>
																<audio>
																	<samplecharacteristics>
																		<depth>16</depth>
																		<samplerate>48000</samplerate>
																	</samplecharacteristics>
																	<channelcount>1</channelcount>
																	<layout>mono</layout>
																	<audiochannel>
																		<sourcechannel>2</sourcechannel>
																		<channellabel>discrete</channellabel>
																	</audiochannel>
																</audio>
															</media>
														</file>
														<link>
															<linkclipref>clipitem-106</linkclipref>
															<mediatype>video</mediatype>
															<trackindex>1</trackindex>
															<clipindex>1</clipindex>
														</link>
														<link>
															<linkclipref>clipitem-107</linkclipref>
															<mediatype>audio</mediatype>
															<trackindex>1</trackindex>
															<clipindex>1</clipindex>
														</link>
														<link>
															<linkclipref>clipitem-108</linkclipref>
															<mediatype>audio</mediatype>
															<trackindex>2</trackindex>
															<clipindex>1</clipindex>
														</link>
													</clipitem>
												</track>
											</video>
											<audio>
												<track>
													<clipitem id="clipitem-107" frameBlend="FALSE">
														<masterclipid>masterclip-36</masterclipid>
														<name>C002_C002_0216M9_001.R3D</name>
														<rate>
															<timebase>30</timebase>
															<ntsc>TRUE</ntsc>
														</rate>
														<file id="file-36"/>
														<sourcetrack>
															<mediatype>audio</mediatype>
															<trackindex>1</trackindex>
														</sourcetrack>
														<link>
															<linkclipref>clipitem-106</linkclipref>
															<mediatype>video</mediatype>
															<trackindex>1</trackindex>
															<clipindex>1</clipindex>
														</link>
														<link>
															<linkclipref>clipitem-107</linkclipref>
															<mediatype>audio</mediatype>
															<trackindex>1</trackindex>
															<clipindex>1</clipindex>
														</link>
														<link>
															<linkclipref>clipitem-108</linkclipref>
															<mediatype>audio</mediatype>
															<trackindex>2</trackindex>
															<clipindex>1</clipindex>
														</link>
													</clipitem>
												</track>
												<track>
													<clipitem id="clipitem-108" frameBlend="FALSE">
														<masterclipid>masterclip-36</masterclipid>
														<name>C002_C002_0216M9_001.R3D</name>
														<rate>
															<timebase>30</timebase>
															<ntsc>TRUE</ntsc>
														</rate>
														<file id="file-36"/>
														<sourcetrack>
															<mediatype>audio</mediatype>
															<trackindex>2</trackindex>
														</sourcetrack>
														<link>
															<linkclipref>clipitem-106</linkclipref>
															<mediatype>video</mediatype>
															<trackindex>1</trackindex>
															<clipindex>1</clipindex>
														</link>
														<link>
															<linkclipref>clipitem-107</linkclipref>
															<mediatype>audio</mediatype>
															<trackindex>1</trackindex>
															<clipindex>1</clipindex>
														</link>
														<link>
															<linkclipref>clipitem-108</linkclipref>
															<mediatype>audio</mediatype>
															<trackindex>2</trackindex>
															<clipindex>1</clipindex>
														</link>
													</clipitem>
												</track>
											</audio>
										</media>
										<logginginfo>
											<description></description>
											<scene></scene>
											<shottake></shottake>
											<lognote>As Shot</lognote>
										</logginginfo>
										<labels>
										</labels>
									</clip>
									<clip id="masterclip-37" explodedTracks="true" frameBlend="FALSE">
										<uuid>9f4d7ac2-26cb-4ad6-9b87-845ec781c225</uuid>
										<masterclipid>masterclip-37</masterclipid>
										<ismasterclip>TRUE</ismasterclip>
										<duration>5430</duration>
										<rate>
											<timebase>30</timebase>
											<ntsc>TRUE</ntsc>
										</rate>
										<name>C002_C002_0216M9_002.R3D</name>
										<media>
											<video>
												<track>
													<clipitem id="clipitem-109" frameBlend="FALSE">
														<masterclipid>masterclip-37</masterclipid>
														<name>C002_C002_0216M9_002.R3D</name>
														<rate>
															<timebase>30</timebase>
															<ntsc>TRUE</ntsc>
														</rate>
														<alphatype>none</alphatype>
														<pixelaspectratio>square</pixelaspectratio>
														<anamorphic>FALSE</anamorphic>
														<file id="file-37">
															<name>C002_C002_0216M9_002.R3D</name>
															<pathurl>file://localhost/Volumes/REDLAB_3A/SESQUI/MASTER_FILES/DAY_00/RED/R002/C002/C002_0216RL.RDM/C002_C002_0216M9.RDC/C002_C002_0216M9_002.R3D</pathurl>
															<rate>
																<timebase>30</timebase>
																<ntsc>TRUE</ntsc>
															</rate>
															<duration>5430</duration>
															<timecode>
																<rate>
																	<timebase>30</timebase>
																	<ntsc>TRUE</ntsc>
																</rate>
																<string>03:20:30:01</string>
																<frame>360901</frame>
																<displayformat>NDF</displayformat>
															</timecode>
															<media hasDiscreteStreams="true">
																<video>
																	<samplecharacteristics>
																		<rate>
																			<timebase>30</timebase>
																			<ntsc>TRUE</ntsc>
																		</rate>
																		<width>6144</width>
																		<height>3160</height>
																		<anamorphic>FALSE</anamorphic>
																		<pixelaspectratio>square</pixelaspectratio>
																		<fielddominance>none</fielddominance>
																	</samplecharacteristics>
																</video>
																<audio>
																	<samplecharacteristics>
																		<depth>16</depth>
																		<samplerate>48000</samplerate>
																	</samplecharacteristics>
																	<channelcount>1</channelcount>
																	<layout>mono</layout>
																	<audiochannel>
																		<sourcechannel>1</sourcechannel>
																		<channellabel>discrete</channellabel>
																	</audiochannel>
																</audio>
																<audio>
																	<samplecharacteristics>
																		<depth>16</depth>
																		<samplerate>48000</samplerate>
																	</samplecharacteristics>
																	<channelcount>1</channelcount>
																	<layout>mono</layout>
																	<audiochannel>
																		<sourcechannel>2</sourcechannel>
																		<channellabel>discrete</channellabel>
																	</audiochannel>
																</audio>
															</media>
														</file>
														<link>
															<linkclipref>clipitem-109</linkclipref>
															<mediatype>video</mediatype>
															<trackindex>1</trackindex>
															<clipindex>1</clipindex>
														</link>
														<link>
															<linkclipref>clipitem-110</linkclipref>
															<mediatype>audio</mediatype>
															<trackindex>1</trackindex>
															<clipindex>1</clipindex>
														</link>
														<link>
															<linkclipref>clipitem-111</linkclipref>
															<mediatype>audio</mediatype>
															<trackindex>2</trackindex>
															<clipindex>1</clipindex>
														</link>
													</clipitem>
												</track>
											</video>
											<audio>
												<track>
													<clipitem id="clipitem-110" frameBlend="FALSE">
														<masterclipid>masterclip-37</masterclipid>
														<name>C002_C002_0216M9_002.R3D</name>
														<rate>
															<timebase>30</timebase>
															<ntsc>TRUE</ntsc>
														</rate>
														<file id="file-37"/>
														<sourcetrack>
															<mediatype>audio</mediatype>
															<trackindex>1</trackindex>
														</sourcetrack>
														<link>
															<linkclipref>clipitem-109</linkclipref>
															<mediatype>video</mediatype>
															<trackindex>1</trackindex>
															<clipindex>1</clipindex>
														</link>
														<link>
															<linkclipref>clipitem-110</linkclipref>
															<mediatype>audio</mediatype>
															<trackindex>1</trackindex>
															<clipindex>1</clipindex>
														</link>
														<link>
															<linkclipref>clipitem-111</linkclipref>
															<mediatype>audio</mediatype>
															<trackindex>2</trackindex>
															<clipindex>1</clipindex>
														</link>
													</clipitem>
												</track>
												<track>
													<clipitem id="clipitem-111" frameBlend="FALSE">
														<masterclipid>masterclip-37</masterclipid>
														<name>C002_C002_0216M9_002.R3D</name>
														<rate>
															<timebase>30</timebase>
															<ntsc>TRUE</ntsc>
														</rate>
														<file id="file-37"/>
														<sourcetrack>
															<mediatype>audio</mediatype>
															<trackindex>2</trackindex>
														</sourcetrack>
														<link>
															<linkclipref>clipitem-109</linkclipref>
															<mediatype>video</mediatype>
															<trackindex>1</trackindex>
															<clipindex>1</clipindex>
														</link>
														<link>
															<linkclipref>clipitem-110</linkclipref>
															<mediatype>audio</mediatype>
															<trackindex>1</trackindex>
															<clipindex>1</clipindex>
														</link>
														<link>
															<linkclipref>clipitem-111</linkclipref>
															<mediatype>audio</mediatype>
															<trackindex>2</trackindex>
															<clipindex>1</clipindex>
														</link>
													</clipitem>
												</track>
											</audio>
										</media>
										<logginginfo>
											<description></description>
											<scene></scene>
											<shottake></shottake>
											<lognote>As Shot</lognote>
										</logginginfo>
										<labels>
										</labels>
									</clip>
									<clip id="masterclip-38" explodedTracks="true" frameBlend="FALSE">
										<uuid>040aa1b3-29ba-4159-a327-b2d0e9bd79db</uuid>
										<masterclipid>masterclip-38</masterclipid>
										<ismasterclip>TRUE</ismasterclip>
										<duration>5430</duration>
										<rate>
											<timebase>30</timebase>
											<ntsc>TRUE</ntsc>
										</rate>
										<name>C002_C002_0216M9_003.R3D</name>
										<media>
											<video>
												<track>
													<clipitem id="clipitem-112" frameBlend="FALSE">
														<masterclipid>masterclip-38</masterclipid>
														<name>C002_C002_0216M9_003.R3D</name>
														<rate>
															<timebase>30</timebase>
															<ntsc>TRUE</ntsc>
														</rate>
														<alphatype>none</alphatype>
														<pixelaspectratio>square</pixelaspectratio>
														<anamorphic>FALSE</anamorphic>
														<file id="file-38">
															<name>C002_C002_0216M9_003.R3D</name>
															<pathurl>file://localhost/Volumes/REDLAB_3A/SESQUI/MASTER_FILES/DAY_00/RED/R002/C002/C002_0216RL.RDM/C002_C002_0216M9.RDC/C002_C002_0216M9_003.R3D</pathurl>
															<rate>
																<timebase>30</timebase>
																<ntsc>TRUE</ntsc>
															</rate>
															<duration>5430</duration>
															<timecode>
																<rate>
																	<timebase>30</timebase>
																	<ntsc>TRUE</ntsc>
																</rate>
																<string>03:20:30:01</string>
																<frame>360901</frame>
																<displayformat>NDF</displayformat>
															</timecode>
															<media hasDiscreteStreams="true">
																<video>
																	<samplecharacteristics>
																		<rate>
																			<timebase>30</timebase>
																			<ntsc>TRUE</ntsc>
																		</rate>
																		<width>6144</width>
																		<height>3160</height>
																		<anamorphic>FALSE</anamorphic>
																		<pixelaspectratio>square</pixelaspectratio>
																		<fielddominance>none</fielddominance>
																	</samplecharacteristics>
																</video>
																<audio>
																	<samplecharacteristics>
																		<depth>16</depth>
																		<samplerate>48000</samplerate>
																	</samplecharacteristics>
																	<channelcount>1</channelcount>
																	<layout>mono</layout>
																	<audiochannel>
																		<sourcechannel>1</sourcechannel>
																		<channellabel>discrete</channellabel>
																	</audiochannel>
																</audio>
																<audio>
																	<samplecharacteristics>
																		<depth>16</depth>
																		<samplerate>48000</samplerate>
																	</samplecharacteristics>
																	<channelcount>1</channelcount>
																	<layout>mono</layout>
																	<audiochannel>
																		<sourcechannel>2</sourcechannel>
																		<channellabel>discrete</channellabel>
																	</audiochannel>
																</audio>
															</media>
														</file>
														<link>
															<linkclipref>clipitem-112</linkclipref>
															<mediatype>video</mediatype>
															<trackindex>1</trackindex>
															<clipindex>1</clipindex>
														</link>
														<link>
															<linkclipref>clipitem-113</linkclipref>
															<mediatype>audio</mediatype>
															<trackindex>1</trackindex>
															<clipindex>1</clipindex>
														</link>
														<link>
															<linkclipref>clipitem-114</linkclipref>
															<mediatype>audio</mediatype>
															<trackindex>2</trackindex>
															<clipindex>1</clipindex>
														</link>
													</clipitem>
												</track>
											</video>
											<audio>
												<track>
													<clipitem id="clipitem-113" frameBlend="FALSE">
														<masterclipid>masterclip-38</masterclipid>
														<name>C002_C002_0216M9_003.R3D</name>
														<rate>
															<timebase>30</timebase>
															<ntsc>TRUE</ntsc>
														</rate>
														<file id="file-38"/>
														<sourcetrack>
															<mediatype>audio</mediatype>
															<trackindex>1</trackindex>
														</sourcetrack>
														<link>
															<linkclipref>clipitem-112</linkclipref>
															<mediatype>video</mediatype>
															<trackindex>1</trackindex>
															<clipindex>1</clipindex>
														</link>
														<link>
															<linkclipref>clipitem-113</linkclipref>
															<mediatype>audio</mediatype>
															<trackindex>1</trackindex>
															<clipindex>1</clipindex>
														</link>
														<link>
															<linkclipref>clipitem-114</linkclipref>
															<mediatype>audio</mediatype>
															<trackindex>2</trackindex>
															<clipindex>1</clipindex>
														</link>
													</clipitem>
												</track>
												<track>
													<clipitem id="clipitem-114" frameBlend="FALSE">
														<masterclipid>masterclip-38</masterclipid>
														<name>C002_C002_0216M9_003.R3D</name>
														<rate>
															<timebase>30</timebase>
															<ntsc>TRUE</ntsc>
														</rate>
														<file id="file-38"/>
														<sourcetrack>
															<mediatype>audio</mediatype>
															<trackindex>2</trackindex>
														</sourcetrack>
														<link>
															<linkclipref>clipitem-112</linkclipref>
															<mediatype>video</mediatype>
															<trackindex>1</trackindex>
															<clipindex>1</clipindex>
														</link>
														<link>
															<linkclipref>clipitem-113</linkclipref>
															<mediatype>audio</mediatype>
															<trackindex>1</trackindex>
															<clipindex>1</clipindex>
														</link>
														<link>
															<linkclipref>clipitem-114</linkclipref>
															<mediatype>audio</mediatype>
															<trackindex>2</trackindex>
															<clipindex>1</clipindex>
														</link>
													</clipitem>
												</track>
											</audio>
										</media>
										<logginginfo>
											<description></description>
											<scene></scene>
											<shottake></shottake>
											<lognote>As Shot</lognote>
										</logginginfo>
										<labels>
										</labels>
									</clip>
									<clip id="masterclip-39" explodedTracks="true" frameBlend="FALSE">
										<uuid>fd95e64f-7f42-4e38-b69b-f9da8ae0fa63</uuid>
										<masterclipid>masterclip-39</masterclipid>
										<ismasterclip>TRUE</ismasterclip>
										<duration>5430</duration>
										<rate>
											<timebase>30</timebase>
											<ntsc>TRUE</ntsc>
										</rate>
										<name>C002_C002_0216M9_004.R3D</name>
										<media>
											<video>
												<track>
													<clipitem id="clipitem-115" frameBlend="FALSE">
														<masterclipid>masterclip-39</masterclipid>
														<name>C002_C002_0216M9_004.R3D</name>
														<rate>
															<timebase>30</timebase>
															<ntsc>TRUE</ntsc>
														</rate>
														<alphatype>none</alphatype>
														<pixelaspectratio>square</pixelaspectratio>
														<anamorphic>FALSE</anamorphic>
														<file id="file-39">
															<name>C002_C002_0216M9_004.R3D</name>
															<pathurl>file://localhost/Volumes/REDLAB_3A/SESQUI/MASTER_FILES/DAY_00/RED/R002/C002/C002_0216RL.RDM/C002_C002_0216M9.RDC/C002_C002_0216M9_004.R3D</pathurl>
															<rate>
																<timebase>30</timebase>
																<ntsc>TRUE</ntsc>
															</rate>
															<duration>5430</duration>
															<timecode>
																<rate>
																	<timebase>30</timebase>
																	<ntsc>TRUE</ntsc>
																</rate>
																<string>03:20:30:01</string>
																<frame>360901</frame>
																<displayformat>NDF</displayformat>
															</timecode>
															<media hasDiscreteStreams="true">
																<video>
																	<samplecharacteristics>
																		<rate>
																			<timebase>30</timebase>
																			<ntsc>TRUE</ntsc>
																		</rate>
																		<width>6144</width>
																		<height>3160</height>
																		<anamorphic>FALSE</anamorphic>
																		<pixelaspectratio>square</pixelaspectratio>
																		<fielddominance>none</fielddominance>
																	</samplecharacteristics>
																</video>
																<audio>
																	<samplecharacteristics>
																		<depth>16</depth>
																		<samplerate>48000</samplerate>
																	</samplecharacteristics>
																	<channelcount>1</channelcount>
																	<layout>mono</layout>
																	<audiochannel>
																		<sourcechannel>1</sourcechannel>
																		<channellabel>discrete</channellabel>
																	</audiochannel>
																</audio>
																<audio>
																	<samplecharacteristics>
																		<depth>16</depth>
																		<samplerate>48000</samplerate>
																	</samplecharacteristics>
																	<channelcount>1</channelcount>
																	<layout>mono</layout>
																	<audiochannel>
																		<sourcechannel>2</sourcechannel>
																		<channellabel>discrete</channellabel>
																	</audiochannel>
																</audio>
															</media>
														</file>
														<link>
															<linkclipref>clipitem-115</linkclipref>
															<mediatype>video</mediatype>
															<trackindex>1</trackindex>
															<clipindex>1</clipindex>
														</link>
														<link>
															<linkclipref>clipitem-116</linkclipref>
															<mediatype>audio</mediatype>
															<trackindex>1</trackindex>
															<clipindex>1</clipindex>
														</link>
														<link>
															<linkclipref>clipitem-117</linkclipref>
															<mediatype>audio</mediatype>
															<trackindex>2</trackindex>
															<clipindex>1</clipindex>
														</link>
													</clipitem>
												</track>
											</video>
											<audio>
												<track>
													<clipitem id="clipitem-116" frameBlend="FALSE">
														<masterclipid>masterclip-39</masterclipid>
														<name>C002_C002_0216M9_004.R3D</name>
														<rate>
															<timebase>30</timebase>
															<ntsc>TRUE</ntsc>
														</rate>
														<file id="file-39"/>
														<sourcetrack>
															<mediatype>audio</mediatype>
															<trackindex>1</trackindex>
														</sourcetrack>
														<link>
															<linkclipref>clipitem-115</linkclipref>
															<mediatype>video</mediatype>
															<trackindex>1</trackindex>
															<clipindex>1</clipindex>
														</link>
														<link>
															<linkclipref>clipitem-116</linkclipref>
															<mediatype>audio</mediatype>
															<trackindex>1</trackindex>
															<clipindex>1</clipindex>
														</link>
														<link>
															<linkclipref>clipitem-117</linkclipref>
															<mediatype>audio</mediatype>
															<trackindex>2</trackindex>
															<clipindex>1</clipindex>
														</link>
													</clipitem>
												</track>
												<track>
													<clipitem id="clipitem-117" frameBlend="FALSE">
														<masterclipid>masterclip-39</masterclipid>
														<name>C002_C002_0216M9_004.R3D</name>
														<rate>
															<timebase>30</timebase>
															<ntsc>TRUE</ntsc>
														</rate>
														<file id="file-39"/>
														<sourcetrack>
															<mediatype>audio</mediatype>
															<trackindex>2</trackindex>
														</sourcetrack>
														<link>
															<linkclipref>clipitem-115</linkclipref>
															<mediatype>video</mediatype>
															<trackindex>1</trackindex>
															<clipindex>1</clipindex>
														</link>
														<link>
															<linkclipref>clipitem-116</linkclipref>
															<mediatype>audio</mediatype>
															<trackindex>1</trackindex>
															<clipindex>1</clipindex>
														</link>
														<link>
															<linkclipref>clipitem-117</linkclipref>
															<mediatype>audio</mediatype>
															<trackindex>2</trackindex>
															<clipindex>1</clipindex>
														</link>
													</clipitem>
												</track>
											</audio>
										</media>
										<logginginfo>
											<description></description>
											<scene></scene>
											<shottake></shottake>
											<lognote>As Shot</lognote>
										</logginginfo>
										<labels>
										</labels>
									</clip>
								</children>
							</bin>
							<clip id="masterclip-40" explodedTracks="true" frameBlend="FALSE">
								<uuid>85f87acc-308f-401e-bf82-55e8ea41e55a</uuid>
								<masterclipid>masterclip-40</masterclipid>
								<ismasterclip>TRUE</ismasterclip>
								<duration>5355</duration>
								<rate>
									<timebase>30</timebase>
									<ntsc>TRUE</ntsc>
								</rate>
								<in>876</in>
								<name>B002_C002_0216AM_002.R3D</name>
								<media>
									<video>
										<track>
											<clipitem id="clipitem-118" frameBlend="FALSE">
												<masterclipid>masterclip-40</masterclipid>
												<name>B002_C002_0216AM_002.R3D</name>
												<rate>
													<timebase>30</timebase>
													<ntsc>TRUE</ntsc>
												</rate>
												<alphatype>none</alphatype>
												<pixelaspectratio>square</pixelaspectratio>
												<anamorphic>FALSE</anamorphic>
												<file id="file-40">
													<name>B002_C002_0216AM_002.R3D</name>
													<pathurl>file://localhost/Volumes/REDLAB_3A/SESQUI/MASTER_FILES/DAY_00/RED/R002/B002/B002_0216G4.RDM/B002_C002_0216AM.RDC/B002_C002_0216AM_002.R3D</pathurl>
													<rate>
														<timebase>30</timebase>
														<ntsc>TRUE</ntsc>
													</rate>
													<duration>5355</duration>
													<timecode>
														<rate>
															<timebase>30</timebase>
															<ntsc>TRUE</ntsc>
														</rate>
														<string>03:20:31:06</string>
														<frame>360936</frame>
														<displayformat>NDF</displayformat>
													</timecode>
													<media hasDiscreteStreams="true">
														<video>
															<samplecharacteristics>
																<rate>
																	<timebase>30</timebase>
																	<ntsc>TRUE</ntsc>
																</rate>
																<width>6144</width>
																<height>3160</height>
																<anamorphic>FALSE</anamorphic>
																<pixelaspectratio>square</pixelaspectratio>
																<fielddominance>none</fielddominance>
															</samplecharacteristics>
														</video>
														<audio>
															<samplecharacteristics>
																<depth>16</depth>
																<samplerate>48000</samplerate>
															</samplecharacteristics>
															<channelcount>1</channelcount>
															<layout>mono</layout>
															<audiochannel>
																<sourcechannel>1</sourcechannel>
																<channellabel>discrete</channellabel>
															</audiochannel>
														</audio>
														<audio>
															<samplecharacteristics>
																<depth>16</depth>
																<samplerate>48000</samplerate>
															</samplecharacteristics>
															<channelcount>1</channelcount>
															<layout>mono</layout>
															<audiochannel>
																<sourcechannel>2</sourcechannel>
																<channellabel>discrete</channellabel>
															</audiochannel>
														</audio>
													</media>
												</file>
												<link>
													<linkclipref>clipitem-118</linkclipref>
													<mediatype>video</mediatype>
													<trackindex>1</trackindex>
													<clipindex>1</clipindex>
												</link>
												<link>
													<linkclipref>clipitem-119</linkclipref>
													<mediatype>audio</mediatype>
													<trackindex>1</trackindex>
													<clipindex>1</clipindex>
												</link>
												<link>
													<linkclipref>clipitem-120</linkclipref>
													<mediatype>audio</mediatype>
													<trackindex>2</trackindex>
													<clipindex>1</clipindex>
												</link>
											</clipitem>
										</track>
									</video>
									<audio>
										<track>
											<clipitem id="clipitem-119" frameBlend="FALSE">
												<masterclipid>masterclip-40</masterclipid>
												<name>B002_C002_0216AM_002.R3D</name>
												<rate>
													<timebase>30</timebase>
													<ntsc>TRUE</ntsc>
												</rate>
												<file id="file-40"/>
												<sourcetrack>
													<mediatype>audio</mediatype>
													<trackindex>1</trackindex>
												</sourcetrack>
												<link>
													<linkclipref>clipitem-118</linkclipref>
													<mediatype>video</mediatype>
													<trackindex>1</trackindex>
													<clipindex>1</clipindex>
												</link>
												<link>
													<linkclipref>clipitem-119</linkclipref>
													<mediatype>audio</mediatype>
													<trackindex>1</trackindex>
													<clipindex>1</clipindex>
												</link>
												<link>
													<linkclipref>clipitem-120</linkclipref>
													<mediatype>audio</mediatype>
													<trackindex>2</trackindex>
													<clipindex>1</clipindex>
												</link>
											</clipitem>
										</track>
										<track>
											<clipitem id="clipitem-120" frameBlend="FALSE">
												<masterclipid>masterclip-40</masterclipid>
												<name>B002_C002_0216AM_002.R3D</name>
												<rate>
													<timebase>30</timebase>
													<ntsc>TRUE</ntsc>
												</rate>
												<file id="file-40"/>
												<sourcetrack>
													<mediatype>audio</mediatype>
													<trackindex>2</trackindex>
												</sourcetrack>
												<link>
													<linkclipref>clipitem-118</linkclipref>
													<mediatype>video</mediatype>
													<trackindex>1</trackindex>
													<clipindex>1</clipindex>
												</link>
												<link>
													<linkclipref>clipitem-119</linkclipref>
													<mediatype>audio</mediatype>
													<trackindex>1</trackindex>
													<clipindex>1</clipindex>
												</link>
												<link>
													<linkclipref>clipitem-120</linkclipref>
													<mediatype>audio</mediatype>
													<trackindex>2</trackindex>
													<clipindex>1</clipindex>
												</link>
											</clipitem>
										</track>
									</audio>
								</media>
								<logginginfo>
									<description></description>
									<scene></scene>
									<shottake></shottake>
									<lognote>As Shot</lognote>
								</logginginfo>
								<labels>
									<label2>Iris</label2>
								</labels>
							</clip>
							<bin>
								<name>A003_C002_0216X9.RDC</name>
								<labels>
									<label2>Mango</label2>
								</labels>
								<children>
									<clip id="masterclip-41" explodedTracks="true" frameBlend="FALSE">
										<uuid>5942ea16-7667-40f2-b6b5-090e24ce06a8</uuid>
										<masterclipid>masterclip-41</masterclipid>
										<ismasterclip>TRUE</ismasterclip>
										<duration>5470</duration>
										<rate>
											<timebase>30</timebase>
											<ntsc>TRUE</ntsc>
										</rate>
										<name>A003_C002_0216X9_001.R3D</name>
										<media>
											<video>
												<track>
													<clipitem id="clipitem-121" frameBlend="FALSE">
														<masterclipid>masterclip-41</masterclipid>
														<name>A003_C002_0216X9_001.R3D</name>
														<rate>
															<timebase>30</timebase>
															<ntsc>TRUE</ntsc>
														</rate>
														<alphatype>none</alphatype>
														<pixelaspectratio>square</pixelaspectratio>
														<anamorphic>FALSE</anamorphic>
														<file id="file-41">
															<name>A003_C002_0216X9_001.R3D</name>
															<pathurl>file://localhost/Volumes/REDLAB_3A/SESQUI/MASTER_FILES/DAY_00/RED/R002/A003/A003_0216XO.RDM/A003_C002_0216X9.RDC/A003_C002_0216X9_001.R3D</pathurl>
															<rate>
																<timebase>30</timebase>
																<ntsc>TRUE</ntsc>
															</rate>
															<duration>5470</duration>
															<timecode>
																<rate>
																	<timebase>30</timebase>
																	<ntsc>TRUE</ntsc>
																</rate>
																<string>03:20:29:29</string>
																<frame>360899</frame>
																<displayformat>NDF</displayformat>
															</timecode>
															<media hasDiscreteStreams="true">
																<video>
																	<samplecharacteristics>
																		<rate>
																			<timebase>30</timebase>
																			<ntsc>TRUE</ntsc>
																		</rate>
																		<width>6144</width>
																		<height>3160</height>
																		<anamorphic>FALSE</anamorphic>
																		<pixelaspectratio>square</pixelaspectratio>
																		<fielddominance>none</fielddominance>
																	</samplecharacteristics>
																</video>
																<audio>
																	<samplecharacteristics>
																		<depth>16</depth>
																		<samplerate>48000</samplerate>
																	</samplecharacteristics>
																	<channelcount>1</channelcount>
																	<layout>mono</layout>
																	<audiochannel>
																		<sourcechannel>1</sourcechannel>
																		<channellabel>discrete</channellabel>
																	</audiochannel>
																</audio>
																<audio>
																	<samplecharacteristics>
																		<depth>16</depth>
																		<samplerate>48000</samplerate>
																	</samplecharacteristics>
																	<channelcount>1</channelcount>
																	<layout>mono</layout>
																	<audiochannel>
																		<sourcechannel>2</sourcechannel>
																		<channellabel>discrete</channellabel>
																	</audiochannel>
																</audio>
															</media>
														</file>
														<link>
															<linkclipref>clipitem-121</linkclipref>
															<mediatype>video</mediatype>
															<trackindex>1</trackindex>
															<clipindex>1</clipindex>
														</link>
														<link>
															<linkclipref>clipitem-122</linkclipref>
															<mediatype>audio</mediatype>
															<trackindex>1</trackindex>
															<clipindex>1</clipindex>
														</link>
														<link>
															<linkclipref>clipitem-123</linkclipref>
															<mediatype>audio</mediatype>
															<trackindex>2</trackindex>
															<clipindex>1</clipindex>
														</link>
													</clipitem>
												</track>
											</video>
											<audio>
												<track>
													<clipitem id="clipitem-122" frameBlend="FALSE">
														<masterclipid>masterclip-41</masterclipid>
														<name>A003_C002_0216X9_001.R3D</name>
														<rate>
															<timebase>30</timebase>
															<ntsc>TRUE</ntsc>
														</rate>
														<file id="file-41"/>
														<sourcetrack>
															<mediatype>audio</mediatype>
															<trackindex>1</trackindex>
														</sourcetrack>
														<link>
															<linkclipref>clipitem-121</linkclipref>
															<mediatype>video</mediatype>
															<trackindex>1</trackindex>
															<clipindex>1</clipindex>
														</link>
														<link>
															<linkclipref>clipitem-122</linkclipref>
															<mediatype>audio</mediatype>
															<trackindex>1</trackindex>
															<clipindex>1</clipindex>
														</link>
														<link>
															<linkclipref>clipitem-123</linkclipref>
															<mediatype>audio</mediatype>
															<trackindex>2</trackindex>
															<clipindex>1</clipindex>
														</link>
													</clipitem>
												</track>
												<track>
													<clipitem id="clipitem-123" frameBlend="FALSE">
														<masterclipid>masterclip-41</masterclipid>
														<name>A003_C002_0216X9_001.R3D</name>
														<rate>
															<timebase>30</timebase>
															<ntsc>TRUE</ntsc>
														</rate>
														<file id="file-41"/>
														<sourcetrack>
															<mediatype>audio</mediatype>
															<trackindex>2</trackindex>
														</sourcetrack>
														<link>
															<linkclipref>clipitem-121</linkclipref>
															<mediatype>video</mediatype>
															<trackindex>1</trackindex>
															<clipindex>1</clipindex>
														</link>
														<link>
															<linkclipref>clipitem-122</linkclipref>
															<mediatype>audio</mediatype>
															<trackindex>1</trackindex>
															<clipindex>1</clipindex>
														</link>
														<link>
															<linkclipref>clipitem-123</linkclipref>
															<mediatype>audio</mediatype>
															<trackindex>2</trackindex>
															<clipindex>1</clipindex>
														</link>
													</clipitem>
												</track>
											</audio>
										</media>
										<logginginfo>
											<description></description>
											<scene></scene>
											<shottake></shottake>
											<lognote>As Shot</lognote>
										</logginginfo>
										<labels>
										</labels>
									</clip>
									<clip id="masterclip-42" explodedTracks="true" frameBlend="FALSE">
										<uuid>eff15c42-f488-4e24-a3b6-0eca4235ecc8</uuid>
										<masterclipid>masterclip-42</masterclipid>
										<ismasterclip>TRUE</ismasterclip>
										<duration>5470</duration>
										<rate>
											<timebase>30</timebase>
											<ntsc>TRUE</ntsc>
										</rate>
										<name>A003_C002_0216X9_002.R3D</name>
										<media>
											<video>
												<track>
													<clipitem id="clipitem-124" frameBlend="FALSE">
														<masterclipid>masterclip-42</masterclipid>
														<name>A003_C002_0216X9_002.R3D</name>
														<rate>
															<timebase>30</timebase>
															<ntsc>TRUE</ntsc>
														</rate>
														<alphatype>none</alphatype>
														<pixelaspectratio>square</pixelaspectratio>
														<anamorphic>FALSE</anamorphic>
														<file id="file-42">
															<name>A003_C002_0216X9_002.R3D</name>
															<pathurl>file://localhost/Volumes/REDLAB_3A/SESQUI/MASTER_FILES/DAY_00/RED/R002/A003/A003_0216XO.RDM/A003_C002_0216X9.RDC/A003_C002_0216X9_002.R3D</pathurl>
															<rate>
																<timebase>30</timebase>
																<ntsc>TRUE</ntsc>
															</rate>
															<duration>5470</duration>
															<timecode>
																<rate>
																	<timebase>30</timebase>
																	<ntsc>TRUE</ntsc>
																</rate>
																<string>03:20:29:29</string>
																<frame>360899</frame>
																<displayformat>NDF</displayformat>
															</timecode>
															<media hasDiscreteStreams="true">
																<video>
																	<samplecharacteristics>
																		<rate>
																			<timebase>30</timebase>
																			<ntsc>TRUE</ntsc>
																		</rate>
																		<width>6144</width>
																		<height>3160</height>
																		<anamorphic>FALSE</anamorphic>
																		<pixelaspectratio>square</pixelaspectratio>
																		<fielddominance>none</fielddominance>
																	</samplecharacteristics>
																</video>
																<audio>
																	<samplecharacteristics>
																		<depth>16</depth>
																		<samplerate>48000</samplerate>
																	</samplecharacteristics>
																	<channelcount>1</channelcount>
																	<layout>mono</layout>
																	<audiochannel>
																		<sourcechannel>1</sourcechannel>
																		<channellabel>discrete</channellabel>
																	</audiochannel>
																</audio>
																<audio>
																	<samplecharacteristics>
																		<depth>16</depth>
																		<samplerate>48000</samplerate>
																	</samplecharacteristics>
																	<channelcount>1</channelcount>
																	<layout>mono</layout>
																	<audiochannel>
																		<sourcechannel>2</sourcechannel>
																		<channellabel>discrete</channellabel>
																	</audiochannel>
																</audio>
															</media>
														</file>
														<link>
															<linkclipref>clipitem-124</linkclipref>
															<mediatype>video</mediatype>
															<trackindex>1</trackindex>
															<clipindex>1</clipindex>
														</link>
														<link>
															<linkclipref>clipitem-125</linkclipref>
															<mediatype>audio</mediatype>
															<trackindex>1</trackindex>
															<clipindex>1</clipindex>
														</link>
														<link>
															<linkclipref>clipitem-126</linkclipref>
															<mediatype>audio</mediatype>
															<trackindex>2</trackindex>
															<clipindex>1</clipindex>
														</link>
													</clipitem>
												</track>
											</video>
											<audio>
												<track>
													<clipitem id="clipitem-125" frameBlend="FALSE">
														<masterclipid>masterclip-42</masterclipid>
														<name>A003_C002_0216X9_002.R3D</name>
														<rate>
															<timebase>30</timebase>
															<ntsc>TRUE</ntsc>
														</rate>
														<file id="file-42"/>
														<sourcetrack>
															<mediatype>audio</mediatype>
															<trackindex>1</trackindex>
														</sourcetrack>
														<link>
															<linkclipref>clipitem-124</linkclipref>
															<mediatype>video</mediatype>
															<trackindex>1</trackindex>
															<clipindex>1</clipindex>
														</link>
														<link>
															<linkclipref>clipitem-125</linkclipref>
															<mediatype>audio</mediatype>
															<trackindex>1</trackindex>
															<clipindex>1</clipindex>
														</link>
														<link>
															<linkclipref>clipitem-126</linkclipref>
															<mediatype>audio</mediatype>
															<trackindex>2</trackindex>
															<clipindex>1</clipindex>
														</link>
													</clipitem>
												</track>
												<track>
													<clipitem id="clipitem-126" frameBlend="FALSE">
														<masterclipid>masterclip-42</masterclipid>
														<name>A003_C002_0216X9_002.R3D</name>
														<rate>
															<timebase>30</timebase>
															<ntsc>TRUE</ntsc>
														</rate>
														<file id="file-42"/>
														<sourcetrack>
															<mediatype>audio</mediatype>
															<trackindex>2</trackindex>
														</sourcetrack>
														<link>
															<linkclipref>clipitem-124</linkclipref>
															<mediatype>video</mediatype>
															<trackindex>1</trackindex>
															<clipindex>1</clipindex>
														</link>
														<link>
															<linkclipref>clipitem-125</linkclipref>
															<mediatype>audio</mediatype>
															<trackindex>1</trackindex>
															<clipindex>1</clipindex>
														</link>
														<link>
															<linkclipref>clipitem-126</linkclipref>
															<mediatype>audio</mediatype>
															<trackindex>2</trackindex>
															<clipindex>1</clipindex>
														</link>
													</clipitem>
												</track>
											</audio>
										</media>
										<logginginfo>
											<description></description>
											<scene></scene>
											<shottake></shottake>
											<lognote>As Shot</lognote>
										</logginginfo>
										<labels>
										</labels>
									</clip>
									<clip id="masterclip-43" explodedTracks="true" frameBlend="FALSE">
										<uuid>18f49aa9-66d9-4c37-9bf5-815a2e21bdb2</uuid>
										<masterclipid>masterclip-43</masterclipid>
										<ismasterclip>TRUE</ismasterclip>
										<duration>5470</duration>
										<rate>
											<timebase>30</timebase>
											<ntsc>TRUE</ntsc>
										</rate>
										<name>A003_C002_0216X9_003.R3D</name>
										<media>
											<video>
												<track>
													<clipitem id="clipitem-127" frameBlend="FALSE">
														<masterclipid>masterclip-43</masterclipid>
														<name>A003_C002_0216X9_003.R3D</name>
														<rate>
															<timebase>30</timebase>
															<ntsc>TRUE</ntsc>
														</rate>
														<alphatype>none</alphatype>
														<pixelaspectratio>square</pixelaspectratio>
														<anamorphic>FALSE</anamorphic>
														<file id="file-43">
															<name>A003_C002_0216X9_003.R3D</name>
															<pathurl>file://localhost/Volumes/REDLAB_3A/SESQUI/MASTER_FILES/DAY_00/RED/R002/A003/A003_0216XO.RDM/A003_C002_0216X9.RDC/A003_C002_0216X9_003.R3D</pathurl>
															<rate>
																<timebase>30</timebase>
																<ntsc>TRUE</ntsc>
															</rate>
															<duration>5470</duration>
															<timecode>
																<rate>
																	<timebase>30</timebase>
																	<ntsc>TRUE</ntsc>
																</rate>
																<string>03:20:29:29</string>
																<frame>360899</frame>
																<displayformat>NDF</displayformat>
															</timecode>
															<media hasDiscreteStreams="true">
																<video>
																	<samplecharacteristics>
																		<rate>
																			<timebase>30</timebase>
																			<ntsc>TRUE</ntsc>
																		</rate>
																		<width>6144</width>
																		<height>3160</height>
																		<anamorphic>FALSE</anamorphic>
																		<pixelaspectratio>square</pixelaspectratio>
																		<fielddominance>none</fielddominance>
																	</samplecharacteristics>
																</video>
																<audio>
																	<samplecharacteristics>
																		<depth>16</depth>
																		<samplerate>48000</samplerate>
																	</samplecharacteristics>
																	<channelcount>1</channelcount>
																	<layout>mono</layout>
																	<audiochannel>
																		<sourcechannel>1</sourcechannel>
																		<channellabel>discrete</channellabel>
																	</audiochannel>
																</audio>
																<audio>
																	<samplecharacteristics>
																		<depth>16</depth>
																		<samplerate>48000</samplerate>
																	</samplecharacteristics>
																	<channelcount>1</channelcount>
																	<layout>mono</layout>
																	<audiochannel>
																		<sourcechannel>2</sourcechannel>
																		<channellabel>discrete</channellabel>
																	</audiochannel>
																</audio>
															</media>
														</file>
														<link>
															<linkclipref>clipitem-127</linkclipref>
															<mediatype>video</mediatype>
															<trackindex>1</trackindex>
															<clipindex>1</clipindex>
														</link>
														<link>
															<linkclipref>clipitem-128</linkclipref>
															<mediatype>audio</mediatype>
															<trackindex>1</trackindex>
															<clipindex>1</clipindex>
														</link>
														<link>
															<linkclipref>clipitem-129</linkclipref>
															<mediatype>audio</mediatype>
															<trackindex>2</trackindex>
															<clipindex>1</clipindex>
														</link>
													</clipitem>
												</track>
											</video>
											<audio>
												<track>
													<clipitem id="clipitem-128" frameBlend="FALSE">
														<masterclipid>masterclip-43</masterclipid>
														<name>A003_C002_0216X9_003.R3D</name>
														<rate>
															<timebase>30</timebase>
															<ntsc>TRUE</ntsc>
														</rate>
														<file id="file-43"/>
														<sourcetrack>
															<mediatype>audio</mediatype>
															<trackindex>1</trackindex>
														</sourcetrack>
														<link>
															<linkclipref>clipitem-127</linkclipref>
															<mediatype>video</mediatype>
															<trackindex>1</trackindex>
															<clipindex>1</clipindex>
														</link>
														<link>
															<linkclipref>clipitem-128</linkclipref>
															<mediatype>audio</mediatype>
															<trackindex>1</trackindex>
															<clipindex>1</clipindex>
														</link>
														<link>
															<linkclipref>clipitem-129</linkclipref>
															<mediatype>audio</mediatype>
															<trackindex>2</trackindex>
															<clipindex>1</clipindex>
														</link>
													</clipitem>
												</track>
												<track>
													<clipitem id="clipitem-129" frameBlend="FALSE">
														<masterclipid>masterclip-43</masterclipid>
														<name>A003_C002_0216X9_003.R3D</name>
														<rate>
															<timebase>30</timebase>
															<ntsc>TRUE</ntsc>
														</rate>
														<file id="file-43"/>
														<sourcetrack>
															<mediatype>audio</mediatype>
															<trackindex>2</trackindex>
														</sourcetrack>
														<link>
															<linkclipref>clipitem-127</linkclipref>
															<mediatype>video</mediatype>
															<trackindex>1</trackindex>
															<clipindex>1</clipindex>
														</link>
														<link>
															<linkclipref>clipitem-128</linkclipref>
															<mediatype>audio</mediatype>
															<trackindex>1</trackindex>
															<clipindex>1</clipindex>
														</link>
														<link>
															<linkclipref>clipitem-129</linkclipref>
															<mediatype>audio</mediatype>
															<trackindex>2</trackindex>
															<clipindex>1</clipindex>
														</link>
													</clipitem>
												</track>
											</audio>
										</media>
										<logginginfo>
											<description></description>
											<scene></scene>
											<shottake></shottake>
											<lognote>As Shot</lognote>
										</logginginfo>
										<labels>
										</labels>
									</clip>
									<clip id="masterclip-44" explodedTracks="true" frameBlend="FALSE">
										<uuid>4ba4cb68-a43c-4e1e-8b5e-7021f582db9b</uuid>
										<masterclipid>masterclip-44</masterclipid>
										<ismasterclip>TRUE</ismasterclip>
										<duration>5470</duration>
										<rate>
											<timebase>30</timebase>
											<ntsc>TRUE</ntsc>
										</rate>
										<name>A003_C002_0216X9_004.R3D</name>
										<media>
											<video>
												<track>
													<clipitem id="clipitem-130" frameBlend="FALSE">
														<masterclipid>masterclip-44</masterclipid>
														<name>A003_C002_0216X9_004.R3D</name>
														<rate>
															<timebase>30</timebase>
															<ntsc>TRUE</ntsc>
														</rate>
														<alphatype>none</alphatype>
														<pixelaspectratio>square</pixelaspectratio>
														<anamorphic>FALSE</anamorphic>
														<file id="file-44">
															<name>A003_C002_0216X9_004.R3D</name>
															<pathurl>file://localhost/Volumes/REDLAB_3A/SESQUI/MASTER_FILES/DAY_00/RED/R002/A003/A003_0216XO.RDM/A003_C002_0216X9.RDC/A003_C002_0216X9_004.R3D</pathurl>
															<rate>
																<timebase>30</timebase>
																<ntsc>TRUE</ntsc>
															</rate>
															<duration>5470</duration>
															<timecode>
																<rate>
																	<timebase>30</timebase>
																	<ntsc>TRUE</ntsc>
																</rate>
																<string>03:20:29:29</string>
																<frame>360899</frame>
																<displayformat>NDF</displayformat>
															</timecode>
															<media hasDiscreteStreams="true">
																<video>
																	<samplecharacteristics>
																		<rate>
																			<timebase>30</timebase>
																			<ntsc>TRUE</ntsc>
																		</rate>
																		<width>6144</width>
																		<height>3160</height>
																		<anamorphic>FALSE</anamorphic>
																		<pixelaspectratio>square</pixelaspectratio>
																		<fielddominance>none</fielddominance>
																	</samplecharacteristics>
																</video>
																<audio>
																	<samplecharacteristics>
																		<depth>16</depth>
																		<samplerate>48000</samplerate>
																	</samplecharacteristics>
																	<channelcount>1</channelcount>
																	<layout>mono</layout>
																	<audiochannel>
																		<sourcechannel>1</sourcechannel>
																		<channellabel>discrete</channellabel>
																	</audiochannel>
																</audio>
																<audio>
																	<samplecharacteristics>
																		<depth>16</depth>
																		<samplerate>48000</samplerate>
																	</samplecharacteristics>
																	<channelcount>1</channelcount>
																	<layout>mono</layout>
																	<audiochannel>
																		<sourcechannel>2</sourcechannel>
																		<channellabel>discrete</channellabel>
																	</audiochannel>
																</audio>
															</media>
														</file>
														<link>
															<linkclipref>clipitem-130</linkclipref>
															<mediatype>video</mediatype>
															<trackindex>1</trackindex>
															<clipindex>1</clipindex>
														</link>
														<link>
															<linkclipref>clipitem-131</linkclipref>
															<mediatype>audio</mediatype>
															<trackindex>1</trackindex>
															<clipindex>1</clipindex>
														</link>
														<link>
															<linkclipref>clipitem-132</linkclipref>
															<mediatype>audio</mediatype>
															<trackindex>2</trackindex>
															<clipindex>1</clipindex>
														</link>
													</clipitem>
												</track>
											</video>
											<audio>
												<track>
													<clipitem id="clipitem-131" frameBlend="FALSE">
														<masterclipid>masterclip-44</masterclipid>
														<name>A003_C002_0216X9_004.R3D</name>
														<rate>
															<timebase>30</timebase>
															<ntsc>TRUE</ntsc>
														</rate>
														<file id="file-44"/>
														<sourcetrack>
															<mediatype>audio</mediatype>
															<trackindex>1</trackindex>
														</sourcetrack>
														<link>
															<linkclipref>clipitem-130</linkclipref>
															<mediatype>video</mediatype>
															<trackindex>1</trackindex>
															<clipindex>1</clipindex>
														</link>
														<link>
															<linkclipref>clipitem-131</linkclipref>
															<mediatype>audio</mediatype>
															<trackindex>1</trackindex>
															<clipindex>1</clipindex>
														</link>
														<link>
															<linkclipref>clipitem-132</linkclipref>
															<mediatype>audio</mediatype>
															<trackindex>2</trackindex>
															<clipindex>1</clipindex>
														</link>
													</clipitem>
												</track>
												<track>
													<clipitem id="clipitem-132" frameBlend="FALSE">
														<masterclipid>masterclip-44</masterclipid>
														<name>A003_C002_0216X9_004.R3D</name>
														<rate>
															<timebase>30</timebase>
															<ntsc>TRUE</ntsc>
														</rate>
														<file id="file-44"/>
														<sourcetrack>
															<mediatype>audio</mediatype>
															<trackindex>2</trackindex>
														</sourcetrack>
														<link>
															<linkclipref>clipitem-130</linkclipref>
															<mediatype>video</mediatype>
															<trackindex>1</trackindex>
															<clipindex>1</clipindex>
														</link>
														<link>
															<linkclipref>clipitem-131</linkclipref>
															<mediatype>audio</mediatype>
															<trackindex>1</trackindex>
															<clipindex>1</clipindex>
														</link>
														<link>
															<linkclipref>clipitem-132</linkclipref>
															<mediatype>audio</mediatype>
															<trackindex>2</trackindex>
															<clipindex>1</clipindex>
														</link>
													</clipitem>
												</track>
											</audio>
										</media>
										<logginginfo>
											<description></description>
											<scene></scene>
											<shottake></shottake>
											<lognote>As Shot</lognote>
										</logginginfo>
										<labels>
										</labels>
									</clip>
								</children>
							</bin>
						</children>
					</bin>
				</children>
			</bin>
		</children>
	</bin>
</xmeml>